<?xml version="1.0" encoding="UTF-8"?>
<svg id="_图层_1" data-name="图层 1" xmlns="http://www.w3.org/2000/svg" viewBox="0 0 1402.75 480.09">
  <defs>
    <style>
      .cls-1 {
        fill: #ce9976;
      }

      .cls-2 {
        fill: #5bcffa;
      }

      .cls-3, .cls-4, .cls-5, .cls-6, .cls-7, .cls-8, .cls-9, .cls-10, .cls-11, .cls-12, .cls-13, .cls-14, .cls-15, .cls-16, .cls-17, .cls-18, .cls-19, .cls-20, .cls-21, .cls-22, .cls-23 {
        stroke-miterlimit: 10;
      }

      .cls-3, .cls-4, .cls-10, .cls-11, .cls-12, .cls-15, .cls-16 {
        stroke-width: 3px;
      }

      .cls-3, .cls-24 {
        fill: #b2b2b2;
      }

      .cls-3, .cls-10 {
        stroke: #2f2f2f;
      }

      .cls-25 {
        fill: #fff;
      }

      .cls-4, .cls-5, .cls-7, .cls-8, .cls-9, .cls-10, .cls-12, .cls-13, .cls-14, .cls-26, .cls-18, .cls-22 {
        fill: none;
      }

      .cls-4, .cls-11, .cls-15, .cls-16, .cls-22 {
        stroke: #f2f2f2;
      }

      .cls-5 {
        stroke: #231815;
        stroke-width: 3.46px;
      }

      .cls-6, .cls-7, .cls-8, .cls-9, .cls-13, .cls-27, .cls-14, .cls-26, .cls-17, .cls-18, .cls-19, .cls-20, .cls-21, .cls-23 {
        stroke: #a8a8a8;
      }

      .cls-6, .cls-7, .cls-13, .cls-14, .cls-19, .cls-22 {
        stroke-linecap: round;
      }

      .cls-6, .cls-27, .cls-28, .cls-19, .cls-20, .cls-21, .cls-23 {
        fill: #a8a8a8;
      }

      .cls-6, .cls-20 {
        stroke-width: .93px;
      }

      .cls-7 {
        stroke-width: 1.55px;
      }

      .cls-8 {
        stroke-width: .47px;
      }

      .cls-29 {
        fill: #3d4a56;
      }

      .cls-9, .cls-23 {
        stroke-width: 1.86px;
      }

      .cls-30 {
        fill: #2f2f2f;
      }

      .cls-11 {
        fill: #a85475;
      }

      .cls-31 {
        fill: #f5aab9;
      }

      .cls-32 {
        fill: #f5a9b8;
      }

      .cls-12 {
        stroke: #fff;
      }

      .cls-33 {
        fill: #5bcefa;
      }

      .cls-13, .cls-27, .cls-26, .cls-18, .cls-21 {
        stroke-width: 1.24px;
      }

      .cls-27, .cls-26 {
        stroke-linejoin: round;
      }

      .cls-34 {
        fill: #cc96ac;
      }

      .cls-35 {
        fill: #ccdeef;
      }

      .cls-14 {
        stroke-width: 3.59px;
      }

      .cls-15 {
        fill: #257d7f;
      }

      .cls-36 {
        fill: #171e26;
      }

      .cls-16 {
        fill: #423221;
      }

      .cls-37 {
        fill: #725a4c;
      }

      .cls-17 {
        stroke-width: .73px;
      }

      .cls-17, .cls-38 {
        fill: #231815;
      }

      .cls-39 {
        fill: #7f7f7f;
      }

      .cls-40 {
        fill: #50c6cc;
      }

      .cls-19 {
        stroke-width: .62px;
      }

      .cls-22 {
        stroke-width: .97px;
      }

      .cls-41 {
        fill: #f2f2f2;
      }

      .cls-42 {
        fill: #dbadad;
      }
    </style>
  </defs>
  <g>
    <path class="cls-36" d="M740.22,357.45v-49.52h-19.63c-.69,0-1.04-.42-1.04-1.08v-8.42c0-.67,.35-1.08,1.04-1.08h50.85c.69,0,1.12,.42,1.12,1.08v8.42c0,.67-.43,1.08-1.12,1.08h-19.54v49.52c0,.67-.43,1.08-1.12,1.08h-9.43c-.69,0-1.12-.42-1.12-1.08Z"/>
    <path class="cls-36" d="M782.08,357.45v-59.03c0-.67,.43-1.08,1.12-1.08h19.2c17.55,0,25.16,7.5,25.16,21.34,0,7.5-2.94,13.84-9.25,17.67l11.85,20.84c.43,.75,.09,1.33-.78,1.33h-10.64c-.61,0-1.04-.25-1.3-.75l-10.2-18.01c-1.56,.17-3.11,.25-4.84,.25h-8.65v17.42c0,.67-.43,1.08-1.12,1.08h-9.42c-.69,0-1.12-.42-1.12-1.08Zm11.67-49.69v21.84h8.21c9.17,0,13.49-3.25,13.49-10.92s-4.32-10.92-13.49-10.92h-8.21Z"/>
    <path class="cls-36" d="M835.69,357.28l25.34-59.11c.26-.58,.69-.83,1.3-.83h8.04c.61,0,1.04,.25,1.3,.83l25.34,59.11c.35,.75-.09,1.25-.87,1.25h-10.9c-.6,0-1.04-.25-1.3-.83l-4.5-11.42h-26.37l-4.5,11.42c-.26,.58-.69,.83-1.3,.83h-10.72c-.78,0-1.21-.5-.87-1.25Zm39.6-21.43l-9.08-23.18-9.08,23.18h18.16Z"/>
    <path class="cls-36" d="M905.82,357.45v-59.03c0-.67,.43-1.08,1.12-1.08h9.94c.61,0,1.04,.25,1.38,.75l28.36,42.27v-41.94c0-.67,.43-1.08,1.12-1.08h8.99c.69,0,1.12,.42,1.12,1.08v59.03c0,.67-.43,1.08-1.12,1.08h-9.86c-.61,0-1.04-.25-1.38-.75l-28.45-42.35v42.02c0,.67-.43,1.08-1.12,1.08h-8.99c-.69,0-1.12-.42-1.12-1.08Z"/>
    <path class="cls-36" d="M967.57,343.53c-.26-.67,.09-1.17,.78-1.33l8.99-2.08c.69-.17,1.12,.08,1.38,.75,2.25,5.34,5.88,7.84,12.37,7.84,6.14,0,10.29-1.92,10.29-6.5s-3.89-6.84-10.38-9.09l-5.62-1.92c-10.12-3.33-16.26-9.09-16.26-17.84,0-10,9.25-17.18,21.27-17.18,10.64,0,18.59,4.75,21.79,14.92,.26,.67-.09,1.17-.78,1.33l-9.51,2.33c-.69,.17-1.12-.08-1.38-.75-2.08-5-5.36-6.84-10.12-6.84-5.53,0-9.17,2.25-9.17,5.84,0,3.84,3.29,6.34,10.72,8.75l4.5,1.42c11.5,3.67,17.04,8.92,17.04,19.01s-9.17,17.51-22.4,17.51c-11.85,0-20.15-5.59-23.52-16.17Z"/>
    <path class="cls-36" d="M1023.34,357.45v-59.03c0-.67,.43-1.08,1.12-1.08h9.42c.69,0,1.12,.42,1.12,1.08v49.36h30.61c.69,0,1.12,.42,1.12,1.08v8.59c0,.67-.43,1.08-1.12,1.08h-41.16c-.69,0-1.12-.42-1.12-1.08Z"/>
    <path class="cls-36" d="M1076.27,357.45v-59.03c0-.67,.43-1.08,1.12-1.08h40.12c.69,0,1.12,.42,1.12,1.08v8.42c0,.67-.43,1.08-1.12,1.08h-29.57v13.92h26.72c.69,0,1.12,.42,1.12,1.08v8.25c0,.67-.43,1.08-1.12,1.08h-26.72v15.67h30.61c.69,0,1.12,.42,1.12,1.08v8.42c0,.67-.43,1.08-1.12,1.08h-41.16c-.69,0-1.12-.42-1.12-1.08Z"/>
    <path class="cls-36" d="M1129.88,357.45v-59.03c0-.67,.43-1.08,1.12-1.08h9.94c.61,0,1.04,.25,1.38,.75l28.36,42.27v-41.94c0-.67,.43-1.08,1.12-1.08h8.99c.69,0,1.12,.42,1.12,1.08v59.03c0,.67-.43,1.08-1.12,1.08h-9.86c-.61,0-1.04-.25-1.38-.75l-28.45-42.35v42.02c0,.67-.43,1.08-1.12,1.08h-8.99c-.69,0-1.12-.42-1.12-1.08Z"/>
    <path class="cls-36" d="M1195.78,357.45v-59.03c0-.67,.43-1.08,1.12-1.08h21.1c21.1,0,32.08,11.34,32.08,30.6s-10.98,30.6-32.08,30.6h-21.1c-.69,0-1.12-.42-1.12-1.08Zm11.67-49.52v40.02h9.25c14.09,0,21.27-7.17,21.27-20.01s-7.18-20.01-21.27-20.01h-9.25Z"/>
    <path class="cls-36" d="M1253.37,357.28l25.34-59.11c.26-.58,.69-.83,1.3-.83h8.04c.61,0,1.04,.25,1.3,.83l25.34,59.11c.35,.75-.09,1.25-.87,1.25h-10.9c-.6,0-1.04-.25-1.3-.83l-4.5-11.42h-26.37l-4.5,11.42c-.26,.58-.69,.83-1.3,.83h-10.72c-.78,0-1.21-.5-.86-1.25Zm39.6-21.43l-9.08-23.18-9.08,23.18h18.16Z"/>
    <path class="cls-36" d="M1323.5,357.45v-59.03c0-.67,.43-1.08,1.12-1.08h19.2c17.55,0,25.16,7.5,25.16,21.34,0,7.5-2.94,13.84-9.25,17.67l11.85,20.84c.43,.75,.09,1.33-.78,1.33h-10.64c-.61,0-1.04-.25-1.3-.75l-10.2-18.01c-1.56,.17-3.11,.25-4.84,.25h-8.65v17.42c0,.67-.43,1.08-1.12,1.08h-9.42c-.69,0-1.12-.42-1.12-1.08Zm11.67-49.69v21.84h8.21c9.17,0,13.49-3.25,13.49-10.92s-4.32-10.92-13.49-10.92h-8.21Z"/>
  </g>
  <g>
    <polygon class="cls-36" points="265.06 480.09 341.82 438.01 341.82 480.09 265.06 480.09"/>
    <polygon class="cls-36" points="265.06 480.09 206.31 480.09 136.74 442.53 236.98 385.09 334.48 442.03 265.06 480.09"/>
    <path class="cls-36" d="M1273.35,416.6c-8.14,0-13.28,5.82-13.28,13.94s5.14,13.94,13.28,13.94,13.28-5.82,13.28-13.94-5.14-13.94-13.28-13.94Zm-81.62,0c-8.14,0-13.28,5.82-13.28,13.94s5.14,13.94,13.28,13.94,13.28-5.82,13.28-13.94-5.14-13.94-13.28-13.94Zm124.1,.39h-5.48v14.67h5.48c6.12,0,9-2.18,9-7.34s-2.89-7.34-9-7.34Zm-974.01-36.56v99.66H1402.75v-99.66H341.82Zm823.54,58.35c-2.25,7.73-8.83,13.1-19.17,13.1-12.41,0-20.67-8.4-20.67-21.34s8.66-21.34,20.78-21.34c8.89,0,15.3,4.03,18.13,11.03,.17,.45,0,.84-.46,.95l-6.18,1.68c-.4,.11-.75-.06-.92-.45-2.02-3.75-5.66-5.82-10.45-5.82-8.08,0-12.82,5.54-12.82,13.94s4.79,13.94,12.82,13.94c5.43,0,9.47-2.46,11.37-7.62,.17-.45,.46-.62,.92-.5l6.12,1.68c.46,.11,.63,.39,.52,.73Zm26.38,13.1c-12.35,0-21.36-8.46-21.36-21.34s9-21.34,21.36-21.34,21.36,8.46,21.36,21.34-9,21.34-21.36,21.34Zm58.18-1.51c0,.45-.29,.73-.75,.73h-27.48c-.46,0-.75-.28-.75-.73v-39.65c0-.45,.29-.73,.75-.73h6.29c.46,0,.75,.28,.75,.73v33.15h20.43c.46,0,.75,.28,.75,.73v5.77Zm23.43,1.51c-12.35,0-21.36-8.46-21.36-21.34s9-21.34,21.36-21.34,21.36,8.46,21.36,21.34-9,21.34-21.36,21.34Zm60.78-.78h-7.1c-.4,0-.69-.17-.87-.5l-6.81-12.1c-1.04,.11-2.08,.17-3.23,.17h-5.77v11.7c0,.45-.29,.73-.75,.73h-6.29c-.46,0-.75-.28-.75-.73v-39.65c0-.45,.29-.73,.75-.73h12.81c11.72,0,16.8,5.04,16.8,14.34,0,5.04-1.96,9.3-6.18,11.87l7.91,14c.29,.5,.06,.9-.52,.9Zm19.91,.78c-7.91,0-13.45-3.75-15.7-10.86-.17-.45,.06-.78,.52-.9l6-1.4c.46-.11,.75,.06,.92,.5,1.5,3.58,3.92,5.26,8.25,5.26,4.1,0,6.87-1.29,6.87-4.37s-2.6-4.59-6.93-6.1l-3.75-1.29c-6.75-2.24-10.85-6.1-10.85-11.98,0-6.72,6.18-11.54,14.2-11.54,7.1,0,12.41,3.19,14.55,10.02,.17,.45-.06,.78-.52,.9l-6.35,1.57c-.46,.11-.75-.06-.92-.5-1.38-3.36-3.58-4.59-6.75-4.59-3.69,0-6.12,1.51-6.12,3.92,0,2.58,2.19,4.26,7.16,5.88l3,.95c7.68,2.46,11.37,5.99,11.37,12.77s-6.12,11.76-14.95,11.76Z"/>
  </g>
  <polygon class="cls-29" points="121.02 85.61 21.29 28.02 0 40.31 0 246.06 21.29 258.35 121.02 200.77 121.02 85.61"/>
  <polygon class="cls-11" points="336.71 79.89 236.98 22.3 137.24 79.89 137.24 195.05 236.98 252.63 336.71 195.05 336.71 79.89"/>
  <polygon class="cls-3" points="548.58 79.89 448.85 22.3 349.11 79.89 349.11 195.05 448.85 252.63 548.58 195.05 548.58 79.89"/>
  <polygon class="cls-16" points="229.76 265.13 130.03 207.55 30.29 265.13 30.29 380.3 130.03 437.88 229.76 380.3 229.76 265.13"/>
  <polygon class="cls-15" points="441.55 265.26 341.82 207.68 242.09 265.26 242.09 380.43 341.82 438.01 441.55 380.43 441.55 265.26"/>
  <line class="cls-12" x1="30.29" y1="265.13" x2="130.03" y2="322.71"/>
  <line class="cls-12" x1="229.76" y1="265.13" x2="130.03" y2="322.71"/>
  <line class="cls-12" x1="130.03" y1="437.88" x2="130.03" y2="322.71"/>
  <line class="cls-12" x1="236.98" y1="252.63" x2="236.98" y2="143.19"/>
  <line class="cls-12" x1="336.71" y1="79.89" x2="236.98" y2="143.19"/>
  <line class="cls-12" x1="137.24" y1="79.89" x2="236.98" y2="143.19"/>
  <line class="cls-12" x1="24.04" y1="253.63" x2="24.04" y2="145.33"/>
  <line class="cls-12" x1="123.77" y1="82.03" x2="24.04" y2="145.33"/>
  <polygon class="cls-25" points="2.75 133.6 23.24 146.6 24.84 144.07 2.75 130.05 2.75 133.6"/>
  <line class="cls-10" x1="349.11" y1="79.89" x2="448.85" y2="137.47"/>
  <line class="cls-10" x1="448.85" y1="137.47" x2="548.58" y2="79.89"/>
  <line class="cls-10" x1="448.85" y1="137.47" x2="448.85" y2="252.63"/>
  <circle class="cls-2" cx="27.52" cy="421.22" r="2.78"/>
  <circle class="cls-31" cx="42.37" cy="429.98" r="2.78"/>
  <circle class="cls-1" cx="73" cy="448.04" r="2.78"/>
  <circle class="cls-35" cx="57.73" cy="439.12" r="2.78"/>
  <circle class="cls-42" cx="87.41" cy="456.53" r="2.78"/>
  <g>
    <path class="cls-41" d="M31.45,240.43l-.38-13.13,2.93-1.63c1.51-.84,2.65-1.12,3.4-.81,.75,.31,1.15,1.21,1.19,2.69,.04,1.46-.27,2.75-.96,3.87-.68,1.12-1.74,2.08-3.17,2.88l-2.37,1.32-.05-1.8,2.19-1.22c1-.56,1.73-1.17,2.17-1.83,.44-.66,.65-1.44,.63-2.34-.03-.9-.27-1.43-.74-1.58s-1.2,.05-2.21,.61l-1.42,.79,.33,11.33-1.53,.86Z"/>
    <path class="cls-41" d="M41.61,234.94c-.72,.4-1.3,.47-1.74,.19-.43-.28-.66-.85-.69-1.71-.03-1.1,.28-2.14,.93-3.1,.65-.97,1.6-1.79,2.83-2.48l1.05-.58c-.01-.48-.07-.83-.17-1.04-.1-.21-.27-.31-.5-.29-.23,.02-.55,.14-.95,.36-.47,.26-.95,.59-1.44,.99s-.94,.83-1.37,1.31l-.26-1.48c.46-.49,.97-.96,1.52-1.4,.56-.45,1.12-.83,1.69-1.14,.73-.4,1.3-.61,1.72-.61,.42,0,.73,.21,.93,.65,.2,.43,.31,1.1,.33,2l.17,5.9-1.44,.8-.05-1.07-.03,.02c-.24,.51-.6,1.02-1.08,1.53-.48,.51-.97,.9-1.47,1.18Zm.48-1.88c.37-.21,.71-.49,1.02-.84,.31-.35,.55-.73,.72-1.13,.17-.4,.25-.79,.24-1.16l-.04-1.21-.84,.47c-.86,.48-1.49,.98-1.91,1.52-.42,.53-.62,1.09-.6,1.68,.01,.44,.14,.73,.39,.85,.24,.13,.58,.07,1.02-.18Z"/>
    <path class="cls-41" d="M47.62,231.4l-.27-9.36,1.44-.8,.05,1.11,.03-.02c.27-.59,.61-1.11,1.02-1.56,.4-.44,.87-.82,1.41-1.12,.89-.5,1.56-.56,2-.18,.44,.38,.68,1.21,.72,2.51l.17,5.76-1.51,.84-.16-5.4c-.03-.86-.17-1.43-.42-1.7-.26-.27-.65-.26-1.17,.03-.39,.22-.74,.51-1.04,.89-.3,.38-.53,.79-.69,1.23-.16,.45-.24,.89-.22,1.35l.16,5.58-1.5,.84Z"/>
    <path class="cls-41" d="M59.04,225.21c-.84,.47-1.45,.58-1.83,.33-.38-.24-.59-.88-.62-1.9l-.15-5.04-1.67,.93-.05-1.62,1.67-.93-.09-3.06,1.52-.85,.09,3.06,2.52-1.41,.05,1.62-2.52,1.41,.13,4.5c.02,.64,.12,1.03,.29,1.19,.18,.16,.48,.12,.9-.12,.21-.12,.43-.26,.65-.43,.22-.17,.41-.35,.59-.53l.19,1.58c-.29,.29-.58,.53-.85,.73-.27,.2-.55,.38-.83,.53Z"/>
    <path class="cls-41" d="M65.38,221.67c-1.15,.64-2.06,.72-2.71,.23-.66-.49-1.01-1.51-1.05-3.06-.05-1.55,.24-2.92,.84-4.12,.61-1.2,1.49-2.12,2.64-2.76,1.15-.64,2.06-.72,2.71-.23s1.01,1.51,1.05,3.06c.05,1.55-.24,2.92-.84,4.12-.61,1.2-1.49,2.12-2.64,2.76Zm-.05-1.62c.69-.38,1.2-.95,1.55-1.71,.35-.75,.5-1.66,.47-2.71-.03-1.05-.23-1.76-.61-2.11-.38-.35-.91-.33-1.6,.05-.68,.38-1.19,.95-1.54,1.7-.35,.76-.51,1.66-.48,2.72,.03,1.06,.24,1.76,.62,2.1,.38,.35,.91,.33,1.59-.05Z"/>
    <path class="cls-41" d="M70.62,218.56l-.27-9.36,1.44-.8,.05,1.11,.03-.02c.27-.59,.61-1.11,1.02-1.56,.4-.44,.87-.82,1.41-1.12,.89-.5,1.56-.56,2-.18,.44,.38,.68,1.21,.72,2.51l.17,5.76-1.51,.84-.16-5.4c-.03-.86-.17-1.43-.42-1.7-.26-.27-.65-.26-1.17,.03-.39,.22-.74,.51-1.04,.89-.3,.37-.53,.78-.69,1.23-.16,.45-.24,.89-.22,1.35l.16,5.58-1.5,.84Z"/>
    <path class="cls-41" d="M82.5,212.11c-1.26,.7-2.23,.82-2.94,.36-.7-.46-1.08-1.47-1.12-3.03-.04-1.51,.23-2.87,.84-4.09,.6-1.21,1.45-2.13,2.55-2.74,1.06-.59,1.89-.64,2.48-.14s.92,1.5,.96,2.99c0,.16,0,.33,0,.53,0,.2,0,.35,0,.46l-5.97,3.33-.04-1.53,4.82-2.69-.22,.6c-.03-1.02-.21-1.69-.54-2.01-.33-.32-.81-.3-1.44,.05-.67,.37-1.17,.92-1.5,1.64-.33,.72-.48,1.59-.46,2.59l.02,.54c.03,.97,.25,1.58,.66,1.84,.41,.25,1.01,.16,1.81-.29,.39-.22,.81-.5,1.24-.85s.83-.7,1.17-1.06l.24,1.46c-.35,.39-.75,.76-1.19,1.12-.45,.36-.9,.67-1.35,.92Z"/>
  </g>
  <g>
    <path class="cls-25" d="M154.22,81.01l13.54-5.52,1.64,1-4.25,1.73-.08-.05-4.73,1.93,.08,.05-4.56,1.86-1.64-1Zm1.57-2.6l1.79-.72,2.76,1.68-.07,.04,4.19,2.55,.07-.04,2.8,1.7-1.78,.73-9.76-5.94Zm2.52,5.09l4.57-1.86,.08,.05,4.73-1.93-.08-.05,4.25-1.72,1.65,1-13.55,5.52-1.66-1.01Zm9.25-2.92l.07-.04-4.18-2.54-.08,.04-2.73-1.66,1.79-.72,9.76,5.94-1.78,.73-2.84-1.73Z"/>
    <path class="cls-25" d="M165.85,87.87c-.25-.41-.3-.8-.18-1.19,.12-.39,.43-.73,.92-1.03h.02c.49-.31,1.05-.49,1.67-.55,.62-.05,1.28,.01,2,.19,.71,.18,1.45,.48,2.21,.89l3.62,1.96-1.28,.79-3.31-1.79c-.55-.3-1.06-.47-1.54-.51-.47-.05-.87,.03-1.2,.23h0c-.34,.21-.46,.46-.38,.75,.08,.29,.36,.58,.82,.86,.41,.25,.84,.42,1.31,.52,.47,.1,.93,.13,1.37,.08,.45-.05,.83-.17,1.16-.37l2.47-1.53c.42-.26,.6-.55,.56-.87s-.33-.65-.87-.97c-.5-.3-.99-.48-1.48-.55-.49-.06-.93-.02-1.31,.12l-.09,.03-1.95-1.18,.1-.05c.53-.27,1.15-.44,1.84-.48,.7-.05,1.43,.02,2.21,.22,.77,.2,1.54,.52,2.29,.98,.75,.46,1.29,.92,1.61,1.4,.32,.48,.43,.93,.32,1.37-.11,.44-.44,.83-.99,1.17l-5.67,3.5-2.1-1.28,1.27-.78-.05-.03c-.46,.07-.92,.09-1.41,.06-.48-.03-.96-.12-1.42-.26-.46-.14-.89-.33-1.28-.57-.59-.36-1.01-.74-1.25-1.15Z"/>
    <path class="cls-25" d="M176.15,94.08c-.44-.6-.61-1.18-.52-1.73s.45-1.02,1.09-1.41h.02c.47-.3,1.02-.5,1.64-.6,.62-.1,1.27-.11,1.96-.02,.68,.09,1.34,.26,1.98,.53l.05-.03c-.52-.52-.77-1.05-.75-1.58,.02-.53,.32-.98,.92-1.35h.02c.57-.36,1.26-.56,2.08-.62,.81-.05,1.68,.04,2.58,.27,.91,.23,1.78,.61,2.62,1.11,.84,.51,1.45,1.04,1.84,1.6,.39,.55,.54,1.08,.46,1.58-.08,.5-.41,.93-.98,1.28h-.02c-.6,.38-1.33,.57-2.19,.59-.86,.02-1.72-.13-2.59-.45l-.05,.03c.44,.39,.74,.79,.88,1.21,.15,.42,.14,.81-.02,1.2-.16,.38-.48,.72-.95,1.01h-.02c-.64,.4-1.4,.63-2.29,.69-.89,.06-1.83-.04-2.82-.31-.99-.26-1.95-.68-2.88-1.25-.93-.57-1.62-1.15-2.05-1.75Zm5.12,1.45c.53,.13,1.04,.17,1.53,.13,.49-.04,.92-.17,1.28-.39h.02c.36-.23,.58-.5,.64-.8,.07-.3,0-.61-.22-.94-.21-.33-.57-.64-1.06-.94-.49-.3-1-.51-1.54-.64-.54-.13-1.05-.17-1.54-.13-.49,.04-.91,.18-1.28,.4h-.02c-.36,.23-.57,.49-.63,.79-.06,.3,.01,.62,.23,.94,.22,.33,.57,.64,1.05,.93,.49,.3,1,.51,1.53,.64Zm5.05-3.33c.46,.11,.91,.14,1.34,.1,.43-.04,.81-.16,1.13-.36h.02c.33-.21,.52-.44,.59-.71,.07-.26,0-.53-.17-.82-.18-.28-.48-.55-.91-.81s-.87-.44-1.33-.55c-.46-.11-.91-.14-1.33-.1-.43,.04-.8,.16-1.13,.37h-.02c-.32,.21-.52,.44-.59,.7-.07,.26-.01,.54,.17,.82,.18,.28,.48,.55,.91,.81s.87,.44,1.33,.55Z"/>
    <path class="cls-25" d="M187.28,100.84c-.36-.57-.48-1.12-.37-1.65,.11-.53,.44-1.01,1.01-1.42l.09-.07,2.05,1.25-.05,.04c-.25,.23-.4,.48-.44,.77-.04,.29,.04,.58,.23,.88,.19,.3,.5,.57,.93,.83,.49,.29,1.01,.5,1.57,.6,.56,.11,1.11,.12,1.65,.04,.54-.08,1.04-.25,1.48-.53h.02c.43-.28,.71-.57,.83-.9,.12-.33,.09-.67-.09-1.01-.18-.34-.51-.66-.99-.95-.34-.21-.71-.38-1.1-.5s-.79-.2-1.21-.23c-.2-.02-.41-.02-.61-.02-.21,0-.41,.02-.61,.05l-1.9-1.15,7.11-3.67,7.5,4.56-1.64,1.01-5.75-3.5-3.72,1.88,.04,.03c.44-.05,.88-.04,1.33,.02s.9,.16,1.35,.32c.45,.16,.88,.36,1.28,.6,.78,.47,1.31,.99,1.59,1.56,.28,.56,.32,1.12,.12,1.67s-.67,1.04-1.38,1.49h-.02c-.77,.48-1.64,.78-2.61,.91-.98,.13-1.97,.08-2.99-.13-1.02-.22-1.98-.6-2.88-1.15-.85-.51-1.45-1.06-1.81-1.62Z"/>
    <path class="cls-25" d="M203.33,108.23l-6.09-3.71,1.7-1.05c.83-.1,1.65-.19,2.49-.29,.83-.1,1.66-.2,2.49-.29,.83-.1,1.66-.19,2.48-.29s1.65-.2,2.48-.29c.83-.1,1.66-.19,2.49-.29l3.1,1.89-7.43,4.59,1.65,1-1.63,1.01-1.65-1-2.16,1.33-2.08-1.27,2.16-1.33Zm1.63-.96l5.95-3.67-.05-.03c-.67,.07-1.34,.15-2,.23-.67,.08-1.33,.15-2,.23-.67,.08-1.34,.15-2.01,.23s-1.34,.15-2,.23-1.33,.15-2,.23l-.05,.03,4.16,2.53Z"/>
    <path class="cls-25" d="M221.69,110.36l.04-.02-6.35-3.86,1.64-1.01,8.5,5.17-1.67,1.03-14.77,2.72-2.29-1.39,14.9-2.63Z"/>
    <path class="cls-25" d="M218.4,119.76c-.36-.57-.48-1.12-.37-1.65,.11-.53,.44-1.01,1.01-1.42l.09-.07,2.05,1.25-.05,.04c-.25,.23-.4,.48-.44,.77-.04,.29,.04,.58,.24,.88,.19,.3,.5,.57,.93,.83,.49,.3,1.01,.5,1.57,.6,.56,.11,1.11,.12,1.65,.04,.54-.08,1.04-.25,1.48-.53h.02c.43-.28,.71-.57,.83-.9,.12-.33,.09-.67-.09-1.01-.18-.34-.51-.66-.99-.95-.34-.21-.71-.38-1.1-.5s-.8-.2-1.21-.23c-.2-.02-.41-.02-.61-.02-.21,0-.41,.02-.61,.05l-1.9-1.15,7.11-3.67,7.5,4.56-1.64,1.01-5.75-3.5-3.72,1.88,.04,.03c.44-.05,.88-.04,1.33,.02,.45,.06,.9,.16,1.35,.32,.45,.16,.88,.36,1.28,.6,.78,.47,1.31,.99,1.59,1.56,.28,.56,.32,1.12,.12,1.67-.21,.55-.67,1.04-1.38,1.49h-.02c-.77,.48-1.64,.78-2.61,.91-.98,.13-1.97,.08-2.99-.14-1.02-.21-1.98-.6-2.88-1.15-.85-.51-1.45-1.06-1.81-1.62Z"/>
  </g>
  <g>
    <path class="cls-30" d="M367.26,81.71l13.44-5.78,1.66,.97-4.22,1.81-.08-.05-4.7,2.02,.08,.04-4.52,1.95-1.66-.97Zm1.52-2.63l1.78-.76,2.79,1.63-.07,.04,4.24,2.47,.07-.04,2.83,1.65-1.77,.76-9.87-5.75Zm2.62,5.04l4.53-1.95,.08,.04,4.7-2.02-.08-.04,4.22-1.8,1.67,.97-13.44,5.78-1.68-.98Zm9.19-3.09l.07-.04-4.23-2.46-.08,.04-2.76-1.61,1.78-.76,9.87,5.75-1.77,.76-2.88-1.68Z"/>
    <path class="cls-30" d="M381.66,90.06c-.24-.29-.38-.59-.42-.9s0-.62,.15-.93l-.04-.02-1.38,.89-2.13-1.24,11.09-7.14,2.13,1.24-4.34,2.8,.04,.02c.5-.11,1.01-.16,1.53-.14,.51,.01,1.01,.08,1.51,.22,.49,.13,.95,.32,1.38,.57,.76,.44,1.25,.94,1.47,1.48,.22,.54,.17,1.11-.16,1.7s-.93,1.16-1.8,1.73h0c-.87,.57-1.78,.96-2.72,1.19-.94,.23-1.86,.29-2.76,.19-.9-.11-1.74-.39-2.51-.84-.43-.25-.77-.52-1.01-.82Zm3.48-.1c.55,.06,1.11,.01,1.68-.14,.57-.15,1.13-.4,1.67-.75h0c.54-.35,.92-.71,1.13-1.06,.21-.36,.26-.7,.14-1.03-.12-.33-.41-.63-.86-.89-.44-.26-.93-.41-1.48-.47-.55-.06-1.12-.01-1.7,.12-.59,.14-1.15,.38-1.68,.72h0c-.53,.35-.9,.7-1.11,1.07-.2,.37-.24,.72-.12,1.05,.12,.33,.4,.63,.84,.89,.46,.27,.96,.43,1.5,.48Z"/>
    <path class="cls-30" d="M389.17,92.82l8.18,.08c1.01,.01,1.82,0,2.41-.04,.59-.04,1.07-.11,1.42-.21,.35-.1,.67-.24,.94-.41h.02c.33-.22,.54-.46,.62-.73,.08-.26,.04-.53-.12-.8-.16-.27-.44-.52-.83-.75-.46-.27-.94-.45-1.46-.54-.52-.1-1.02-.11-1.51-.05s-.91,.21-1.28,.44l-.05,.03-2.07-1.21,.05-.03c.68-.44,1.47-.71,2.38-.82,.91-.11,1.85-.07,2.81,.12,.96,.19,1.86,.53,2.7,1.02,.82,.48,1.41,.99,1.77,1.54,.36,.54,.48,1.08,.35,1.59-.12,.52-.49,.97-1.1,1.36h-.02c-.44,.29-.93,.5-1.48,.65-.55,.14-1.26,.24-2.12,.28-.86,.05-1.97,.06-3.32,.03l-6.52-.11,2.1-.38-1.31,.84-.19-.84,6.55,3.81-1.62,1.04-8.67-5.05,1.35-.87Z"/>
    <path class="cls-30" d="M401.99,101.91c-.24-.29-.38-.59-.42-.9s0-.62,.15-.93l-.04-.03-1.38,.89-2.13-1.24,11.09-7.14,2.13,1.24-4.34,2.8,.04,.02c.5-.11,1.01-.16,1.53-.14,.51,.01,1.01,.08,1.51,.22,.49,.13,.95,.32,1.38,.57,.76,.44,1.25,.94,1.47,1.48,.22,.55,.16,1.11-.16,1.7-.32,.59-.92,1.16-1.8,1.73h0c-.87,.57-1.78,.96-2.72,1.19-.94,.23-1.86,.29-2.77,.19-.9-.11-1.74-.39-2.51-.84-.43-.25-.77-.52-1.01-.82Zm3.48-.1c.55,.06,1.11,.01,1.68-.14s1.13-.4,1.67-.75h0c.54-.35,.92-.71,1.13-1.06,.21-.36,.26-.7,.14-1.03-.12-.33-.41-.63-.86-.89-.44-.26-.93-.41-1.48-.47-.55-.06-1.12-.01-1.7,.13-.59,.14-1.15,.38-1.68,.72h0c-.53,.35-.9,.7-1.11,1.07-.2,.37-.24,.72-.12,1.05,.12,.33,.4,.63,.84,.89,.46,.27,.96,.43,1.5,.49Z"/>
    <path class="cls-30" d="M409.51,104.66l8.18,.08c1.01,.01,1.82,0,2.41-.04,.59-.04,1.07-.11,1.42-.21,.35-.1,.67-.24,.94-.41h.02c.33-.22,.54-.46,.62-.73s.04-.53-.12-.8c-.16-.27-.44-.52-.83-.75-.46-.27-.94-.45-1.46-.54s-1.02-.11-1.51-.05c-.49,.07-.91,.21-1.28,.44l-.05,.03-2.07-1.21,.05-.03c.68-.44,1.47-.71,2.38-.82,.91-.11,1.85-.07,2.81,.13,.96,.19,1.86,.53,2.7,1.02,.82,.48,1.41,.99,1.77,1.54,.36,.54,.48,1.08,.35,1.59-.12,.52-.49,.97-1.1,1.36h-.02c-.44,.29-.93,.5-1.48,.65-.55,.14-1.26,.24-2.12,.28-.86,.05-1.97,.06-3.32,.03l-6.51-.11,2.1-.38-1.31,.84-.19-.85,6.55,3.81-1.62,1.04-8.67-5.05,1.35-.87Z"/>
    <path class="cls-30" d="M422.32,113.75c-.24-.29-.38-.59-.42-.9s0-.62,.15-.93l-.04-.02-1.38,.89-2.13-1.24,11.09-7.14,2.13,1.24-4.34,2.8,.04,.02c.5-.11,1.01-.16,1.53-.14,.51,.01,1.01,.08,1.51,.22,.49,.13,.95,.32,1.38,.57,.76,.44,1.25,.94,1.47,1.48,.22,.54,.16,1.11-.16,1.7-.33,.59-.93,1.16-1.8,1.73h0c-.87,.57-1.78,.96-2.72,1.19-.94,.23-1.86,.29-2.76,.19-.9-.11-1.74-.39-2.51-.84-.43-.25-.77-.52-1.01-.82Zm3.48-.1c.55,.06,1.11,.01,1.68-.14,.57-.15,1.13-.4,1.67-.75h0c.54-.35,.92-.71,1.13-1.06,.21-.35,.26-.7,.14-1.03-.12-.33-.41-.63-.86-.89-.44-.26-.93-.41-1.48-.47-.55-.06-1.12-.01-1.7,.12-.59,.14-1.15,.38-1.68,.72h0c-.53,.35-.9,.7-1.11,1.07-.2,.37-.24,.72-.12,1.05s.4,.63,.84,.89c.46,.27,.96,.43,1.5,.48Z"/>
    <path class="cls-30" d="M429.84,116.51l8.18,.08c1.01,.01,1.82,0,2.41-.04,.59-.04,1.07-.11,1.42-.21,.35-.1,.67-.24,.94-.41h.02c.33-.22,.54-.46,.62-.73,.08-.26,.04-.53-.12-.81-.16-.27-.44-.52-.83-.75-.46-.27-.94-.45-1.46-.54-.52-.1-1.02-.11-1.51-.05-.49,.06-.91,.21-1.28,.44l-.05,.03-2.07-1.21,.05-.03c.68-.44,1.47-.71,2.38-.82,.91-.11,1.85-.07,2.81,.13,.96,.19,1.86,.53,2.7,1.02,.82,.48,1.41,.99,1.77,1.54,.36,.54,.48,1.08,.35,1.59-.12,.52-.49,.97-1.1,1.36h-.02c-.44,.29-.93,.5-1.48,.64-.55,.14-1.26,.24-2.12,.28-.86,.05-1.97,.06-3.32,.04l-6.52-.11,2.1-.38-1.31,.84-.19-.84,6.55,3.81-1.62,1.04-8.67-5.05,1.35-.87Z"/>
  </g>
  <g>
    <path class="cls-25" d="M48.47,266.83l13.3-6.08,1.68,.93-4.18,1.91-.08-.04-4.65,2.12,.08,.04-4.48,2.05-1.68-.93Zm1.46-2.66l1.76-.8,2.83,1.56-.07,.05,4.29,2.37,.07-.05,2.87,1.58-1.75,.8-10-5.52Zm2.73,4.98l4.49-2.06,.08,.04,4.65-2.12-.08-.04,4.18-1.9,1.69,.93-13.3,6.08-1.7-.94Zm9.12-3.3l.07-.05-4.28-2.37-.08,.04-2.8-1.55,1.76-.8,10,5.52-1.75,.8-2.91-1.61Z"/>
    <path class="cls-25" d="M67.21,274.59l-6.24-3.45,1.66-1.12c.82-.13,1.65-.26,2.47-.39,.83-.13,1.65-.27,2.47-.4,.82-.13,1.65-.26,2.47-.4,.82-.13,1.64-.27,2.47-.4,.82-.13,1.65-.26,2.48-.4l3.18,1.76-7.23,4.89,1.69,.93-1.59,1.08-1.69-.93-2.1,1.42-2.13-1.18,2.1-1.42Zm1.59-1.03l5.79-3.92-.05-.03c-.67,.1-1.33,.21-1.99,.31-.66,.1-1.32,.21-1.99,.31-.66,.1-1.33,.21-2,.31s-1.33,.21-1.99,.31c-.66,.1-1.32,.21-1.98,.31l-.05,.04,4.27,2.36Z"/>
    <path class="cls-25" d="M71.71,278.02l8.18-.11c1.01-.01,1.82-.04,2.41-.1,.59-.05,1.07-.13,1.42-.24,.35-.11,.66-.25,.93-.43h.02c.33-.23,.53-.48,.6-.74,.07-.27,.03-.53-.14-.8-.17-.27-.45-.51-.85-.73-.46-.26-.95-.43-1.47-.51-.52-.08-1.02-.09-1.51-.01s-.91,.23-1.27,.47l-.05,.04-2.1-1.16,.05-.04c.67-.45,1.45-.74,2.36-.87,.91-.13,1.85-.11,2.82,.06,.97,.17,1.87,.49,2.72,.96,.83,.46,1.43,.96,1.81,1.5,.37,.54,.5,1.06,.39,1.58-.11,.52-.47,.98-1.07,1.39h-.02c-.43,.3-.92,.52-1.47,.68-.55,.16-1.25,.27-2.11,.33-.86,.07-1.96,.1-3.32,.11l-6.52,.04,2.09-.42-1.29,.87-.21-.84,6.63,3.66-1.6,1.08-8.78-4.85,1.33-.9Z"/>
    <path class="cls-25" d="M83.15,285.72c-.42-.56-.59-1.1-.52-1.64,.07-.53,.38-1.02,.92-1.47l.09-.07,2.13,1.18-.07,.07c-.26,.22-.39,.47-.4,.75,0,.28,.1,.56,.34,.86,.24,.29,.6,.57,1.09,.84,.49,.27,.98,.45,1.49,.56,.5,.1,.98,.12,1.43,.06s.84-.2,1.18-.43h.02c.58-.4,.79-.82,.64-1.28-.15-.46-.62-.91-1.42-1.35l-1.48-.82,1.45-.98,1.43,.79c.46,.26,.94,.43,1.42,.52,.49,.09,.95,.11,1.39,.05s.82-.2,1.13-.41h.02c.33-.24,.53-.47,.59-.72,.06-.25,0-.5-.19-.76-.19-.26-.51-.51-.95-.75-.44-.24-.89-.42-1.36-.52-.46-.1-.91-.13-1.34-.09-.43,.04-.83,.16-1.18,.35l-.08,.05-2.07-1.14,.1-.06c.68-.38,1.44-.62,2.28-.73,.84-.1,1.71-.06,2.61,.12,.9,.18,1.77,.5,2.61,.96,.86,.48,1.49,.97,1.89,1.49,.4,.52,.56,1.01,.48,1.5-.08,.48-.4,.92-.97,1.3h-.01c-.45,.31-.96,.52-1.54,.62s-1.18,.13-1.8,.06c-.62-.07-1.23-.2-1.82-.42l-.04,.03c.85,.56,1.33,1.15,1.43,1.77,.1,.62-.22,1.18-.98,1.7h-.01c-.63,.44-1.39,.71-2.27,.82-.88,.11-1.81,.07-2.79-.13-.97-.2-1.93-.56-2.86-1.07-.91-.5-1.58-1.04-1.99-1.59Z"/>
    <path class="cls-25" d="M93.11,289.84l8.18-.11c1.01-.01,1.82-.04,2.41-.1,.59-.05,1.07-.13,1.42-.24,.35-.11,.66-.25,.93-.43h.02c.33-.23,.53-.48,.6-.74,.07-.27,.03-.53-.14-.8-.17-.27-.45-.51-.85-.73-.46-.25-.95-.43-1.47-.51-.52-.09-1.02-.09-1.51-.01s-.91,.23-1.27,.47l-.05,.04-2.1-1.16,.05-.04c.67-.45,1.45-.74,2.36-.87,.91-.13,1.85-.11,2.82,.06,.97,.17,1.87,.49,2.72,.96,.83,.46,1.43,.96,1.81,1.5s.5,1.07,.39,1.58c-.11,.52-.47,.98-1.07,1.39h-.02c-.43,.3-.92,.52-1.47,.68-.55,.16-1.25,.27-2.11,.33-.86,.07-1.97,.1-3.32,.11l-6.52,.04,2.09-.42-1.29,.87-.21-.84,6.63,3.66-1.6,1.08-8.78-4.85,1.33-.9Z"/>
    <path class="cls-25" d="M103.57,295.62l8.18-.11c1.01-.01,1.82-.04,2.41-.1,.59-.05,1.07-.13,1.42-.24,.35-.11,.66-.25,.93-.43h.02c.33-.23,.53-.48,.6-.74,.07-.27,.03-.53-.14-.8-.17-.27-.45-.51-.85-.73-.46-.26-.95-.43-1.47-.51-.52-.09-1.02-.09-1.51-.01s-.91,.23-1.27,.47l-.05,.04-2.1-1.16,.05-.04c.67-.45,1.45-.74,2.36-.87,.91-.13,1.85-.11,2.82,.06,.97,.17,1.87,.49,2.72,.96,.83,.46,1.43,.96,1.81,1.5,.37,.54,.5,1.06,.39,1.58-.11,.52-.47,.98-1.07,1.39h-.02c-.43,.3-.92,.52-1.47,.68-.55,.16-1.25,.27-2.11,.33-.86,.07-1.96,.1-3.32,.11l-6.52,.04,2.09-.43-1.29,.87-.21-.84,6.63,3.66-1.6,1.08-8.78-4.85,1.33-.9Z"/>
    <path class="cls-25" d="M124.93,297.9l-.05-.03-5.17-.47,1.79-1.21,5.27,.45,2.21,1.22-10.93,7.39-2.19-1.21,9.07-6.14Z"/>
  </g>
  <g>
    <path class="cls-25" d="M259.37,266.53l13.44-5.78,1.66,.97-4.22,1.81-.08-.05-4.7,2.02,.08,.04-4.52,1.95-1.66-.97Zm1.52-2.63l1.78-.76,2.79,1.63-.07,.04,4.24,2.47,.07-.04,2.83,1.65-1.77,.76-9.87-5.75Zm2.62,5.04l4.53-1.95,.08,.04,4.7-2.02-.08-.04,4.22-1.8,1.67,.97-13.44,5.78-1.68-.98Zm9.19-3.09l.07-.04-4.23-2.46-.08,.04-2.76-1.61,1.78-.76,9.87,5.75-1.77,.76-2.88-1.67Z"/>
    <path class="cls-25" d="M271.27,271.8l8.18,.08c1.01,.01,1.82,0,2.41-.04,.59-.04,1.07-.11,1.42-.21,.35-.1,.67-.24,.94-.41h.02c.33-.22,.54-.46,.62-.73,.08-.26,.04-.53-.12-.8-.16-.27-.44-.52-.83-.75-.46-.27-.94-.45-1.46-.54-.52-.1-1.02-.11-1.51-.05-.49,.06-.91,.21-1.28,.44l-.05,.03-2.07-1.21,.05-.03c.68-.44,1.47-.71,2.38-.82,.91-.11,1.85-.07,2.81,.12,.96,.2,1.86,.54,2.7,1.02,.82,.48,1.41,.99,1.77,1.54,.36,.54,.48,1.08,.35,1.59-.12,.52-.49,.97-1.1,1.36h-.02c-.44,.29-.93,.5-1.48,.64-.55,.14-1.26,.24-2.12,.28-.86,.04-1.97,.06-3.32,.03l-6.51-.11,2.1-.38-1.31,.84-.19-.84,6.55,3.81-1.62,1.04-8.67-5.05,1.35-.87Z"/>
    <path class="cls-25" d="M282.78,279.88c-.37-.56-.5-1.11-.4-1.64,.1-.54,.42-1.02,.98-1.44l.09-.07,2.07,1.21-.04,.04c-.25,.23-.39,.49-.42,.78-.03,.29,.05,.58,.25,.87s.52,.56,.95,.82c.49,.29,1.02,.48,1.58,.58,.56,.1,1.11,.1,1.65,.01,.54-.09,1.03-.27,1.47-.55h.02c.43-.28,.69-.59,.81-.92s.08-.67-.11-1.01-.52-.65-1.01-.93c-.35-.2-.72-.36-1.11-.48-.39-.12-.8-.19-1.21-.21-.2-.01-.41-.01-.61,0-.21,0-.41,.03-.61,.07l-1.92-1.12,7.04-3.81,7.58,4.42-1.62,1.04-5.82-3.39-3.69,1.95,.04,.02c.44-.05,.88-.06,1.33,0,.45,.05,.9,.15,1.35,.29,.45,.15,.88,.34,1.29,.58,.79,.46,1.33,.97,1.62,1.52,.3,.56,.35,1.12,.15,1.67-.19,.55-.65,1.06-1.35,1.51h-.02c-.76,.5-1.62,.81-2.6,.96s-1.97,.12-2.99-.08c-1.02-.2-1.99-.56-2.9-1.09-.86-.5-1.47-1.03-1.84-1.59Z"/>
    <path class="cls-25" d="M306.46,282.39l.04-.02-6.42-3.74,1.62-1.04,8.59,5-1.65,1.06-14.72,3-2.31-1.35,14.85-2.92Z"/>
    <path class="cls-25" d="M302.12,291c-.22-.55-.17-1.11,.16-1.7,.33-.59,.93-1.16,1.8-1.72h0c.88-.57,1.79-.96,2.73-1.19,.94-.23,1.86-.29,2.76-.18,.9,.11,1.73,.38,2.49,.82,.43,.25,.77,.53,1.01,.82,.24,.29,.38,.59,.42,.91,.05,.31,0,.63-.17,.94l.05,.03,4.34-2.8,2.12,1.24-11.09,7.14-2.12-1.24,1.38-.89-.05-.03c-.49,.11-.98,.16-1.49,.15-.5-.01-1-.09-1.49-.22-.49-.13-.95-.32-1.39-.58-.76-.45-1.26-.94-1.48-1.49Zm5.21,1.3c.55,.06,1.12,.01,1.7-.13s1.14-.39,1.67-.73h0c.53-.35,.9-.7,1.1-1.07,.2-.36,.24-.71,.12-1.04-.12-.33-.4-.63-.84-.88-.46-.27-.96-.43-1.5-.49-.55-.06-1.1-.01-1.67,.13-.57,.15-1.13,.39-1.67,.74h0c-.54,.35-.91,.7-1.13,1.06-.21,.36-.26,.7-.14,1.03,.12,.33,.41,.63,.87,.9,.44,.26,.94,.41,1.49,.47Z"/>
    <path class="cls-25" d="M326.11,293.84l.04-.02-6.42-3.74,1.62-1.04,8.59,5-1.65,1.06-14.72,3-2.31-1.35,14.85-2.92Z"/>
    <path class="cls-25" d="M327.69,298.14l-1.24-.72,1.48-.95,1.24,.72,.78-.5c.53-.34,1.07-.57,1.61-.67,.54-.11,1.1-.09,1.68,.04,.58,.13,1.19,.39,1.85,.77,.21,.12,.41,.25,.6,.38,.19,.13,.35,.24,.46,.33l-1.34,.86c-.08-.06-.17-.12-.28-.19-.1-.07-.21-.14-.33-.2-.42-.24-.81-.37-1.17-.37-.37,0-.71,.1-1.05,.31l-.72,.46,1.82,1.06-1.48,.95-1.78-1.04-6.67,4.3-2.13-1.24,6.67-4.3Z"/>
  </g>
  <line class="cls-12" x1="441.55" y1="265.26" x2="341.82" y2="322.84"/>
  <line class="cls-12" x1="242.09" y1="265.26" x2="341.82" y2="322.84"/>
  <line class="cls-12" x1="341.82" y1="438.01" x2="341.82" y2="322.84"/>
  <g>
    <path class="cls-41" d="M349.38,342.56l-.04-10.56,2.34-1.39,2.48,4.73,.03-.02,2.44-7.66,2.34-1.39,.04,10.56-1.85,1.1-.02-7.38-.03,.02-2.06,6.37-1.72,1.02-2.1-3.9-.03,.02,.02,7.38-1.85,1.1Z"/>
    <path class="cls-41" d="M353.1,354.99c-.69,.41-1.23,.52-1.62,.34-.39-.18-.59-.62-.59-1.32,0-.87,.31-1.72,.93-2.57,.62-.84,1.5-1.6,2.65-2.29l.91-.54c0-.34-.04-.57-.11-.71-.08-.13-.2-.19-.39-.16-.18,.03-.44,.14-.77,.34-.43,.26-.89,.58-1.37,.97-.48,.39-.94,.8-1.37,1.24l-.22-1.41c.46-.46,.97-.9,1.53-1.34,.56-.43,1.12-.82,1.67-1.15,.71-.42,1.26-.66,1.67-.72,.41-.06,.7,.07,.89,.39,.19,.32,.28,.84,.28,1.56l.02,4.75-1.75,1.04-.02-.85h-.01c-.24,.44-.57,.88-1.01,1.33-.44,.45-.88,.81-1.33,1.07Zm.66-1.9c.31-.18,.59-.41,.83-.67,.25-.26,.44-.54,.59-.83,.15-.29,.22-.56,.22-.82v-.86s-.65,.39-.65,.39c-.71,.42-1.25,.84-1.6,1.25-.35,.41-.53,.82-.53,1.23,0,.3,.1,.48,.3,.54,.2,.06,.48-.02,.84-.23Z"/>
    <path class="cls-41" d="M353.36,369.18l-.04-10.56,1.85-1.1,.04,10.56-1.85,1.1Z"/>
    <path class="cls-41" d="M354.87,382.93c-1.23,.73-2.19,.96-2.85,.68-.67-.28-1-1.04-1.01-2.3,0-1.21,.3-2.35,.9-3.41,.61-1.06,1.44-1.9,2.51-2.54,1.03-.61,1.83-.76,2.39-.44,.56,.32,.85,1.08,.85,2.28,0,.14,0,.3,0,.48,0,.18,0,.31-.02,.4l-5.61,3.34v-1.38s4.19-2.49,4.19-2.49l-.25,.57c0-.76-.13-1.25-.38-1.46-.25-.21-.64-.16-1.16,.15-.55,.33-.96,.76-1.23,1.3-.27,.54-.41,1.19-.4,1.93v.58c0,.69,.17,1.09,.5,1.21,.33,.12,.83-.01,1.5-.41,.37-.22,.77-.5,1.2-.84,.43-.34,.81-.67,1.12-.98l.22,1.39c-.33,.34-.71,.68-1.15,1.02-.44,.34-.88,.64-1.31,.9Z"/>
  </g>
  <g>
    <path class="cls-41" d="M245.25,160.96l-.03-10.23,6.59-3.92v1.7s-4.79,2.85-4.79,2.85v2.73s4.55-2.7,4.55-2.7v1.65s-4.53,2.7-4.53,2.7v4.15s-1.78,1.07-1.78,1.07Z"/>
    <path class="cls-41" d="M248.95,172.95c-1.2,.71-2.12,.93-2.77,.66-.65-.27-.97-1.01-.98-2.23,0-1.18,.29-2.28,.88-3.3,.59-1.02,1.4-1.84,2.43-2.46,1-.59,1.77-.73,2.32-.42,.54,.31,.82,1.05,.82,2.21,0,.14,0,.3,0,.47,0,.17-.01,.3-.02,.39l-5.43,3.23v-1.33s4.06-2.42,4.06-2.42l-.24,.55c0-.74-.13-1.21-.37-1.42-.24-.2-.62-.16-1.12,.14-.53,.32-.93,.74-1.19,1.26-.26,.53-.39,1.15-.39,1.87v.56c0,.66,.16,1.06,.48,1.18,.32,.12,.8-.01,1.45-.4,.36-.21,.75-.48,1.17-.81s.78-.64,1.09-.95l.21,1.35c-.32,.33-.69,.66-1.11,.99-.43,.33-.85,.62-1.27,.87Z"/>
    <path class="cls-41" d="M243.81,189.91l-.02-7.29,1.64-.98,.03,.84,.03-.02c.25-.47,.53-.89,.85-1.25,.32-.36,.7-.67,1.13-.93,.44-.26,.8-.39,1.1-.39,.3,0,.51,.12,.64,.36l.03-.02c.27-.52,.57-.95,.9-1.3,.32-.35,.71-.66,1.17-.92,.71-.42,1.22-.52,1.55-.3,.32,.22,.48,.78,.49,1.68l.02,4.85-1.73,1.03-.02-4.39c0-.5-.07-.83-.21-.98-.14-.15-.38-.13-.7,.06-.38,.23-.69,.55-.91,.97-.22,.42-.33,.86-.33,1.33v4.29s-1.72,1.03-1.72,1.03l-.02-4.48c0-.46-.08-.75-.25-.88-.16-.13-.4-.1-.71,.08-.22,.13-.43,.32-.61,.58-.19,.25-.34,.52-.45,.82-.11,.29-.17,.59-.17,.9v4.29s-1.7,1.02-1.7,1.02Z"/>
    <path class="cls-41" d="M247.42,201.94c-.67,.4-1.19,.5-1.57,.33-.38-.18-.57-.6-.57-1.28,0-.84,.3-1.67,.9-2.49,.6-.81,1.46-1.55,2.57-2.21l.88-.53c0-.33-.04-.55-.11-.68-.07-.13-.2-.18-.37-.15-.18,.03-.43,.14-.75,.33-.42,.25-.86,.56-1.33,.94-.47,.38-.91,.78-1.33,1.2l-.21-1.36c.44-.44,.94-.87,1.48-1.29,.54-.42,1.08-.79,1.62-1.11,.68-.41,1.22-.64,1.62-.69,.39-.06,.68,.07,.86,.38,.18,.31,.27,.81,.27,1.52l.02,4.6-1.69,1.01-.02-.82h-.01c-.23,.43-.56,.85-.98,1.29-.42,.43-.85,.78-1.29,1.04Zm.64-1.84c.3-.18,.57-.39,.81-.65,.24-.25,.43-.52,.57-.8,.14-.28,.21-.55,.21-.8v-.83s-.63,.37-.63,.37c-.69,.41-1.21,.81-1.55,1.21s-.51,.79-.51,1.19c0,.29,.1,.46,.29,.52,.19,.06,.46-.02,.81-.22Z"/>
    <path class="cls-41" d="M247.67,215.69l-.03-10.23,1.79-1.07,.03,10.23-1.79,1.07Z"/>
    <path class="cls-41" d="M249.14,229c-1.2,.71-2.12,.93-2.77,.66-.65-.27-.97-1.01-.98-2.23,0-1.18,.29-2.28,.88-3.3,.59-1.02,1.4-1.84,2.43-2.46,1-.59,1.77-.73,2.32-.42,.54,.31,.82,1.05,.82,2.21,0,.14,0,.3,0,.47,0,.17-.01,.3-.02,.39l-5.43,3.23v-1.33s4.06-2.42,4.06-2.42l-.24,.55c0-.74-.13-1.21-.37-1.42-.24-.2-.62-.16-1.12,.14-.53,.32-.93,.74-1.19,1.26-.26,.53-.39,1.15-.39,1.87v.56c0,.66,.16,1.06,.48,1.18,.32,.12,.8-.01,1.45-.4,.36-.21,.75-.48,1.17-.81,.42-.33,.78-.64,1.09-.95l.21,1.35c-.32,.33-.69,.66-1.11,.99-.43,.33-.85,.62-1.27,.87Z"/>
  </g>
  <g>
    <path class="cls-30" d="M457.92,150.23l.06-8.92,1.66-.97,3.38,4.09h.02s.04-6.09,.04-6.09l1.57-.91-.06,8.92-1.64,.95-3.4-4.07h-.02s-.04,6.09-.04,6.09l-1.57,.91Z"/>
    <path class="cls-30" d="M458.19,175.53l.06-8.92,2.68-1.55c1.09-.64,1.91-.93,2.46-.89,.54,.04,.81,.43,.81,1.15,0,.54-.15,1.06-.42,1.57-.28,.51-.67,.96-1.17,1.36v.02c.63-.27,1.1-.31,1.42-.12s.47,.59,.47,1.22c0,.84-.31,1.64-.9,2.4s-1.48,1.48-2.65,2.16l-2.74,1.59Zm2.75-3.02c.66-.38,1.14-.77,1.45-1.15,.31-.38,.46-.79,.47-1.22,0-.44-.15-.67-.45-.69-.31-.02-.79,.16-1.45,.54l-1.96,1.14v-1.39s1.97-1.14,1.97-1.14c.58-.34,1-.67,1.25-.99,.26-.33,.39-.68,.39-1.06,0-.38-.12-.57-.37-.59-.25-.02-.67,.15-1.26,.49l-1.17,.68-.04,6.06,1.17-.68Z"/>
    <path class="cls-30" d="M460.23,186.52l.04-6.27,1.57-.92-.04,6.27-1.57,.91Zm.04-7.37v-1.54s1.58-.91,1.58-.91v1.54s-1.58,.91-1.58,.91Z"/>
    <path class="cls-30" d="M458.25,199.84l.04-6.35,1.47-.86,.02,.73h.02c.24-.45,.52-.82,.84-1.15,.32-.33,.69-.61,1.1-.85,.71-.41,1.23-.51,1.56-.29,.33,.22,.49,.77,.48,1.66l-.03,3.91-1.54,.89,.02-3.58c0-.53-.08-.87-.24-1.01-.16-.14-.43-.11-.8,.1-.26,.15-.5,.35-.7,.59-.21,.24-.37,.5-.49,.76-.12,.26-.18,.53-.18,.8l-.03,3.74-1.55,.9Z"/>
    <path class="cls-30" d="M459.87,211.19c-.59,.34-1.04,.43-1.37,.27-.33-.16-.49-.53-.48-1.12,0-.73,.27-1.45,.8-2.16,.53-.71,1.28-1.34,2.26-1.91l.78-.45c0-.29-.03-.48-.09-.6-.06-.11-.17-.16-.32-.13-.15,.02-.37,.12-.66,.28-.37,.21-.76,.48-1.16,.8-.41,.32-.8,.67-1.17,1.04l-.17-1.19c.39-.38,.82-.75,1.3-1.12s.95-.68,1.42-.95c.6-.35,1.07-.55,1.42-.59,.34-.04,.59,.07,.75,.34,.15,.27,.23,.71,.23,1.32l-.03,4.01-1.48,.86v-.71s-.02,0-.02,0c-.2,.36-.49,.73-.86,1.1-.37,.38-.75,.67-1.13,.89Zm.57-1.6c.26-.15,.5-.34,.71-.56,.21-.22,.38-.45,.5-.69,.12-.24,.19-.48,.19-.69v-.72s-.55,.32-.55,.32c-.61,.35-1.06,.7-1.36,1.04-.3,.34-.45,.69-.46,1.04,0,.25,.08,.41,.25,.46,.17,.05,.4,0,.71-.19Z"/>
    <path class="cls-30" d="M459,223.74l.04-6.35,1.48-.86v1.17s.03-.01,.03-.01c.2-.39,.44-.75,.7-1.1,.26-.35,.55-.67,.88-.95,.32-.29,.65-.53,1-.73v1.43c-.47,.27-.9,.61-1.28,1.02-.38,.41-.69,.84-.92,1.29-.23,.45-.34,.87-.34,1.26l-.02,2.93-1.56,.91Z"/>
    <path class="cls-30" d="M458.92,238.52l1-3.17-2.27-4.97,1.65-.96,1.38,3.88h.02s1.46-5.55,1.46-5.55l1.66-.97-3.29,10.79-1.62,.94Z"/>
  </g>
  <g>
    <path class="cls-41" d="M143.52,339.62c-1.06,.63-1.98,.96-2.75,.99-.77,.02-1.35-.25-1.75-.83s-.6-1.44-.61-2.58c0-1.15,.19-2.25,.59-3.3,.4-1.04,.98-2.01,1.74-2.9,.76-.89,1.68-1.65,2.74-2.28,1.22-.73,2.3-1.08,3.23-1.06l-.42,2.03c-.91-.02-1.82,.24-2.73,.78-.67,.4-1.25,.89-1.73,1.47-.48,.58-.85,1.22-1.11,1.92-.26,.7-.39,1.43-.39,2.2,0,.76,.13,1.33,.4,1.72,.26,.39,.64,.59,1.12,.6,.48,0,1.06-.19,1.74-.59,.89-.53,1.79-1.35,2.72-2.46l.43,1.52c-.93,1.12-2,2.05-3.23,2.78Z"/>
    <path class="cls-41" d="M141.77,355.21c-.81,.49-1.41,.59-1.8,.33-.38-.27-.58-.92-.58-1.97l-.02-4.65,1.83-1.09v4.26c.02,.63,.11,1.04,.29,1.21,.18,.18,.48,.15,.89-.1,.3-.18,.57-.41,.8-.69,.23-.28,.41-.58,.54-.9,.13-.31,.2-.63,.2-.94l-.02-4.45,1.85-1.1,.03,7.55-1.74,1.04-.03-.87-.03,.02c-.27,.51-.59,.96-.95,1.35-.36,.38-.78,.72-1.26,1Z"/>
    <path class="cls-41" d="M142.7,369.22c-.31,.18-.64,.36-.99,.52-.35,.16-.68,.3-1,.4-.32,.1-.6,.18-.84,.22l.22-1.66c.43-.1,.84-.22,1.24-.36,.4-.14,.79-.33,1.17-.56,.44-.26,.77-.52,.98-.77,.21-.25,.31-.51,.31-.78,0-.14-.04-.23-.11-.29-.08-.06-.2-.07-.38-.04-.18,.03-.43,.1-.77,.21-.57,.18-1.06,.29-1.46,.32-.41,.03-.72-.04-.93-.23-.21-.19-.31-.5-.32-.95,0-.72,.24-1.41,.74-2.07,.49-.66,1.22-1.28,2.16-1.84,.43-.25,.87-.48,1.34-.68,.47-.2,.91-.35,1.32-.45l-.22,1.67c-.39,.08-.77,.19-1.13,.34s-.72,.32-1.06,.53c-.44,.26-.77,.51-.98,.75-.21,.24-.31,.47-.3,.7,0,.14,.04,.23,.11,.28,.07,.05,.19,.06,.37,.04,.17-.02,.42-.09,.74-.2,.43-.15,.81-.24,1.14-.29,.33-.05,.62-.05,.86,0,.24,.05,.42,.17,.55,.36,.13,.19,.19,.46,.2,.79,0,.46-.12,.94-.35,1.42-.24,.48-.58,.95-1.01,1.4-.44,.45-.96,.85-1.56,1.21Z"/>
    <path class="cls-41" d="M143.63,383.23c-.83,.5-1.43,.67-1.8,.52-.37-.15-.55-.65-.56-1.5v-3.76s-1.51,.89-1.51,.89v-1.55s1.5-.89,1.5-.89v-2.47s1.83-1.09,1.83-1.09v2.47s2.25-1.33,2.25-1.33v1.55s-2.24,1.33-2.24,1.33v3.28c.01,.46,.08,.73,.21,.83,.13,.1,.37,.05,.72-.16,.19-.11,.38-.25,.59-.42,.21-.17,.4-.33,.56-.5l.16,1.5c-.31,.28-.6,.52-.88,.73-.28,.21-.55,.4-.84,.56Z"/>
    <path class="cls-41" d="M142.84,398.26c-1.13,.67-2.01,.86-2.63,.54-.62-.31-.93-1.1-.93-2.36,0-1.26,.3-2.41,.91-3.46,.61-1.04,1.49-1.9,2.62-2.58,1.13-.67,2.01-.85,2.62-.54,.61,.31,.92,1.1,.93,2.36,0,1.26-.3,2.41-.91,3.45-.61,1.04-1.48,1.9-2.61,2.57Zm0-1.55c.57-.34,.99-.79,1.28-1.36,.29-.57,.43-1.24,.43-2.03,0-.78-.15-1.29-.44-1.52-.29-.23-.72-.17-1.28,.17-.56,.33-.98,.79-1.28,1.36-.3,.57-.44,1.25-.44,2.04,0,.79,.15,1.29,.45,1.51s.73,.17,1.28-.17Z"/>
    <path class="cls-41" d="M138.03,415.53l-.03-7.56,1.7-1.01,.03,.87,.03-.02c.26-.49,.55-.92,.88-1.29,.33-.37,.72-.69,1.18-.96,.45-.27,.83-.4,1.14-.41,.31,0,.53,.12,.66,.37l.03-.02c.28-.54,.59-.98,.93-1.34,.34-.36,.74-.68,1.21-.96,.74-.44,1.27-.54,1.6-.31s.5,.81,.51,1.74l.02,5.03-1.79,1.07-.02-4.55c0-.52-.08-.86-.22-1.02-.15-.16-.39-.13-.73,.07-.4,.24-.71,.57-.94,1-.23,.43-.34,.89-.34,1.38v4.45s-1.78,1.07-1.78,1.07l-.02-4.65c0-.47-.09-.78-.26-.91-.17-.13-.41-.1-.73,.09-.23,.14-.44,.34-.64,.6-.19,.26-.35,.54-.47,.85-.12,.3-.18,.61-.18,.93v4.45s-1.77,1.06-1.77,1.06Z"/>
  </g>
  <polygon class="cls-30" points="461.91 159.09 460.8 159.72 460.8 154.11 461.91 153.48 461.91 159.09"/>
  <path class="cls-41" d="M545.94,214.43v103.59l-88.41,53.84v-105.67l88.41-51.76m3-5.23l-94.41,55.28v112.73l94.41-57.49v-110.51h0Z"/>
  <g>
    <path class="cls-41" d="M465.28,360.45l-.25-8.52-2.6,1.45-.04-1.35,6.39-3.57,.04,1.35-2.6,1.45,.25,8.52-1.19,.67Z"/>
    <path class="cls-41" d="M468.94,358.41l-.21-7.03,1.09-.61,.05,1.35h.02c.16-.42,.37-.81,.62-1.17s.52-.69,.82-.97c.3-.29,.62-.53,.96-.71l.04,1.29c-.45,.25-.85,.59-1.21,1.02-.36,.43-.64,.89-.85,1.39-.21,.5-.3,.98-.29,1.45l.1,3.38-1.14,.64Z"/>
    <path class="cls-41" d="M474.68,355.34c-.54,.3-.98,.35-1.3,.14-.33-.21-.5-.63-.52-1.28-.02-.83,.21-1.61,.7-2.33,.49-.73,1.2-1.35,2.13-1.87l.79-.44c-.01-.36-.05-.62-.13-.78-.08-.16-.2-.23-.37-.22-.17,.02-.41,.11-.71,.27-.36,.2-.72,.45-1.08,.74-.36,.3-.71,.62-1.03,.99l-.19-1.12c.34-.37,.73-.72,1.15-1.05,.42-.33,.84-.62,1.27-.86,.54-.3,.97-.46,1.29-.46,.32,0,.55,.16,.7,.48,.15,.33,.23,.83,.25,1.5l.13,4.44-1.08,.6-.03-.8h-.02c-.18,.4-.45,.78-.81,1.16-.36,.38-.73,.68-1.11,.89Zm.36-1.41c.28-.16,.53-.37,.76-.63,.23-.27,.41-.55,.54-.85,.13-.3,.19-.59,.18-.87l-.03-.91-.63,.35c-.64,.36-1.12,.74-1.44,1.14-.31,.4-.47,.82-.45,1.26,0,.33,.11,.55,.29,.64,.18,.09,.44,.05,.77-.13Z"/>
    <path class="cls-41" d="M479.2,352.68l-.21-7.03,1.08-.6,.03,.83h.02c.21-.46,.46-.85,.76-1.18,.3-.33,.66-.61,1.06-.84,.67-.37,1.17-.42,1.5-.14,.33,.28,.51,.91,.54,1.88l.13,4.33-1.13,.63-.12-4.06c-.02-.65-.13-1.07-.32-1.28-.19-.2-.49-.2-.88,.02-.29,.16-.55,.38-.78,.67-.23,.28-.4,.59-.52,.92-.12,.33-.18,.67-.17,1.02l.12,4.19-1.13,.63Z"/>
    <path class="cls-41" d="M487.35,348.27c-.24,.14-.5,.26-.76,.36-.26,.11-.51,.19-.75,.24-.24,.06-.45,.08-.64,.09l.12-1.28c.31-.03,.63-.09,.94-.18,.32-.09,.63-.22,.94-.39,.4-.23,.71-.47,.9-.73,.2-.26,.29-.54,.28-.84,0-.17-.04-.29-.12-.37-.07-.07-.2-.11-.38-.11-.18,0-.42,.05-.73,.13-.42,.1-.79,.15-1.11,.14s-.56-.1-.74-.29-.27-.49-.28-.91c-.02-.64,.16-1.23,.53-1.78,.37-.55,.92-1.02,1.64-1.42,.33-.19,.68-.34,1.03-.47,.36-.12,.68-.2,.98-.23l-.13,1.28c-.28,.02-.57,.08-.85,.17-.29,.1-.57,.22-.86,.38-.41,.23-.72,.47-.91,.71-.2,.24-.29,.49-.28,.75,0,.15,.04,.27,.11,.34,.07,.07,.19,.1,.36,.1,.17,0,.41-.04,.71-.12,.31-.08,.59-.13,.85-.15,.26-.02,.48,.01,.68,.08,.19,.07,.35,.2,.46,.38,.11,.19,.17,.45,.18,.78,.01,.43-.07,.85-.23,1.26-.17,.41-.42,.78-.74,1.14-.33,.35-.73,.66-1.19,.92Z"/>
    <path class="cls-41" d="M490.88,346.16l-.29-9.87,1.15-.64,.29,9.87-1.15,.64Z"/>
    <path class="cls-41" d="M496.28,343.28c-.94,.53-1.68,.62-2.21,.27-.53-.35-.81-1.11-.84-2.28-.03-1.14,.18-2.16,.63-3.07,.45-.91,1.09-1.6,1.92-2.06,.8-.45,1.42-.48,1.87-.11,.45,.37,.69,1.12,.72,2.25,0,.12,0,.25,0,.39,0,.15,0,.26,0,.35l-4.48,2.5-.03-1.15,3.63-2.02-.17,.45c-.02-.77-.16-1.27-.41-1.51-.25-.24-.61-.23-1.08,.03-.5,.28-.88,.69-1.13,1.24-.25,.54-.36,1.19-.34,1.95v.41c.03,.73,.2,1.19,.5,1.38,.31,.19,.76,.12,1.36-.22,.29-.16,.6-.38,.93-.64,.33-.26,.62-.53,.88-.8l.18,1.09c-.26,.29-.56,.57-.9,.84-.34,.27-.68,.5-1.02,.69Z"/>
    <path class="cls-41" d="M499.66,341.26l-.21-7.03,1.08-.6,.03,.83h.02c.21-.46,.46-.85,.76-1.18,.3-.33,.66-.61,1.06-.84,.67-.37,1.17-.42,1.5-.14,.33,.28,.51,.91,.54,1.88l.13,4.33-1.13,.63-.12-4.06c-.02-.65-.13-1.08-.32-1.28-.19-.2-.49-.2-.88,.02-.29,.16-.55,.39-.78,.67-.23,.28-.4,.59-.52,.92-.12,.33-.18,.67-.17,1.02l.12,4.19-1.13,.63Z"/>
    <path class="cls-41" d="M506.23,336.74c-.43-.42-.66-1.2-.7-2.34-.03-1.15,.15-2.15,.54-3.03,.39-.87,.95-1.51,1.68-1.92,.36-.2,.7-.31,1.01-.31,.31,0,.57,.1,.77,.3h.02s-.11-3.69-.11-3.69l1.13-.63,.29,9.87-1.08,.6-.03-.83h-.02c-.19,.43-.44,.81-.75,1.16-.31,.35-.65,.62-1.02,.83-.73,.41-1.31,.4-1.74-.01Zm2.73-2.01c.23-.28,.4-.6,.53-.94,.13-.35,.18-.68,.17-1.02l-.04-1.33c0-.34-.09-.61-.23-.8-.14-.19-.33-.3-.56-.32-.23-.03-.5,.04-.78,.2-.48,.27-.83,.68-1.08,1.25-.24,.57-.35,1.24-.33,2.01s.17,1.3,.43,1.59c.27,.28,.64,.29,1.11,.02,.29-.16,.54-.38,.77-.66Z"/>
    <path class="cls-41" d="M513.77,333.52c-.54,.3-.98,.35-1.31,.14-.33-.21-.5-.63-.52-1.29-.02-.83,.21-1.61,.7-2.33,.49-.73,1.2-1.35,2.13-1.87l.79-.44c-.01-.36-.05-.62-.13-.78-.08-.16-.2-.23-.37-.22-.17,.02-.41,.11-.71,.27-.36,.2-.72,.45-1.08,.74-.36,.3-.71,.62-1.03,.99l-.19-1.12c.34-.37,.73-.72,1.15-1.05,.42-.33,.84-.62,1.27-.86,.54-.3,.97-.46,1.29-.46,.32,0,.55,.16,.7,.49,.15,.33,.23,.83,.25,1.5l.13,4.44-1.08,.6-.03-.8h-.02c-.18,.39-.45,.78-.81,1.16-.36,.38-.73,.68-1.11,.89Zm.36-1.41c.28-.16,.53-.37,.76-.63,.23-.27,.41-.55,.54-.85,.13-.3,.19-.59,.18-.87l-.03-.9-.63,.35c-.64,.36-1.12,.74-1.44,1.14-.32,.4-.47,.82-.45,1.26,0,.33,.11,.55,.29,.64,.18,.09,.44,.05,.77-.13Z"/>
    <path class="cls-41" d="M518.29,330.86l-.21-7.03,1.09-.61,.05,1.35h.02c.16-.42,.37-.81,.62-1.17,.25-.36,.52-.69,.82-.97,.3-.29,.62-.53,.96-.71l.04,1.29c-.45,.25-.85,.59-1.21,1.02-.36,.43-.64,.89-.85,1.39-.21,.5-.3,.98-.29,1.45l.1,3.38-1.14,.64Z"/>
  </g>
  <g>
    <rect class="cls-32" x="722.81" y="131.92" width="156.4" height="22.43"/>
    <rect class="cls-33" x="722.81" y="193.46" width="156.4" height="22.43"/>
    <rect class="cls-33" x="722.81" y="110" width="156.4" height="22.95"/>
    <rect class="cls-32" x="722.81" y="173.84" width="156.4" height="22.95"/>
    <rect class="cls-25" x="722.81" y="154.36" width="156.4" height="22.95"/>
    <path class="cls-17" d="M871.78,220.54h-140.23c-6.04,0-10.96-4.92-10.96-10.96V116.54c0-6.04,4.92-10.96,10.96-10.96h140.23c6.04,0,10.96,4.92,10.96,10.96v93.04c0,6.04-4.92,10.96-10.96,10.96Zm-140.23-109.19c-2.86,0-5.19,2.33-5.19,5.19v93.04c0,2.86,2.33,5.19,5.19,5.19h140.23c2.86,0,5.19-2.33,5.19-5.19V116.54c0-2.86-2.33-5.19-5.19-5.19h-140.23Z"/>
    <circle class="cls-38" cx="773.66" cy="158.65" r="8.53"/>
    <circle class="cls-38" cx="829.68" cy="158.65" r="8.53"/>
    <path class="cls-5" d="M801.67,187.9c6.82,0,12.36-5.53,12.36-12.36h-24.71c0,6.82,5.53,12.36,12.36,12.36Z"/>
    <rect class="cls-38" x="733.36" y="105.96" width="10.04" height="20.58" rx="1.15" ry="1.15"/>
    <rect class="cls-38" x="861.05" y="105.96" width="10.04" height="20.58" rx="1.15" ry="1.15"/>
    <rect class="cls-38" x="746.67" y="116.25" width="110" height="3.3"/>
    <path class="cls-38" d="M748.94,203.25c2.85,0,16.36-12.64,8.66-18.09-7.7-5.44-18.02,5.62-18.02,5.62-1.43,2.81,6.51,12.47,9.35,12.47Z"/>
    <path class="cls-38" d="M855.99,203.25c-2.85,0-16.36-12.64-8.66-18.09,7.7-5.44,18.02,5.62,18.02,5.62,1.43,2.81-6.51,12.47-9.35,12.47Z"/>
  </g>
  <g>
    <path class="cls-41" d="M26.35,124.02l-.06-.05-4.12,2.45,.05,.05-2.7,1.6-.95-1.2,9.62-5.72,.96,1.19-2.8,1.67Zm-.36,8.5l-7.26-9.04,1.62-.96,2.28,2.84-.08,.04,2.53,3.16,.08-.04,2.45,3.04-1.62,.96Zm-3.78-1.21l-.95-1.2,2.72-1.62,.06,.05,4.13-2.46-.06-.05,2.76-1.64,.96,1.19-9.62,5.72Zm7.82-1.2l-2.45-3.05,.08-.04-2.53-3.16-.08,.04-2.26-2.84,1.63-.97,7.26,9.04-1.64,.97Z"/>
    <path class="cls-41" d="M38.11,125.06c-.89,.2-1.73,.25-2.52,.15-.79-.1-1.48-.35-2.07-.74l-.09-.06,2.05-1.22,.09,.05c.3,.19,.66,.3,1.07,.33,.41,.04,.85,0,1.32-.13,.47-.12,.94-.32,1.41-.6,.47-.28,.81-.57,1.03-.88,.22-.31,.32-.61,.29-.9-.03-.29-.19-.55-.48-.79h-.01c-.5-.42-1.11-.59-1.81-.55-.71,.04-1.45,.29-2.22,.75l-1.43,.85-1.27-1.02,1.38-.82c.45-.26,.77-.54,.98-.84,.21-.3,.3-.59,.27-.87-.03-.28-.18-.54-.46-.76h-.01c-.29-.24-.62-.39-.98-.46-.36-.07-.75-.05-1.16,.04-.41,.09-.83,.27-1.26,.52-.42,.25-.74,.52-.96,.8-.22,.28-.32,.56-.31,.84,0,.28,.13,.54,.36,.78l.06,.06-2,1.19-.07-.07c-.48-.47-.73-.97-.77-1.51-.04-.54,.14-1.08,.53-1.63,.39-.55,.99-1.06,1.8-1.54,.83-.49,1.66-.84,2.48-1.04,.83-.2,1.59-.25,2.3-.15,.71,.1,1.31,.35,1.81,.75h.01c.39,.33,.63,.67,.71,1.05,.08,.38,.03,.76-.15,1.14-.18,.39-.47,.75-.87,1.1l.03,.03c.96-.48,1.9-.71,2.84-.71s1.74,.27,2.4,.8h.01c.55,.45,.85,.96,.89,1.53,.04,.57-.15,1.15-.58,1.75-.43,.59-1.1,1.16-1.99,1.69-.88,.52-1.76,.89-2.65,1.09Z"/>
    <path class="cls-41" d="M47.8,119.13c-.84,.09-1.68,0-2.53-.26-.85-.26-1.64-.7-2.39-1.3h0c-.75-.61-1.25-1.22-1.5-1.84-.24-.62-.24-1.21,.01-1.77s.75-1.06,1.49-1.5c.42-.25,.87-.44,1.33-.56,.46-.12,.93-.19,1.4-.19,.47,0,.93,.06,1.38,.19l.05-.03-3.74-3.01,2.07-1.23,9.54,7.68-2.07,1.23-1.19-.96-.05,.03c.12,.32,.14,.64,.06,.96-.07,.32-.23,.63-.48,.92-.25,.3-.58,.57-1.01,.83-.75,.44-1.54,.71-2.38,.8Zm2.48-3.18c.14-.34,.14-.71-.02-1.09-.16-.38-.46-.76-.92-1.13h0c-.46-.37-.95-.64-1.47-.8-.52-.16-1.04-.22-1.55-.17-.51,.04-.98,.2-1.41,.45-.45,.27-.74,.57-.88,.91-.14,.34-.13,.7,.03,1.07,.16,.37,.47,.75,.94,1.12h0c.46,.38,.95,.65,1.47,.82,.51,.17,1.03,.23,1.53,.18,.51-.05,.99-.2,1.43-.47,.43-.25,.71-.55,.86-.9Z"/>
    <path class="cls-41" d="M60.61,109.37l-6.01,3.57-1.45-1.17c-.08-.53-.16-1.07-.25-1.6-.08-.54-.17-1.07-.25-1.6-.08-.53-.17-1.07-.25-1.6-.09-.53-.17-1.07-.25-1.6-.08-.53-.17-1.07-.25-1.6l3.06-1.82,6.32,5.08,1.63-.97,1.39,1.12-1.63,.97,1.84,1.48-2.05,1.22-1.84-1.48Zm-1.32-1.11l-5.06-4.07-.05,.03c.06,.43,.12,.86,.19,1.29,.06,.43,.13,.86,.19,1.29,.06,.43,.13,.86,.19,1.29,.06,.43,.12,.86,.19,1.29,.06,.43,.13,.86,.2,1.29l.05,.04,4.11-2.44Z"/>
    <path class="cls-41" d="M68.39,107.11c-.63,.12-1.22,.13-1.79,.02-.57-.11-1.06-.33-1.47-.67h-.01c-.42-.35-.65-.71-.68-1.11-.03-.4,.11-.81,.44-1.25,.33-.44,.83-.88,1.51-1.33l3.22-2.14,1.09,.88-2.94,1.96c-.49,.33-.78,.64-.89,.93-.1,.3-.02,.56,.26,.78h0c.29,.24,.65,.34,1.09,.3s.89-.18,1.35-.45c.4-.24,.69-.5,.88-.79,.19-.29,.26-.58,.22-.87s-.19-.54-.47-.76l-2.1-1.69c-.35-.28-.77-.42-1.26-.42-.49,0-.99,.16-1.52,.47-.49,.29-.8,.59-.93,.9-.13,.31-.1,.59,.09,.84l.04,.06-1.92,1.14-.07-.07c-.37-.36-.57-.76-.59-1.21-.02-.45,.14-.91,.5-1.38,.35-.48,.9-.93,1.65-1.38,.74-.44,1.48-.74,2.21-.91,.74-.17,1.43-.2,2.07-.1,.65,.1,1.21,.34,1.68,.72l4.82,3.88-2.07,1.23-1.08-.87-.05,.03c.08,.29,.07,.59-.02,.9-.09,.3-.25,.6-.5,.88-.24,.28-.56,.54-.95,.77-.58,.35-1.19,.58-1.82,.71Z"/>
    <path class="cls-41" d="M78.64,100.94c-.88,.18-1.71,.22-2.5,.11-.79-.11-1.48-.36-2.06-.75l-.09-.06,2.02-1.2,.05,.03c.32,.18,.7,.29,1.13,.34,.43,.05,.87,.02,1.33-.08,.46-.1,.9-.27,1.32-.53,.48-.28,.82-.6,1.02-.95,.2-.35,.27-.7,.19-1.05-.08-.35-.31-.68-.68-.98h-.01c-.37-.3-.79-.5-1.28-.61-.49-.1-.99-.11-1.52-.02-.53,.09-1.02,.27-1.5,.55-.34,.2-.62,.42-.83,.66-.21,.24-.36,.49-.43,.75-.04,.13-.06,.25-.07,.39,0,.13,0,.26,.04,.39l-1.87,1.11-4.97-4.81,7.4-4.4,1.4,1.12-5.68,3.38,2.54,2.51,.04-.03c-.04-.28,0-.56,.12-.84,.12-.28,.31-.56,.58-.83,.27-.27,.6-.53,1-.77,.77-.46,1.59-.75,2.45-.89,.87-.14,1.7-.12,2.51,.06,.81,.17,1.52,.51,2.12,1h.01c.65,.54,1.04,1.11,1.15,1.74,.12,.63-.03,1.26-.43,1.89-.4,.63-1.04,1.21-1.93,1.74-.83,.5-1.69,.84-2.57,1.02Z"/>
    <path class="cls-41" d="M89.71,94.47c-.77,.19-1.58,.27-2.42,.22-.84-.05-1.69-.24-2.56-.58-.86-.33-1.71-.84-2.55-1.51h-.01c-1.05-.85-1.75-1.7-2.12-2.54-.36-.84-.38-1.64-.04-2.4,.33-.76,1.01-1.44,2.03-2.05,.75-.44,1.52-.76,2.33-.95,.81-.19,1.59-.25,2.36-.18,.76,.06,1.45,.25,2.05,.57l.1,.04-2.14,1.27-.09-.03c-.33-.11-.67-.18-1.03-.19-.36-.01-.72,.03-1.09,.12-.37,.09-.74,.25-1.1,.46-.65,.38-1.02,.82-1.13,1.3-.11,.48-.02,.98,.28,1.5,.29,.52,.73,1.03,1.3,1.53,.05,.05,.11,.1,.16,.15,.06,.05,.11,.1,.17,.14l1.96,1.05c.35,.28,.77,.47,1.27,.58,.5,.1,1.01,.12,1.55,.03,.53-.08,1.02-.26,1.47-.52,.45-.27,.78-.58,.98-.93,.2-.35,.27-.7,.2-1.05-.07-.35-.27-.67-.62-.94h-.01c-.36-.3-.79-.5-1.27-.6-.49-.1-.99-.11-1.51-.03-.52,.09-1.01,.27-1.47,.54-.46,.27-.79,.58-1,.92-.21,.34-.29,.69-.22,1.04,.06,.35,.27,.67,.63,.95h0s-.51,.31-.51,.31l-1.62-1.3,.18-.11c-.14-.33-.16-.68-.07-1.05,.08-.37,.28-.74,.58-1.11,.3-.37,.73-.72,1.27-1.04,.77-.46,1.59-.76,2.45-.89,.86-.14,1.7-.12,2.5,.06,.81,.18,1.51,.51,2.11,.99h.01c.64,.53,1.02,1.1,1.13,1.73,.11,.63-.04,1.26-.43,1.9-.39,.63-1.03,1.21-1.89,1.72-.66,.39-1.38,.69-2.15,.88Z"/>
  </g>
  <g>
    <path class="cls-23" d="M1337.48,208.37s-.04,.02-.06,.03c-.84,.46-1.66-.62-.95-1.25,19.41-17.6,24.44-46.26,10.48-69.39-13.96-23.14-42.4-33.26-68.01-25.94-.93,.27-1.5-.95-.66-1.42,.02-.01,.04-.02,.06-.04,28.25-15.64,64.39-6.38,80.73,20.68,16.33,27.06,6.67,61.68-21.58,77.32Z"/>
    <path class="cls-9" d="M1329.75,212.61l2.58-1.43c.52-.29,.7-.93,.4-1.43l-58-96.23c-.3-.5-.97-.67-1.49-.38l-2.58,1.43c-.52,.29-.7,.93-.4,1.43l58,96.23c.3,.5,.97,.67,1.49,.38Z"/>
    <path class="cls-21" d="M1276.17,150.59v10.76l-10.04-10.61v-.29c0-.27,.11-.53,.31-.71l3.92-3.76c.42-.39,1.08-.39,1.49,0l4.02,3.89c.19,.19,.3,.44,.3,.71Z"/>
    <path class="cls-18" d="M1276.17,161.43v10.85c0,.26-.11,.52-.3,.7l-3.87,3.8c-.41,.4-1.08,.41-1.5,0l-4.06-3.89c-.2-.19-.31-.45-.31-.71v-.3l10.04-10.46Z"/>
    <polygon class="cls-26" points="1271 155.89 1266.13 161.47 1266.13 150.74 1271 155.89"/>
    <polygon class="cls-27" points="1270.98 166.85 1266.13 171.89 1266.13 161.47 1270.98 166.85"/>
    <line class="cls-18" x1="1271.15" y1="167.04" x2="1270.98" y2="166.85"/>
    <line class="cls-18" x1="1271.11" y1="155.76" x2="1271" y2="155.89"/>
    <path class="cls-18" d="M1298.65,219.13c-7.25,0-8.76-6.75-8.73-8.09,0-.2,.02,.2,0,0-.48-4.83,4.7-13.03,6.91-18.16,.22-.51,.72-.72,1.2-.72,.53,0,.9,.29,1.09,.78,0,0,7.3,11.84,7.3,18.1,0,2.05-.42,8.09-7.77,8.09Z"/>
    <path class="cls-20" d="M1298.56,209.76l4.54-7.19c.19-.3-.04-.68-.4-.68h-9.07c-.37,0-.59,.38-.4,.68l4.54,7.19c.18,.29,.62,.29,.8,0Z"/>
    <path class="cls-20" d="M1298.56,218.11l4.53-7.18c.19-.3-.04-.68-.4-.68h-9.07c-.37,0-.59,.38-.4,.68l4.53,7.18c.18,.29,.62,.29,.8,0Z"/>
    <line class="cls-8" x1="1282.49" y1="117.33" x2="1292.81" y2="134.45"/>
    <line class="cls-8" x1="1284.04" y1="116.47" x2="1292.69" y2="130.83"/>
    <line class="cls-8" x1="1285.69" y1="115.56" x2="1292.34" y2="126.58"/>
    <line class="cls-8" x1="1287.35" y1="114.64" x2="1292.64" y2="123.4"/>
    <line class="cls-13" x1="1271.09" y1="122.7" x2="1271.21" y2="143.09"/>
    <line class="cls-13" x1="1298.08" y1="167.55" x2="1298.22" y2="189.47"/>
    <line class="cls-13" x1="1271.02" y1="179.68" x2="1271.1" y2="193.6"/>
    <line class="cls-13" x1="1268.08" y1="197.91" x2="1274" y2="197.91"/>
    <path class="cls-7" d="M1262.58,194.52l8.55,22.69s.08,.05,.1,0l8.54-22.69"/>
    <path class="cls-6" d="M1320.35,188.16s15.56,11.48,9.79,15.66l-9.79-15.66Z"/>
    <path class="cls-19" d="M1317.17,183.2c3.8,1.97,2.87,4.97,2.87,4.97l-2.87-4.97Z"/>
    <path class="cls-19" d="M1315.74,180.2c1,.81,1.43,2.48,1.43,2.48l-1.43-2.48Z"/>
  </g>
  <g>
    <line class="cls-14" x1="937.6" y1="152.47" x2="958.42" y2="173.28"/>
    <line class="cls-14" x1="937.6" y1="173.28" x2="958.42" y2="152.47"/>
  </g>
  <g>
    <line class="cls-14" x1="1189.87" y1="150.94" x2="1210.69" y2="171.76"/>
    <line class="cls-14" x1="1189.87" y1="171.76" x2="1210.69" y2="150.94"/>
  </g>
  <g>
    <path class="cls-28" d="M1251.42,71.36c1.58,0,3,.32,4.27,.95s2.26,1.56,2.99,2.79c.72,1.22,1.08,2.67,1.08,4.34s-.36,3.15-1.08,4.37-1.71,2.15-2.98,2.79c-1.26,.64-2.69,.96-4.28,.96h-4.73v-16.19h4.73Zm-.31,14.11c1.93,0,3.44-.53,4.52-1.58,1.08-1.05,1.63-2.54,1.63-4.46s-.54-3.38-1.63-4.44c-1.08-1.05-2.59-1.58-4.52-1.58h-2.06v12.06h2.06Z"/>
    <path class="cls-28" d="M1268.77,75.96c.33,.1,.59,.24,.79,.42l-.86,1.79c-.34-.21-.72-.31-1.13-.31-.84,0-1.52,.35-2.05,1.04-.52,.69-.79,1.68-.79,2.96v5.69h-2.28v-11.48h2.01c.03,.71,.07,1.33,.13,1.86,.34-.71,.77-1.24,1.29-1.59s1.12-.53,1.8-.53c.38,0,.74,.05,1.07,.15Z"/>
    <path class="cls-28" d="M1277.92,76.5c.75,.46,1.33,1.1,1.75,1.9,.41,.8,.62,1.71,.62,2.71,0,.34-.04,.75-.11,1.22h-8.05c.09,1.15,.44,2.02,1.06,2.6,.62,.58,1.39,.87,2.32,.87,1.21,0,2.09-.5,2.63-1.5l1.7,1c-.29,.8-.86,1.41-1.68,1.85-.83,.43-1.75,.65-2.76,.65s-2-.23-2.85-.7c-.86-.46-1.54-1.15-2.05-2.07s-.76-2.01-.76-3.27,.25-2.31,.76-3.21c.51-.9,1.19-1.58,2.04-2.05,.85-.46,1.77-.7,2.75-.7s1.88,.23,2.63,.7Zm-4.68,2.01c-.55,.48-.9,1.18-1.05,2.09h5.71c-.06-.88-.33-1.57-.82-2.07-.49-.49-1.11-.74-1.88-.74s-1.41,.24-1.96,.72Z"/>
    <path class="cls-28" d="M1290.45,77.02c.85,.81,1.27,1.98,1.27,3.5v7.04h-1.97c-.03-.66-.07-1.14-.11-1.42-.71,1.11-1.84,1.66-3.41,1.66-.77,0-1.47-.14-2.11-.42-.64-.28-1.15-.69-1.54-1.22-.38-.53-.58-1.17-.58-1.92,0-1.14,.46-2.04,1.39-2.7,.93-.66,2.12-1,3.56-1,.81,0,1.64,.11,2.5,.33v-.04c0-1.05-.21-1.82-.62-2.31-.41-.49-1.03-.74-1.86-.74-.66,0-1.22,.14-1.67,.43s-.83,.7-1.14,1.25l-1.68-.97c.37-.81,.97-1.46,1.79-1.95,.83-.49,1.77-.73,2.83-.73,1.37,0,2.48,.41,3.33,1.22Zm-.98,5.58c-.88-.22-1.66-.33-2.32-.33-.88,0-1.57,.17-2.06,.51-.49,.34-.73,.81-.73,1.42,0,.55,.2,.98,.6,1.29,.4,.32,.92,.48,1.57,.48,.81,0,1.5-.23,2.08-.7,.58-.46,.86-1.11,.86-1.94v-.73Z"/>
    <path class="cls-28" d="M1309.72,77.01c.69,.8,1.03,1.96,1.03,3.46v7.08h-2.21v-6.33c0-1.05-.18-1.86-.53-2.44-.35-.58-.88-.87-1.59-.87s-1.32,.29-1.8,.87c-.48,.58-.72,1.41-.72,2.49v6.28h-2.23v-6.33c0-1.06-.17-1.88-.52-2.46-.35-.58-.87-.86-1.58-.86s-1.32,.29-1.8,.88c-.48,.59-.72,1.42-.72,2.48v6.28h-2.26v-11.48h1.99c.01,.47,.05,1.05,.11,1.73,.38-.66,.86-1.16,1.44-1.49,.58-.33,1.21-.5,1.9-.5,.77,0,1.44,.2,2.02,.61,.58,.41,1.01,1,1.29,1.78,.37-.8,.86-1.39,1.47-1.79,.61-.4,1.29-.6,2.05-.6,1.09,0,1.98,.4,2.67,1.21Z"/>
    <path class="cls-28" d="M1313.49,81.82v-1.9h8.12v1.9h-8.12Z"/>
    <path class="cls-28" d="M1334.36,71.34l3.78,12.3,3.47-12.28h2.3l-4.96,16.19h-1.86l-3.78-11.9-3.65,11.9h-1.84l-5.22-16.19h2.5l3.76,12.28,3.52-12.3h1.97Z"/>
    <path class="cls-28" d="M1351.83,76.5c.75,.46,1.33,1.1,1.75,1.9,.41,.8,.62,1.71,.62,2.71,0,.34-.04,.75-.11,1.22h-8.05c.09,1.15,.44,2.02,1.06,2.6,.62,.58,1.39,.87,2.32,.87,1.21,0,2.09-.5,2.63-1.5l1.7,1c-.29,.8-.86,1.41-1.68,1.85-.83,.43-1.75,.65-2.76,.65s-2-.23-2.85-.7c-.86-.46-1.54-1.15-2.05-2.07s-.76-2.01-.76-3.27,.25-2.31,.76-3.21c.51-.9,1.19-1.58,2.04-2.05,.85-.46,1.77-.7,2.75-.7s1.88,.23,2.63,.7Zm-4.68,2.01c-.55,.48-.9,1.18-1.05,2.09h5.71c-.06-.88-.33-1.57-.82-2.07-.49-.49-1.11-.74-1.88-.74s-1.41,.24-1.96,.72Z"/>
    <path class="cls-28" d="M1364.92,76.52c.77,.48,1.4,1.17,1.87,2.08,.47,.91,.71,1.97,.71,3.2s-.24,2.31-.71,3.22c-.47,.91-1.1,1.6-1.87,2.07-.77,.47-1.6,.71-2.49,.71-.77,0-1.49-.18-2.17-.53-.68-.35-1.22-.88-1.64-1.59-.06,.58-.1,1.2-.13,1.88h-2.01v-16.84h2.28v7.04c.41-.65,.94-1.14,1.58-1.46,.64-.32,1.34-.49,2.09-.49,.88,0,1.71,.24,2.49,.72Zm-.64,8.19c.57-.7,.85-1.67,.85-2.91s-.28-2.18-.84-2.87c-.56-.69-1.31-1.03-2.26-1.03s-1.67,.32-2.31,.95c-.64,.63-.96,1.61-.96,2.94s.32,2.34,.96,2.99c.64,.65,1.41,.97,2.31,.97s1.68-.35,2.25-1.05Z"/>
  </g>
  <g>
    <path class="cls-28" d="M781.69,70.18h12.37v2.1h-5v14.09h-2.39v-14.09h-4.98v-2.1Z"/>
    <path class="cls-28" d="M800.19,74.78c.33,.1,.59,.24,.79,.42l-.86,1.79c-.34-.21-.72-.31-1.13-.31-.84,0-1.52,.35-2.05,1.04-.52,.69-.79,1.68-.79,2.96v5.69h-2.28v-11.48h2.01c.03,.71,.07,1.33,.13,1.86,.34-.71,.77-1.24,1.29-1.59s1.12-.53,1.8-.53c.38,0,.74,.05,1.07,.15Z"/>
    <path class="cls-28" d="M809.51,75.85c.85,.81,1.27,1.98,1.27,3.5v7.04h-1.97c-.03-.66-.07-1.14-.11-1.42-.71,1.11-1.84,1.66-3.41,1.66-.77,0-1.47-.14-2.11-.42-.64-.28-1.15-.69-1.54-1.22-.38-.53-.58-1.17-.58-1.92,0-1.14,.46-2.04,1.39-2.7,.93-.66,2.12-1,3.56-1,.81,0,1.64,.11,2.5,.33v-.04c0-1.05-.21-1.82-.62-2.31-.41-.49-1.03-.74-1.86-.74-.66,0-1.22,.14-1.67,.43s-.83,.7-1.14,1.25l-1.68-.97c.37-.81,.97-1.46,1.79-1.95,.83-.49,1.77-.73,2.83-.73,1.37,0,2.48,.41,3.33,1.22Zm-.98,5.58c-.88-.22-1.66-.33-2.32-.33-.88,0-1.57,.17-2.06,.51-.49,.34-.73,.81-.73,1.42,0,.55,.2,.98,.6,1.29,.4,.32,.92,.48,1.57,.48,.81,0,1.5-.23,2.08-.7,.58-.46,.86-1.11,.86-1.94v-.73Z"/>
    <path class="cls-28" d="M822.68,75.85c.74,.81,1.11,1.98,1.11,3.52v7.01h-2.28v-6.33c0-1.06-.2-1.88-.6-2.46s-1-.86-1.81-.86-1.53,.29-2.11,.87c-.58,.58-.87,1.41-.87,2.49v6.28h-2.28v-11.48h2.01c.03,.72,.07,1.35,.13,1.88,.38-.71,.9-1.24,1.54-1.6,.64-.36,1.38-.54,2.2-.54,1.24,0,2.23,.41,2.96,1.22Z"/>
    <path class="cls-28" d="M833.6,85.65c-.82,.65-1.88,.97-3.2,.97-1.17,0-2.16-.25-2.99-.75-.83-.5-1.38-1.19-1.66-2.08l1.7-1c.25,.62,.63,1.09,1.13,1.4,.5,.32,1.11,.48,1.81,.48,.63,0,1.14-.13,1.52-.39,.38-.26,.56-.62,.56-1.07,0-.35-.12-.65-.34-.87-.23-.23-.52-.41-.86-.54s-.82-.29-1.43-.46c-.8-.22-1.43-.44-1.91-.64s-.89-.51-1.24-.92c-.35-.41-.52-.95-.52-1.63s.2-1.33,.59-1.87c.39-.54,.92-.95,1.57-1.23,.66-.28,1.38-.42,2.18-.42,1.05,0,1.94,.23,2.69,.69,.74,.46,1.24,1.08,1.49,1.86l-1.7,.97c-.22-.49-.55-.86-.99-1.13-.43-.27-.96-.4-1.56-.4s-1.04,.11-1.39,.34c-.35,.23-.53,.56-.53,.98,0,.32,.11,.59,.32,.79s.48,.36,.81,.49c.32,.13,.78,.27,1.37,.43,.8,.22,1.45,.44,1.96,.66,.51,.22,.94,.55,1.31,1,.36,.44,.54,1.03,.54,1.75,0,1.08-.41,1.94-1.23,2.59Z"/>
    <path class="cls-28" d="M836.73,80.65v-1.9h8.12v1.9h-8.12Z"/>
    <path class="cls-28" d="M860,81.77c0,1.46-.51,2.59-1.53,3.4s-2.49,1.21-4.4,1.21h-6.02v-16.19h5.35c1.73,0,3.1,.4,4.14,1.18,1.03,.79,1.55,1.87,1.55,3.24,0,1.52-.67,2.62-2.01,3.3,1.95,.6,2.92,1.9,2.92,3.87Zm-9.6-9.51v4.85h2.68c1.11,0,1.97-.22,2.59-.66,.62-.44,.93-1.04,.93-1.79s-.31-1.34-.93-1.76c-.62-.42-1.48-.63-2.59-.63h-2.68Zm3.34,12.04c1.25,0,2.19-.22,2.82-.67,.63-.45,.94-1.09,.94-1.91s-.31-1.47-.94-1.94c-.63-.46-1.57-.7-2.82-.7h-3.34v5.22h3.34Z"/>
    <path class="cls-28" d="M862.53,77.5c.52-.91,1.21-1.62,2.07-2.12,.86-.5,1.8-.75,2.8-.75s1.91,.25,2.77,.75c.85,.5,1.54,1.21,2.06,2.12,.52,.92,.77,1.95,.77,3.12s-.26,2.21-.77,3.12c-.52,.92-1.2,1.62-2.06,2.12-.86,.5-1.78,.75-2.77,.75s-1.94-.25-2.8-.75c-.86-.5-1.55-1.21-2.07-2.12-.52-.91-.77-1.95-.77-3.12s.26-2.2,.77-3.12Zm2.53,6c.61,.71,1.38,1.06,2.31,1.06s1.72-.35,2.32-1.06,.91-1.67,.91-2.88-.31-2.17-.92-2.88c-.61-.71-1.38-1.06-2.31-1.06s-1.7,.35-2.31,1.06c-.61,.71-.92,1.67-.92,2.88s.31,2.17,.92,2.88Z"/>
    <path class="cls-28" d="M882.26,85.91c-.65,.47-1.51,.71-2.59,.71s-1.98-.3-2.67-.91c-.69-.6-1.03-1.68-1.03-3.23v-5.64h-1.95v-1.95h1.95v-3.32h2.26v3.32h3.38v1.95h-3.38v5.33c0,1.59,.59,2.39,1.77,2.39,.53,0,1.03-.14,1.48-.42l.77,1.77Z"/>
  </g>
  <g>
    <path class="cls-28" d="M1069.96,71.16h1.88v16.19h-2.3v-11.73l-4.78,7.5h-1.35l-4.82-7.54v11.77h-2.26v-16.19h1.99l5.82,9.23,5.82-9.23Z"/>
    <path class="cls-28" d="M1075.45,73.57c-.28-.29-.42-.64-.42-1.04s.14-.74,.42-1.03c.28-.29,.61-.43,1-.43,.41,0,.76,.14,1.04,.43s.42,.63,.42,1.03-.14,.75-.43,1.04c-.29,.3-.63,.44-1.03,.44s-.72-.15-1-.44Zm2.15,13.78h-2.28v-11.48h2.28v11.48Z"/>
    <path class="cls-28" d="M1086.58,80.58l4.71,6.77h-2.79l-3.47-5.04-1.9,2.12v2.92h-2.28v-16.84h2.28v11.06l4.96-5.71h2.72l-4.23,4.71Z"/>
    <path class="cls-28" d="M1092.97,73.57c-.28-.29-.42-.64-.42-1.04s.14-.74,.42-1.03c.28-.29,.61-.43,1-.43,.41,0,.76,.14,1.04,.43s.42,.63,.42,1.03-.14,.75-.43,1.04c-.29,.3-.63,.44-1.03,.44s-.72-.15-1-.44Zm2.15,13.78h-2.28v-11.48h2.28v11.48Z"/>
    <path class="cls-28" d="M1096.75,91.07v-1.9h9.65v1.9h-9.65Z"/>
    <path class="cls-28" d="M1108.26,71.16h2.37v14.07h7.79v2.12h-10.15v-16.19Z"/>
    <path class="cls-28" d="M1120.78,73.57c-.28-.29-.42-.64-.42-1.04s.14-.74,.42-1.03c.28-.29,.61-.43,1-.43,.41,0,.76,.14,1.04,.43s.42,.63,.42,1.03-.14,.75-.43,1.04c-.29,.3-.63,.44-1.03,.44s-.72-.15-1-.44Zm2.15,13.78h-2.28v-11.48h2.28v11.48Z"/>
    <path class="cls-28" d="M1135.02,76.82c.74,.81,1.11,1.98,1.11,3.52v7.01h-2.28v-6.33c0-1.06-.2-1.88-.6-2.46s-1-.86-1.81-.86-1.53,.29-2.11,.87c-.58,.58-.87,1.41-.87,2.49v6.28h-2.28v-11.48h2.01c.03,.72,.07,1.35,.13,1.88,.38-.71,.9-1.24,1.54-1.6,.64-.36,1.38-.54,2.2-.54,1.24,0,2.23,.41,2.96,1.22Z"/>
  </g>
  <path class="cls-2" d="M1319.71,.37l-2.28,3.95c-.29,.49,.07,1.11,.64,1.11h4.56c.57,0,.93-.62,.64-1.11l-2.28-3.95c-.29-.49-1-.49-1.28,0Z"/>
  <path class="cls-1" d="M1363.93,5.06l2.28-3.95c.29-.49-.07-1.11-.64-1.11h-4.56c-.57,0-.93,.62-.64,1.11l2.28,3.95c.29,.49,1,.49,1.28,0Z"/>
  <path class="cls-35" d="M1348.17,.37l-2.28,3.95c-.29,.49,.07,1.11,.64,1.11h4.56c.57,0,.93-.62,.64-1.11l-2.28-3.95c-.29-.49-1-.49-1.28,0Z"/>
  <path class="cls-31" d="M1335.22,5.06l2.28-3.95C1337.79,.62,1337.43,0,1336.86,0h-4.56C1331.73,0,1331.37,.62,1331.66,1.11l2.28,3.95c.29,.49,1,.49,1.28,0Z"/>
  <path class="cls-42" d="M1377.13,.37l-2.28,3.95c-.29,.49,.07,1.11,.64,1.11h4.56c.57,0,.93-.62,.64-1.11l-2.28-3.95c-.29-.49-1-.49-1.28,0Z"/>
  <polygon class="cls-41" points="2.75 37.32 2.75 33.86 24 21.6 25.5 24.19 2.75 37.32"/>
  <line class="cls-4" x1="23.29" y1="22.86" x2="124.49" y2="82.45"/>
  <line class="cls-4" x1="123.77" y1="196.92" x2="123.77" y2="81.16"/>
  <line class="cls-4" x1="23.29" y1="254.06" x2="124.5" y2="195.63"/>
  <polygon class="cls-41" points="24.03 255.36 2.75 243.07 2.75 239.61 25.53 252.76 24.03 255.36"/>
  <g>
    <path class="cls-28" d="M1021.25,160.23h-6.75c-.67,0-1.21-.54-1.21-1.21v-47.02c0-.67,.54-1.21,1.21-1.21h6.74c.41,0,.8,.21,1.02,.56l15.81,24.91h.37l15.87-24.91c.22-.35,.61-.56,1.02-.56h6.74c.67,0,1.21,.54,1.21,1.21v47.02c0,.67-.54,1.21-1.21,1.21h-6.75c-.67,0-1.21-.54-1.21-1.21v-30.56h-.37l-11.69,18.23c-.22,.35-.61,.56-1.02,.56h-5.48c-.41,0-.79-.21-1.02-.55l-11.69-18.05h-.37v30.38c0,.67-.54,1.21-1.21,1.21Z"/>
    <path class="cls-28" d="M1080.18,117.34c-1.02,1-2.38,1.5-4.09,1.5s-2.98-.49-3.93-1.47c-.96-.98-1.44-2.32-1.44-4.03s.48-3.05,1.44-4.03c.96-.98,2.27-1.47,3.93-1.47s3.07,.5,4.09,1.5c1.02,1,1.53,2.33,1.53,4s-.51,3-1.53,4Zm.59,7.95v33.72c0,.67-.54,1.21-1.21,1.21h-6.69c-.67,0-1.21-.54-1.21-1.21v-33.72c0-.67,.54-1.21,1.21-1.21h6.69c.67,0,1.21,.54,1.21,1.21Z"/>
    <path class="cls-28" d="M1119.96,160.23h-8.42c-.39,0-.76-.19-.98-.5l-9.48-13.19c-.44-.61-1.31-.68-1.84-.15l-.63,.63c-.23,.23-.36,.54-.36,.86v11.15c0,.67-.54,1.21-1.21,1.21h-6.69c-.67,0-1.21-.54-1.21-1.21v-47.02c0-.67,.54-1.21,1.21-1.21h6.69c.67,0,1.21,.54,1.21,1.21v20.78c0,1.1,1.36,1.63,2.1,.82l8.4-9.12c.23-.25,.55-.39,.89-.39h8.96c1.08,0,1.62,1.31,.86,2.07l-12.29,12.29c-.43,.43-.47,1.11-.11,1.59l13.86,18.25c.61,.8,.04,1.95-.97,1.95Z"/>
    <path class="cls-28" d="M1136.05,117.34c-1.02,1-2.38,1.5-4.09,1.5s-2.98-.49-3.93-1.47c-.96-.98-1.44-2.32-1.44-4.03s.48-3.05,1.44-4.03c.96-.98,2.27-1.47,3.93-1.47s3.07,.5,4.09,1.5c1.02,1,1.53,2.33,1.53,4s-.51,3-1.53,4Zm.59,7.95v33.72c0,.67-.54,1.21-1.21,1.21h-6.69c-.67,0-1.21-.54-1.21-1.21v-33.72c0-.67,.54-1.21,1.21-1.21h6.69c.67,0,1.21,.54,1.21,1.21Z"/>
    <path class="cls-28" d="M1020.83,175.9v30.73c0,.54,.43,.97,.97,.97h16.44c.54,0,.97,.43,.97,.97v4.95c0,.54-.43,.97-.97,.97h-23.98c-.54,0-.97-.43-.97-.97v-37.62c0-.54,.43-.97,.97-.97h5.6c.54,0,.97,.43,.97,.97Z"/>
    <path class="cls-28" d="M1050.97,180.18c-.82,.8-1.91,1.2-3.27,1.2s-2.38-.39-3.15-1.17c-.77-.78-1.15-1.86-1.15-3.22s.38-2.44,1.15-3.22c.77-.78,1.81-1.17,3.15-1.17s2.46,.4,3.27,1.2c.82,.8,1.22,1.87,1.22,3.2s-.41,2.4-1.22,3.2Zm.47,6.36v26.98c0,.54-.43,.97-.97,.97h-5.35c-.54,0-.97-.43-.97-.97v-26.98c0-.54,.43-.97,.97-.97h5.35c.54,0,.97,.43,.97,.97Z"/>
    <g>
      <g>
        <path class="cls-28" d="M1065.39,186.81s-2.53-.99-7.15-1.42c0,0-.41,2.49,.45,5.02s1.24,3.09,1.24,3.09l5.46-6.69Z"/>
        <path class="cls-39" d="M1062.96,188.27s-1.69-1.35-4.06-1.9c0,0,0,1.41,.37,3.28s.9,2.51,.9,2.51l2.79-3.9Z"/>
      </g>
      <g>
        <path class="cls-28" d="M1076.07,186.81s2.53-.99,7.15-1.42c0,0,.41,2.49-.45,5.02s-1.24,3.09-1.24,3.09l-5.46-6.69Z"/>
        <path class="cls-39" d="M1078.49,188.27s1.69-1.35,4.06-1.9c0,0,0,1.41-.37,3.28s-.9,2.51-.9,2.51l-2.79-3.9Z"/>
      </g>
    </g>
    <path class="cls-28" d="M1070.73,192.86c2.92,0,5.3,2.37,5.3,5.3h7.29c0-6.95-5.64-12.59-12.59-12.59s-12.59,5.64-12.59,12.59h7.29c0-2.92,2.37-5.3,5.3-5.3Z"/>
    <path class="cls-28" d="M1076.02,198.16h7.29v15.12c0,.67-.54,1.21-1.21,1.21h-4.87c-.67,0-1.21-.54-1.21-1.21v-15.12h0Z"/>
    <path class="cls-28" d="M1058.14,198.16h7.29v15.12c0,.67-.54,1.21-1.21,1.21h-4.87c-.67,0-1.21-.54-1.21-1.21v-15.12h0Z"/>
    <rect class="cls-40" x="1090.01" y="172.59" width="10.83" height="8.79" rx="1.21" ry="1.21"/>
    <rect class="cls-34" x="1107.54" y="172.59" width="10.83" height="8.79" rx="1.21" ry="1.21"/>
    <g>
      <path class="cls-25" d="M1105.45,210.32c-.58,.13-1.01,.28-1.31,.43-.29,.16-.44,.31-.44,.47,0,.25,.37,.38,1.11,.38h.55v.34h-.64c-.92,0-1.38-.22-1.38-.67,0-.32,.23-.6,.7-.84-.14-.27-.21-.65-.21-1.16v-.13h.37v.12c0,.45,.05,.79,.15,1.03,.27-.11,.61-.21,1.02-.31l.08,.34Zm-.23-1.1c.09,.13,.18,.31,.27,.53l-.24,.07c-.03-.09-.07-.19-.12-.28-.05-.1-.09-.18-.14-.25l.22-.07Zm.42-.15c.05,.07,.09,.15,.14,.25,.05,.1,.09,.2,.12,.29l-.23,.06c-.1-.25-.18-.43-.26-.53l.23-.07Z"/>
      <path class="cls-25" d="M1107.12,211.59c.28,0,.52-.04,.72-.11,.21-.07,.36-.18,.47-.31,.11-.13,.16-.28,.16-.44s-.04-.27-.13-.33c-.09-.07-.22-.1-.4-.1-.16,0-.34,.02-.55,.05-.21,.03-.42,.08-.63,.14l-.08-.34c.22-.05,.45-.09,.68-.12,.23-.03,.43-.05,.59-.05,.3,0,.52,.06,.66,.18,.14,.12,.2,.3,.2,.54s-.07,.46-.2,.64c-.13,.18-.32,.32-.57,.42-.25,.1-.54,.15-.88,.15l-.06-.32Zm1.36-1.88c-.18-.06-.4-.12-.65-.17-.25-.05-.48-.09-.69-.11l.06-.32c.22,.03,.46,.07,.71,.12,.25,.05,.47,.11,.66,.17l-.07,.32Z"/>
      <path class="cls-25" d="M1110.23,211.58c-.13-.18-.19-.45-.19-.79v-1.66h.36v1.62c0,.26,.04,.45,.11,.57,.07,.12,.18,.18,.33,.18,.19,0,.38-.07,.56-.21,.18-.14,.35-.34,.51-.6l.26,.24c-.41,.61-.87,.92-1.37,.92-.25,0-.44-.09-.57-.27Z"/>
      <path class="cls-25" d="M1115.28,211.78c-.1-.1-.23-.19-.38-.29-.15-.09-.3-.17-.46-.23,0,.22-.07,.39-.19,.49-.12,.11-.28,.16-.49,.16s-.39-.05-.51-.14-.19-.22-.19-.38c0-.17,.07-.3,.21-.4,.14-.1,.34-.15,.58-.15,.08,0,.16,0,.25,.02v-1.71h.35v.67h1.01v.32h-1.01v.79c.19,.06,.38,.14,.56,.24,.18,.1,.33,.2,.46,.31l-.19,.3Zm-1.18-.63c-.1-.02-.2-.03-.29-.03-.13,0-.23,.02-.3,.07-.08,.05-.11,.11-.11,.19,0,.07,.03,.13,.1,.18s.16,.07,.27,.07c.11,0,.19-.03,.25-.09s.09-.15,.09-.26v-.13Z"/>
      <path class="cls-25" d="M1116.9,211.59c.28,0,.52-.04,.72-.11,.21-.07,.36-.18,.47-.31,.11-.13,.16-.28,.16-.44s-.04-.27-.13-.33c-.09-.07-.22-.1-.4-.1-.16,0-.34,.02-.55,.05-.21,.03-.42,.08-.63,.14l-.08-.34c.22-.05,.45-.09,.68-.12,.23-.03,.43-.05,.59-.05,.3,0,.52,.06,.66,.18,.14,.12,.2,.3,.2,.54s-.07,.46-.2,.64c-.13,.18-.32,.32-.57,.42-.25,.1-.54,.15-.88,.15l-.06-.32Zm1.36-1.88c-.18-.06-.4-.12-.65-.17-.25-.05-.48-.09-.69-.11l.06-.32c.22,.03,.46,.07,.71,.12,.25,.05,.47,.11,.66,.17l-.07,.32Z"/>
      <path class="cls-25" d="M1119.75,211.11c.12,.07,.24,.17,.37,.29,.13,.12,.24,.24,.34,.36l-.28,.23c-.08-.12-.18-.24-.3-.36-.12-.12-.23-.22-.34-.3l.21-.23Z"/>
      <path class="cls-25" d="M1122.59,211.27l.49-.42v-1.2h.27v2.36h-.27v-.78l-.39,.33-.1-.29Zm.25-.54c-.07-.21-.15-.43-.24-.67l.22-.08c.07,.17,.15,.39,.25,.66l-.23,.09Zm2.24-1.22h-2.06v.31h-.3v-.55h1.2l-.07-.28,.34-.03,.08,.31h1.12v.56h-.19v.68h-1.63v-.19h1.34v-.13h-1.25v-.18h1.25v-.13h-1.32v-.2h1.49v-.18Zm.27,2.49c-.21-.03-.38-.07-.54-.11-.15-.04-.29-.09-.41-.15-.22,.1-.52,.19-.9,.28l-.09-.25c.31-.06,.55-.12,.72-.18-.14-.1-.28-.22-.41-.38v-.11h-.27v-.45h1.92v.45h-.27v.11c-.13,.16-.27,.29-.43,.39,.18,.06,.44,.11,.76,.15l-.08,.25Zm-.26-1v-.14h-1.36v.14h1.36Zm-1.03,.21c.11,.11,.22,.2,.34,.27,.14-.07,.26-.16,.37-.27h-.71Z"/>
      <path class="cls-25" d="M1128.54,211.43c.1-.03,.18-.08,.25-.13l-.02,.36c-.2,.1-.39,.16-.58,.16-.13,0-.23-.04-.3-.12-.07-.08-.11-.18-.11-.32,0-.12,.01-.32,.04-.59,.03-.25,.04-.46,.04-.62,0-.13-.01-.23-.04-.28-.03-.06-.07-.09-.13-.09-.1,0-.22,.06-.38,.19-.16,.13-.34,.3-.53,.53v1.38h-.34v-.96c-.18,.24-.32,.45-.45,.64l-.21-.26c.26-.36,.48-.65,.66-.87v-.4h-.55v-.33h.55v-.59h.34v.94c.2-.21,.38-.37,.55-.48,.17-.11,.32-.16,.46-.16,.29,0,.43,.19,.43,.57,0,.13,0,.28-.02,.43-.01,.16-.02,.25-.02,.29-.01,.1-.02,.2-.03,.29,0,.1-.01,.18-.01,.25,0,.07,.01,.13,.05,.17,.03,.04,.07,.06,.13,.06s.14-.02,.23-.05Z"/>
      <path class="cls-25" d="M1130.75,209.85h-.62c-.1,.56-.3,1.07-.62,1.52l-.28-.16c.15-.22,.27-.45,.37-.67s.16-.45,.21-.69h-.44v-.31h.48c.01-.13,.02-.27,.02-.42h.33c0,.14,0,.28-.02,.42h.58v.31Zm.98,1.8s-.04-.04-.09-.08c-.05-.05-.11-.09-.17-.13s-.12-.08-.17-.11h0c0,.2-.06,.35-.17,.45-.11,.1-.28,.15-.49,.15-.13,0-.25-.02-.34-.07-.1-.05-.18-.11-.23-.19-.05-.08-.08-.17-.08-.26,0-.17,.06-.31,.18-.41s.29-.15,.49-.15c.1,0,.2,.01,.31,.03v-1.33h.9v.31h-.58v1.13c.22,.1,.42,.24,.63,.42l-.2,.24Zm-.76-.47c-.11-.03-.21-.04-.32-.04-.12,0-.2,.02-.26,.07-.06,.05-.09,.11-.09,.19,0,.07,.03,.12,.09,.17,.06,.05,.14,.07,.24,.07,.11,0,.2-.02,.25-.07s.08-.12,.08-.22v-.16Z"/>
      <path class="cls-25" d="M1132.71,211.34c-.12-.22-.17-.55-.17-1v-.85h.35v.8c0,.69,.13,1.03,.38,1.03,.08,0,.16-.04,.22-.14,.06-.09,.11-.22,.16-.39l.3,.1c-.07,.25-.15,.44-.27,.57s-.25,.19-.42,.19c-.24,0-.42-.11-.53-.33Zm2.11-.13c0-.36-.05-.67-.13-.91-.08-.24-.23-.47-.43-.67l.3-.17c.22,.22,.38,.47,.47,.74,.09,.27,.14,.61,.15,1.01h-.35Z"/>
    </g>
    <path class="cls-41" d="M1106.95,198.75v.03c.87,.56,1.43,1.34,1.73,1.85,.15,.27,.03,.6-.26,.74-.26,.14-.57,0-.72-.26-.21-.39-.47-.74-.75-.99v2.74c0,.32-.26,.57-.57,.57s-.56-.26-.56-.57v-2.38c-.56,.69-1.28,1.39-2.11,1.91-.26,.17-.6,.06-.74-.21-.17-.27-.06-.6,.2-.78,1.08-.72,1.96-1.66,2.44-2.65h-1.99c-.29,0-.51-.23-.51-.51s.23-.51,.51-.51h2.2v-.78c0-.32,.26-.57,.56-.57,.32,0,.57,.26,.57,.57v.78h1.34c.29,0,.51,.23,.51,.51s-.23,.51-.51,.51h-1.34Z"/>
    <path class="cls-41" d="M1103.49,195v-1.82c0-.5,.41-.9,.9-.9h4.44v-.65h-4.32c-.29,0-.53-.23-.53-.51,0-.3,.24-.53,.53-.53h9.76c.29,0,.53,.23,.53,.53s-.24,.51-.53,.51h-4.32v.65h4.45c.5,0,.9,.41,.9,.9v1.82c0,.32-.26,.57-.56,.57-.32,0-.57-.26-.57-.57v-1.66h-4.22v2.31c0,.32-.26,.56-.56,.56s-.56-.24-.56-.56v-2.31h-4.22v1.66c0,.32-.26,.57-.56,.57-.32,0-.57-.26-.57-.57Z"/>
    <path class="cls-41" d="M1108.02,193.78c.21,0,.39,.21,.39,.47s-.17,.47-.39,.47h-2.02c-.21,0-.39-.21-.39-.47s.18-.47,.39-.47h2.02Z"/>
    <path class="cls-41" d="M1108.02,195.15c.21,0,.39,.21,.39,.47s-.17,.47-.39,.47h-2.02c-.21,0-.39-.21-.39-.47s.18-.47,.39-.47h2.02Z"/>
    <path class="cls-41" d="M1115.84,202.33c-.14,.27-.47,.36-.69,.18-.8-.62-1.6-1.63-2.18-2.53v2.88c0,.32-.26,.57-.56,.57-.32,0-.57-.26-.57-.57v-2.79c-.6,.93-1.4,1.84-2.28,2.43-.23,.17-.54,.07-.68-.17-.14-.26-.06-.56,.17-.74,1.01-.8,1.84-1.85,2.34-2.85h-1.46c-.29,0-.51-.23-.51-.51s.23-.51,.51-.51h1.91v-.78c0-.32,.26-.57,.57-.57,.3,0,.56,.26,.56,.57v.78h2.2c.29,0,.51,.23,.51,.51s-.23,.51-.51,.51h-1.67c.56,1.01,1.31,1.97,2.17,2.73,.24,.23,.32,.57,.18,.86Z"/>
    <path class="cls-41" d="M1113.36,193.78c.21,0,.39,.21,.39,.47s-.17,.47-.39,.47h-2.02c-.21,0-.39-.21-.39-.47s.18-.47,.39-.47h2.02Z"/>
    <path class="cls-41" d="M1113.36,195.15c.21,0,.39,.21,.39,.47s-.17,.47-.39,.47h-2.02c-.21,0-.39-.21-.39-.47s.18-.47,.39-.47h2.02Z"/>
    <path class="cls-41" d="M1122.46,194.39v.3c.8,.93,1.48,2.11,1.88,3.28,.11,.29-.05,.6-.33,.72-.26,.12-.56-.03-.65-.3-.23-.66-.54-1.3-.9-1.87v6.31c0,.32-.26,.57-.57,.57s-.57-.26-.57-.57v-5.73c-.6,1.1-1.39,2.2-2.22,3.06-.24,.23-.62,.21-.83-.05-.23-.27-.2-.66,.05-.9,1.57-1.57,2.47-3.43,2.89-4.84h-2.26c-.32,0-.57-.26-.57-.57s.26-.56,.57-.56h2.37v-2.22c0-.32,.26-.59,.57-.59s.57,.27,.57,.59v2.22h1.42c.3,0,.56,.26,.56,.56,0,.32-.26,.57-.56,.57h-1.42Z"/>
    <path class="cls-41" d="M1126.6,197.69v5.25c0,.26-.26,.47-.57,.47s-.57-.21-.57-.47v-9.74c0-.26,.26-.48,.57-.48s.57,.22,.57,.48v3.5"/>
    <path class="cls-37" d="M1100.95,206.8h36.61c.24,0,.43,.25,.43,.57v6.56c0,.31-.19,.57-.43,.57h-36.61c-.24,0-.43-.25-.43-.57v-6.56c0-.31,.19-.57,.43-.57Z"/>
    <g>
      <path class="cls-25" d="M1105.6,212.34c.28-.14,.53-.29,.73-.44l.23,.35c-.17,.11-.35,.22-.54,.33-.19,.11-.36,.2-.49,.26l-.22-.37s.04-.02,.08-.03c.03-.01,.07-.03,.11-.05-.29,.03-.61,.07-.98,.11s-.64,.08-.83,.1l-.05-.44,.91-.11c.08-.17,.17-.36,.27-.58,.09-.21,.17-.38,.21-.51l.38,.15c-.11,.26-.25,.56-.41,.89l.59-.07v.41Zm-1.89-3.68h1.79v.41h-1.79v-.41Zm.13,.85h1.62v1.4h-1.62v-1.4Zm.4,2.42c-.05-.12-.11-.25-.19-.41-.08-.16-.14-.29-.19-.38l.35-.17c.17,.34,.3,.6,.39,.79l-.36,.17Zm0-1.42h.78v-.61h-.78v.61Zm3.47-1.08v2.46h-1.94v-2.46h.63s.03-.13,.06-.27l.03-.14h-.85v-.41h2.23v.41h-.93c-.02,.08-.05,.22-.1,.4h.87Zm-.42,.71v-.33h-1.11v.33h1.11Zm0,.69v-.35h-1.11v.35h1.11Zm-1.11,.35v.33h1.11v-.33h-1.11Zm.88,.71c.44,.27,.74,.47,.89,.58l-.21,.36c-.07-.07-.2-.16-.38-.28s-.35-.23-.5-.32l.2-.34Z"/>
      <path class="cls-25" d="M1109.39,208.78c-.05,.22-.08,.49-.1,.81-.02,.32-.03,.66-.03,1.01s.02,.72,.05,1.09c.03,.37,.08,.69,.14,.94h-.49c-.06-.24-.11-.54-.15-.9s-.05-.73-.05-1.09,.01-.72,.03-1.04,.05-.6,.1-.82h.5Zm3.05,3.64c-.13-.12-.24-.23-.34-.32-.1-.09-.2-.17-.32-.25-.03,.27-.13,.47-.3,.6s-.39,.2-.65,.2c-.29,0-.52-.07-.7-.21-.18-.14-.26-.33-.26-.56,0-.25,.09-.44,.27-.58,.18-.14,.42-.21,.73-.21,.16,0,.31,.02,.45,.06v-1.21h-1.49v-.47h1.49v-.81h.49v.81h.75v.47h-.75v1.41c.26,.14,.55,.36,.87,.65l-.23,.43Zm-1.13-.82c-.15-.05-.3-.08-.45-.08-.17,0-.29,.03-.38,.09-.09,.06-.13,.15-.13,.26s.04,.2,.13,.26c.08,.06,.21,.09,.37,.09,.15,0,.26-.04,.34-.13,.08-.09,.12-.21,.12-.37v-.13Z"/>
      <path class="cls-25" d="M1116.89,210.33c-.86,.2-1.5,.41-1.94,.64-.44,.23-.65,.46-.65,.69,0,.38,.55,.57,1.64,.57h.82v.51h-.95c-1.36,0-2.05-.33-2.05-1,0-.48,.35-.9,1.04-1.25-.21-.4-.32-.97-.32-1.72v-.19h.55v.17c0,.66,.08,1.17,.23,1.52,.4-.16,.9-.31,1.51-.46l.12,.5Zm-.34-1.63c.14,.2,.27,.46,.4,.79l-.35,.1c-.05-.14-.11-.28-.18-.42s-.14-.27-.21-.37l.33-.1Zm.62-.22c.07,.1,.14,.22,.21,.37,.07,.15,.13,.29,.18,.43l-.34,.1c-.15-.37-.27-.63-.39-.79l.34-.11Z"/>
      <path class="cls-25" d="M1119.37,212.22c.41,0,.77-.06,1.07-.17,.3-.11,.54-.26,.7-.46,.16-.19,.24-.41,.24-.65s-.07-.39-.2-.5c-.13-.1-.33-.15-.59-.15-.23,0-.5,.03-.82,.08s-.62,.12-.94,.2l-.11-.5c.33-.07,.67-.14,1.01-.18s.64-.07,.88-.07c.45,0,.77,.09,.97,.27,.2,.18,.3,.45,.3,.8s-.1,.68-.29,.95-.47,.48-.84,.63c-.37,.15-.8,.22-1.31,.22l-.09-.47Zm2.02-2.79c-.27-.09-.6-.18-.97-.26-.37-.08-.71-.13-1.03-.16l.08-.47c.33,.04,.68,.1,1.05,.17s.69,.16,.97,.25l-.11,.47Z"/>
      <path class="cls-25" d="M1127.14,209.55h-1.25v1.09c.02,.12,.02,.25,.02,.39,0,.4-.12,.75-.36,1.04-.24,.29-.66,.51-1.25,.66l-.15-.42c.38-.1,.68-.23,.89-.4,.21-.17,.33-.37,.35-.61-.05,.05-.12,.09-.21,.13-.09,.03-.18,.05-.28,.05-.13,0-.26-.03-.38-.09-.12-.06-.21-.15-.28-.27-.07-.11-.11-.25-.11-.4s.03-.28,.1-.39c.07-.12,.16-.21,.28-.28s.25-.1,.39-.1c.17,0,.33,.05,.48,.16v-.55h-2.24v-.46h2.24v-.54h.5v.54h1.25v.46Zm-1.84,1.45c.08-.07,.12-.16,.12-.28s-.04-.21-.12-.29-.18-.11-.3-.11-.21,.04-.29,.12c-.08,.08-.11,.17-.11,.29s.04,.21,.12,.28c.08,.07,.18,.11,.29,.11s.21-.04,.29-.11Z"/>
      <path class="cls-25" d="M1131.27,210.29c.2,.1,.35,.25,.47,.43,.11,.18,.17,.39,.17,.63,0,.26-.07,.49-.22,.69-.15,.2-.35,.36-.61,.47-.26,.11-.56,.17-.89,.17-.22,0-.42-.03-.59-.09-.17-.06-.3-.15-.39-.27-.09-.11-.14-.25-.14-.39s.04-.28,.12-.39,.19-.2,.33-.27c.14-.06,.3-.09,.47-.09,.27,0,.5,.08,.67,.23,.17,.15,.29,.36,.36,.61,.12-.08,.22-.18,.29-.29,.07-.11,.1-.23,.1-.37,0-.16-.05-.3-.14-.42-.09-.12-.22-.22-.38-.29s-.35-.1-.55-.1c-.31,0-.63,.08-.97,.24l-1.01,.86-.29-.38,2.48-2.05h-1.81s0-.47,0-.47h2.52l.05,.39-1.26,1.08c.17-.04,.35-.07,.54-.07,.25,0,.47,.05,.67,.15Zm-.65,1.88c-.04-.17-.12-.3-.23-.41-.11-.1-.24-.16-.4-.16-.14,0-.25,.03-.33,.09-.08,.06-.12,.14-.12,.23s.05,.17,.15,.22,.24,.08,.42,.08,.35-.02,.51-.06Z"/>
      <path class="cls-25" d="M1133.41,211.07c0-.13,0-.24,.05-.34,.04-.1,.09-.18,.14-.25s.13-.15,.23-.24c.12-.11,.2-.21,.26-.29s.08-.18,.08-.29c0-.12-.04-.22-.14-.3-.09-.08-.22-.13-.38-.13-.15,0-.27,.04-.38,.13-.11,.09-.19,.21-.25,.36l-.48-.23c.1-.24,.24-.43,.44-.56,.2-.14,.43-.21,.7-.21,.21,0,.39,.04,.55,.12,.16,.08,.28,.18,.36,.32,.08,.13,.12,.28,.12,.44,0,.15-.02,.28-.07,.38-.04,.11-.1,.2-.16,.27-.06,.07-.14,.15-.24,.24-.12,.1-.2,.19-.26,.27-.06,.08-.09,.17-.09,.29v.34h-.48l-.02-.31Zm.57,1.45h-.63v-.63h.63v.63Z"/>
    </g>
    <path class="cls-41" d="M1133.72,198.98h.7l.13,4.44h-.96l.13-4.44Zm-.13-1.94h.95v1.07h-.95v-1.07Z"/>
    <path class="cls-41" d="M1133.68,193.71c0-.22,.01-.41,.07-.58,.06-.17,.13-.31,.22-.43,.09-.12,.2-.25,.35-.41,.18-.19,.31-.35,.39-.49,.09-.14,.13-.3,.13-.49,0-.2-.07-.38-.2-.52-.14-.14-.33-.21-.57-.21-.22,0-.41,.07-.58,.22-.17,.15-.29,.35-.38,.61l-.72-.4c.15-.41,.37-.73,.67-.96,.3-.23,.65-.35,1.06-.35,.32,0,.6,.07,.83,.2,.24,.13,.42,.31,.55,.54,.12,.23,.19,.47,.19,.75,0,.25-.03,.47-.1,.65s-.15,.33-.24,.45c-.09,.12-.21,.26-.37,.42-.18,.18-.31,.33-.39,.46-.09,.13-.13,.29-.14,.49l-.02,.58h-.7l-.03-.54Zm.86,2.47h-.95v-1.07h.95v1.07Z"/>
    <path class="cls-22" d="M1126.69,195.87s1.45,.14,2.69-1.27,1.57-4.63-.64-5.71"/>
    <circle class="cls-24" cx="1126.03" cy="190.15" r="1.66"/>
  </g>
</svg>