<?xml version="1.0" encoding="UTF-8"?>
<svg id="_图层_1" data-name="图层 1" xmlns="http://www.w3.org/2000/svg" viewBox="0 0 1920.5 680">
  <defs>
    <style>
      .cls-1, .cls-2 {
        fill: #3e78a3;
      }

      .cls-3 {
        fill: #c1bfb8;
      }

      .cls-2 {
        stroke: #22272e;
      }

      .cls-2, .cls-4, .cls-5, .cls-6, .cls-7 {
        stroke-miterlimit: 10;
      }

      .cls-4 {
        stroke: #b2b2b2;
      }

      .cls-4, .cls-5, .cls-7 {
        stroke-width: 3.5px;
      }

      .cls-8 {
        fill: #3d4651;
      }

      .cls-9 {
        fill: #ba7b8c;
      }

      .cls-5 {
        stroke: #a85475;
      }

      .cls-10 {
        fill: #30a1aa;
      }

      .cls-11 {
        fill: #8e5b72;
      }

      .cls-6 {
        fill: none;
        stroke: #3d4651;
      }

      .cls-7 {
        stroke: #257d7f;
      }

      .cls-12 {
        fill: #3e7e7f;
      }

      .cls-13 {
        fill: #d3688c;
      }

      .cls-14 {
        fill: #22272e;
      }

      .cls-15 {
        fill: #298c8e;
      }
    </style>
  </defs>
  <g>
    <g>
      <rect class="cls-6" x="1893.28" y="413.02" width="26.72" height="36.82"/>
      <circle class="cls-1" cx="1893.28" cy="413.02" r="2.52"/>
      <circle class="cls-1" cx="1893.28" cy="449.84" r="2.52"/>
    </g>
    <g>
      <rect class="cls-6" x="1856.46" y="413.02" width="36.82" height="36.82"/>
      <circle class="cls-1" cx="1856.46" cy="413.02" r="2.52"/>
      <circle class="cls-1" cx="1893.28" cy="413.02" r="2.52"/>
      <circle class="cls-1" cx="1893.28" cy="449.84" r="2.52"/>
      <circle class="cls-1" cx="1856.46" cy="449.84" r="2.52"/>
    </g>
    <g>
      <rect class="cls-6" x="1819.64" y="413.02" width="36.82" height="36.82"/>
      <circle class="cls-1" cx="1819.64" cy="413.02" r="2.52"/>
      <circle class="cls-1" cx="1856.46" cy="413.02" r="2.52"/>
      <circle class="cls-1" cx="1856.46" cy="449.84" r="2.52"/>
      <circle class="cls-1" cx="1819.64" cy="449.84" r="2.52"/>
    </g>
    <g>
      <rect class="cls-6" x="1782.81" y="413.02" width="36.82" height="36.82"/>
      <circle class="cls-1" cx="1782.81" cy="413.02" r="2.52"/>
      <circle class="cls-1" cx="1819.64" cy="413.02" r="2.52"/>
      <circle class="cls-1" cx="1819.64" cy="449.84" r="2.52"/>
      <circle class="cls-1" cx="1782.81" cy="449.84" r="2.52"/>
    </g>
    <g>
      <rect class="cls-6" x="1745.99" y="413.02" width="36.82" height="36.82"/>
      <circle class="cls-1" cx="1745.99" cy="413.02" r="2.52"/>
      <circle class="cls-1" cx="1782.81" cy="413.02" r="2.52"/>
      <circle class="cls-1" cx="1782.81" cy="449.84" r="2.52"/>
      <circle class="cls-1" cx="1745.99" cy="449.84" r="2.52"/>
    </g>
    <g>
      <rect class="cls-6" x="1709.17" y="413.02" width="36.82" height="36.82"/>
      <circle class="cls-1" cx="1709.17" cy="413.02" r="2.52"/>
      <circle class="cls-1" cx="1745.99" cy="413.02" r="2.52"/>
      <circle class="cls-1" cx="1745.99" cy="449.84" r="2.52"/>
      <circle class="cls-1" cx="1709.17" cy="449.84" r="2.52"/>
    </g>
    <g>
      <rect class="cls-6" x="1672.34" y="413.02" width="36.82" height="36.82"/>
      <circle class="cls-1" cx="1672.34" cy="413.02" r="2.52"/>
      <circle class="cls-1" cx="1709.17" cy="413.02" r="2.52"/>
      <circle class="cls-1" cx="1709.17" cy="449.84" r="2.52"/>
      <circle class="cls-1" cx="1672.34" cy="449.84" r="2.52"/>
    </g>
    <g>
      <rect class="cls-6" x="1635.52" y="413.02" width="36.82" height="36.82"/>
      <circle class="cls-1" cx="1635.52" cy="413.02" r="2.52"/>
      <circle class="cls-1" cx="1672.34" cy="413.02" r="2.52"/>
      <circle class="cls-1" cx="1672.34" cy="449.84" r="2.52"/>
      <circle class="cls-1" cx="1635.52" cy="449.84" r="2.52"/>
    </g>
    <g>
      <rect class="cls-6" x="1598.7" y="413.02" width="36.82" height="36.82"/>
      <circle class="cls-1" cx="1598.7" cy="413.02" r="2.52"/>
      <circle class="cls-1" cx="1635.52" cy="413.02" r="2.52"/>
      <circle class="cls-1" cx="1635.52" cy="449.84" r="2.52"/>
      <circle class="cls-1" cx="1598.7" cy="449.84" r="2.52"/>
    </g>
    <g>
      <rect class="cls-6" x="1561.87" y="413.02" width="36.82" height="36.82"/>
      <circle class="cls-1" cx="1561.87" cy="413.02" r="2.52"/>
      <circle class="cls-1" cx="1598.7" cy="413.02" r="2.52"/>
      <circle class="cls-1" cx="1598.7" cy="449.84" r="2.52"/>
      <circle class="cls-1" cx="1561.87" cy="449.84" r="2.52"/>
    </g>
    <g>
      <rect class="cls-6" x="1525.05" y="413.02" width="36.82" height="36.82"/>
      <circle class="cls-1" cx="1525.05" cy="413.02" r="2.52"/>
      <circle class="cls-1" cx="1561.87" cy="413.02" r="2.52"/>
      <circle class="cls-1" cx="1561.87" cy="449.84" r="2.52"/>
      <circle class="cls-1" cx="1525.05" cy="449.84" r="2.52"/>
    </g>
    <g>
      <rect class="cls-6" x="1488.23" y="413.02" width="36.82" height="36.82"/>
      <circle class="cls-1" cx="1488.23" cy="413.02" r="2.52"/>
      <circle class="cls-1" cx="1525.05" cy="413.02" r="2.52"/>
      <circle class="cls-1" cx="1525.05" cy="449.84" r="2.52"/>
      <circle class="cls-1" cx="1488.23" cy="449.84" r="2.52"/>
    </g>
    <g>
      <rect class="cls-6" x="1451.4" y="413.02" width="36.82" height="36.82"/>
      <circle class="cls-1" cx="1451.4" cy="413.02" r="2.52"/>
      <circle class="cls-1" cx="1488.23" cy="413.02" r="2.52"/>
      <circle class="cls-1" cx="1488.23" cy="449.84" r="2.52"/>
      <circle class="cls-1" cx="1451.4" cy="449.84" r="2.52"/>
    </g>
    <g>
      <rect class="cls-6" x="1414.58" y="413.02" width="36.82" height="36.82"/>
      <circle class="cls-1" cx="1414.58" cy="413.02" r="2.52"/>
      <circle class="cls-1" cx="1451.4" cy="413.02" r="2.52"/>
      <circle class="cls-1" cx="1451.4" cy="449.84" r="2.52"/>
      <circle class="cls-1" cx="1414.58" cy="449.84" r="2.52"/>
    </g>
    <g>
      <rect class="cls-6" x="1377.76" y="413.02" width="36.82" height="36.82"/>
      <circle class="cls-1" cx="1377.76" cy="413.02" r="2.52"/>
      <circle class="cls-1" cx="1414.58" cy="413.02" r="2.52"/>
      <circle class="cls-1" cx="1414.58" cy="449.84" r="2.52"/>
      <circle class="cls-1" cx="1377.76" cy="449.84" r="2.52"/>
    </g>
    <g>
      <rect class="cls-6" x="1340.93" y="413.02" width="36.82" height="36.82"/>
      <circle class="cls-1" cx="1340.93" cy="413.02" r="2.52"/>
      <circle class="cls-1" cx="1377.76" cy="413.02" r="2.52"/>
      <circle class="cls-1" cx="1377.76" cy="449.84" r="2.52"/>
      <circle class="cls-1" cx="1340.93" cy="449.84" r="2.52"/>
    </g>
    <g>
      <rect class="cls-6" x="1304.11" y="413.02" width="36.82" height="36.82"/>
      <circle class="cls-1" cx="1304.11" cy="413.02" r="2.52"/>
      <circle class="cls-1" cx="1340.93" cy="413.02" r="2.52"/>
      <circle class="cls-1" cx="1340.93" cy="449.84" r="2.52"/>
      <circle class="cls-1" cx="1304.11" cy="449.84" r="2.52"/>
    </g>
    <g>
      <rect class="cls-6" x="1267.29" y="413.02" width="36.82" height="36.82"/>
      <circle class="cls-1" cx="1267.29" cy="413.02" r="2.52"/>
      <circle class="cls-1" cx="1304.11" cy="413.02" r="2.52"/>
      <circle class="cls-1" cx="1304.11" cy="449.84" r="2.52"/>
      <circle class="cls-1" cx="1267.29" cy="449.84" r="2.52"/>
    </g>
    <g>
      <rect class="cls-6" x="1230.46" y="413.02" width="36.82" height="36.82"/>
      <circle class="cls-1" cx="1230.46" cy="413.02" r="2.52"/>
      <circle class="cls-1" cx="1267.29" cy="413.02" r="2.52"/>
      <circle class="cls-1" cx="1267.29" cy="449.84" r="2.52"/>
      <circle class="cls-1" cx="1230.46" cy="449.84" r="2.52"/>
    </g>
    <g>
      <rect class="cls-6" x="1193.64" y="413.02" width="36.82" height="36.82"/>
      <circle class="cls-1" cx="1193.64" cy="413.02" r="2.52"/>
      <circle class="cls-1" cx="1230.46" cy="413.02" r="2.52"/>
      <circle class="cls-1" cx="1230.46" cy="449.84" r="2.52"/>
      <circle class="cls-1" cx="1193.64" cy="449.84" r="2.52"/>
    </g>
    <g>
      <rect class="cls-6" x="1156.82" y="413.02" width="36.82" height="36.82"/>
      <circle class="cls-1" cx="1156.82" cy="413.02" r="2.52"/>
      <circle class="cls-1" cx="1193.64" cy="413.02" r="2.52"/>
      <circle class="cls-1" cx="1193.64" cy="449.84" r="2.52"/>
      <circle class="cls-1" cx="1156.82" cy="449.84" r="2.52"/>
    </g>
    <g>
      <rect class="cls-6" x="1119.99" y="413.02" width="36.82" height="36.82"/>
      <circle class="cls-1" cx="1119.99" cy="413.02" r="2.52"/>
      <circle class="cls-1" cx="1156.82" cy="413.02" r="2.52"/>
      <circle class="cls-1" cx="1156.82" cy="449.84" r="2.52"/>
      <circle class="cls-1" cx="1119.99" cy="449.84" r="2.52"/>
    </g>
    <g>
      <rect class="cls-6" x="1083.17" y="413.02" width="36.82" height="36.82"/>
      <circle class="cls-1" cx="1083.17" cy="413.02" r="2.52"/>
      <circle class="cls-1" cx="1119.99" cy="413.02" r="2.52"/>
      <circle class="cls-1" cx="1119.99" cy="449.84" r="2.52"/>
      <circle class="cls-1" cx="1083.17" cy="449.84" r="2.52"/>
    </g>
    <g>
      <rect class="cls-6" x="1046.35" y="413.02" width="36.82" height="36.82"/>
      <circle class="cls-1" cx="1046.35" cy="413.02" r="2.52"/>
      <circle class="cls-1" cx="1083.17" cy="413.02" r="2.52"/>
      <circle class="cls-1" cx="1083.17" cy="449.84" r="2.52"/>
      <circle class="cls-1" cx="1046.35" cy="449.84" r="2.52"/>
    </g>
    <g>
      <rect class="cls-6" x="1009.52" y="413.02" width="36.82" height="36.82"/>
      <circle class="cls-1" cx="1009.52" cy="413.02" r="2.52"/>
      <circle class="cls-1" cx="1046.35" cy="413.02" r="2.52"/>
      <circle class="cls-1" cx="1046.35" cy="449.84" r="2.52"/>
      <circle class="cls-1" cx="1009.52" cy="449.84" r="2.52"/>
    </g>
    <g>
      <rect class="cls-6" x="972.7" y="413.02" width="36.82" height="36.82"/>
      <circle class="cls-1" cx="972.7" cy="413.02" r="2.52"/>
      <circle class="cls-1" cx="1009.52" cy="413.02" r="2.52"/>
      <circle class="cls-1" cx="1009.52" cy="449.84" r="2.52"/>
      <circle class="cls-1" cx="972.7" cy="449.84" r="2.52"/>
    </g>
    <g>
      <rect class="cls-6" x="935.88" y="413.02" width="36.82" height="36.82"/>
      <circle class="cls-1" cx="935.88" cy="413.02" r="2.52"/>
      <circle class="cls-1" cx="972.7" cy="413.02" r="2.52"/>
      <circle class="cls-1" cx="972.7" cy="449.84" r="2.52"/>
      <circle class="cls-1" cx="935.88" cy="449.84" r="2.52"/>
    </g>
    <g>
      <rect class="cls-6" x="899.05" y="413.02" width="36.82" height="36.82"/>
      <circle class="cls-1" cx="899.05" cy="413.02" r="2.52"/>
      <circle class="cls-1" cx="935.88" cy="413.02" r="2.52"/>
      <circle class="cls-1" cx="935.88" cy="449.84" r="2.52"/>
      <circle class="cls-1" cx="899.05" cy="449.84" r="2.52"/>
    </g>
  </g>
  <g>
    <g>
      <rect class="cls-6" x="1893.28" y="376.19" width="26.72" height="36.82"/>
      <circle class="cls-1" cx="1893.28" cy="376.19" r="2.52"/>
      <circle class="cls-1" cx="1893.28" cy="413.02" r="2.52"/>
    </g>
    <g>
      <rect class="cls-6" x="1856.46" y="376.19" width="36.82" height="36.82"/>
      <circle class="cls-1" cx="1856.46" cy="376.19" r="2.52"/>
      <circle class="cls-1" cx="1893.28" cy="376.19" r="2.52"/>
      <circle class="cls-1" cx="1893.28" cy="413.02" r="2.52"/>
      <circle class="cls-1" cx="1856.46" cy="413.02" r="2.52"/>
    </g>
    <g>
      <rect class="cls-6" x="1819.64" y="376.19" width="36.82" height="36.82"/>
      <circle class="cls-1" cx="1819.64" cy="376.19" r="2.52"/>
      <circle class="cls-1" cx="1856.46" cy="376.19" r="2.52"/>
      <circle class="cls-1" cx="1856.46" cy="413.02" r="2.52"/>
      <circle class="cls-1" cx="1819.64" cy="413.02" r="2.52"/>
    </g>
    <g>
      <rect class="cls-6" x="1782.81" y="376.19" width="36.82" height="36.82"/>
      <circle class="cls-1" cx="1782.81" cy="376.19" r="2.52"/>
      <circle class="cls-1" cx="1819.64" cy="376.19" r="2.52"/>
      <circle class="cls-1" cx="1819.64" cy="413.02" r="2.52"/>
      <circle class="cls-1" cx="1782.81" cy="413.02" r="2.52"/>
    </g>
    <g>
      <rect class="cls-6" x="1745.99" y="376.19" width="36.82" height="36.82"/>
      <circle class="cls-1" cx="1745.99" cy="376.19" r="2.52"/>
      <circle class="cls-1" cx="1782.81" cy="376.19" r="2.52"/>
      <circle class="cls-1" cx="1782.81" cy="413.02" r="2.52"/>
      <circle class="cls-1" cx="1745.99" cy="413.02" r="2.52"/>
    </g>
    <g>
      <rect class="cls-6" x="1709.17" y="376.19" width="36.82" height="36.82"/>
      <circle class="cls-1" cx="1709.17" cy="376.19" r="2.52"/>
      <circle class="cls-1" cx="1745.99" cy="376.19" r="2.52"/>
      <circle class="cls-1" cx="1745.99" cy="413.02" r="2.52"/>
      <circle class="cls-1" cx="1709.17" cy="413.02" r="2.52"/>
    </g>
    <g>
      <rect class="cls-6" x="1672.34" y="376.19" width="36.82" height="36.82"/>
      <circle class="cls-1" cx="1672.34" cy="376.19" r="2.52"/>
      <circle class="cls-1" cx="1709.17" cy="376.19" r="2.52"/>
      <circle class="cls-1" cx="1709.17" cy="413.02" r="2.52"/>
      <circle class="cls-1" cx="1672.34" cy="413.02" r="2.52"/>
    </g>
    <g>
      <rect class="cls-6" x="1635.52" y="376.19" width="36.82" height="36.82"/>
      <circle class="cls-1" cx="1635.52" cy="376.19" r="2.52"/>
      <circle class="cls-1" cx="1672.34" cy="376.19" r="2.52"/>
      <circle class="cls-1" cx="1672.34" cy="413.02" r="2.52"/>
      <circle class="cls-1" cx="1635.52" cy="413.02" r="2.52"/>
    </g>
    <g>
      <rect class="cls-6" x="1598.7" y="376.19" width="36.82" height="36.82"/>
      <circle class="cls-1" cx="1598.7" cy="376.19" r="2.52"/>
      <circle class="cls-1" cx="1635.52" cy="376.19" r="2.52"/>
      <circle class="cls-1" cx="1635.52" cy="413.02" r="2.52"/>
      <circle class="cls-1" cx="1598.7" cy="413.02" r="2.52"/>
    </g>
    <g>
      <rect class="cls-6" x="1561.87" y="376.19" width="36.82" height="36.82"/>
      <circle class="cls-1" cx="1561.87" cy="376.19" r="2.52"/>
      <circle class="cls-1" cx="1598.7" cy="376.19" r="2.52"/>
      <circle class="cls-1" cx="1598.7" cy="413.02" r="2.52"/>
      <circle class="cls-1" cx="1561.87" cy="413.02" r="2.52"/>
    </g>
    <g>
      <rect class="cls-6" x="1525.05" y="376.19" width="36.82" height="36.82"/>
      <circle class="cls-1" cx="1525.05" cy="376.19" r="2.52"/>
      <circle class="cls-1" cx="1561.87" cy="376.19" r="2.52"/>
      <circle class="cls-1" cx="1561.87" cy="413.02" r="2.52"/>
      <circle class="cls-1" cx="1525.05" cy="413.02" r="2.52"/>
    </g>
    <g>
      <rect class="cls-6" x="1488.23" y="376.19" width="36.82" height="36.82"/>
      <circle class="cls-1" cx="1488.23" cy="376.19" r="2.52"/>
      <circle class="cls-1" cx="1525.05" cy="376.19" r="2.52"/>
      <circle class="cls-1" cx="1525.05" cy="413.02" r="2.52"/>
      <circle class="cls-1" cx="1488.23" cy="413.02" r="2.52"/>
    </g>
    <g>
      <rect class="cls-6" x="1451.4" y="376.19" width="36.82" height="36.82"/>
      <circle class="cls-1" cx="1451.4" cy="376.19" r="2.52"/>
      <circle class="cls-1" cx="1488.23" cy="376.19" r="2.52"/>
      <circle class="cls-1" cx="1488.23" cy="413.02" r="2.52"/>
      <circle class="cls-1" cx="1451.4" cy="413.02" r="2.52"/>
    </g>
    <g>
      <rect class="cls-6" x="1414.58" y="376.19" width="36.82" height="36.82"/>
      <circle class="cls-1" cx="1414.58" cy="376.19" r="2.52"/>
      <circle class="cls-1" cx="1451.4" cy="376.19" r="2.52"/>
      <circle class="cls-1" cx="1451.4" cy="413.02" r="2.52"/>
      <circle class="cls-1" cx="1414.58" cy="413.02" r="2.52"/>
    </g>
    <g>
      <rect class="cls-6" x="1377.76" y="376.19" width="36.82" height="36.82"/>
      <circle class="cls-1" cx="1377.76" cy="376.19" r="2.52"/>
      <circle class="cls-1" cx="1414.58" cy="376.19" r="2.52"/>
      <circle class="cls-1" cx="1414.58" cy="413.02" r="2.52"/>
      <circle class="cls-1" cx="1377.76" cy="413.02" r="2.52"/>
    </g>
    <g>
      <rect class="cls-6" x="1340.93" y="376.19" width="36.82" height="36.82"/>
      <circle class="cls-1" cx="1340.93" cy="376.19" r="2.52"/>
      <circle class="cls-1" cx="1377.76" cy="376.19" r="2.52"/>
      <circle class="cls-1" cx="1377.76" cy="413.02" r="2.52"/>
      <circle class="cls-1" cx="1340.93" cy="413.02" r="2.52"/>
    </g>
    <g>
      <rect class="cls-6" x="1304.11" y="376.19" width="36.82" height="36.82"/>
      <circle class="cls-1" cx="1304.11" cy="376.19" r="2.52"/>
      <circle class="cls-1" cx="1340.93" cy="376.19" r="2.52"/>
      <circle class="cls-1" cx="1340.93" cy="413.02" r="2.52"/>
      <circle class="cls-1" cx="1304.11" cy="413.02" r="2.52"/>
    </g>
    <g>
      <rect class="cls-6" x="1267.29" y="376.19" width="36.82" height="36.82"/>
      <circle class="cls-1" cx="1267.29" cy="376.19" r="2.52"/>
      <circle class="cls-1" cx="1304.11" cy="376.19" r="2.52"/>
      <circle class="cls-1" cx="1304.11" cy="413.02" r="2.52"/>
      <circle class="cls-1" cx="1267.29" cy="413.02" r="2.52"/>
    </g>
    <g>
      <rect class="cls-6" x="1230.46" y="376.19" width="36.82" height="36.82"/>
      <circle class="cls-1" cx="1230.46" cy="376.19" r="2.52"/>
      <circle class="cls-1" cx="1267.29" cy="376.19" r="2.52"/>
      <circle class="cls-1" cx="1267.29" cy="413.02" r="2.52"/>
      <circle class="cls-1" cx="1230.46" cy="413.02" r="2.52"/>
    </g>
    <g>
      <rect class="cls-6" x="1193.64" y="376.19" width="36.82" height="36.82"/>
      <circle class="cls-1" cx="1193.64" cy="376.19" r="2.52"/>
      <circle class="cls-1" cx="1230.46" cy="376.19" r="2.52"/>
      <circle class="cls-1" cx="1230.46" cy="413.02" r="2.52"/>
      <circle class="cls-1" cx="1193.64" cy="413.02" r="2.52"/>
    </g>
    <g>
      <rect class="cls-6" x="1156.82" y="376.19" width="36.82" height="36.82"/>
      <circle class="cls-1" cx="1156.82" cy="376.19" r="2.52"/>
      <circle class="cls-1" cx="1193.64" cy="376.19" r="2.52"/>
      <circle class="cls-1" cx="1193.64" cy="413.02" r="2.52"/>
      <circle class="cls-1" cx="1156.82" cy="413.02" r="2.52"/>
    </g>
    <g>
      <rect class="cls-6" x="1119.99" y="376.19" width="36.82" height="36.82"/>
      <circle class="cls-1" cx="1119.99" cy="376.19" r="2.52"/>
      <circle class="cls-1" cx="1156.82" cy="376.19" r="2.52"/>
      <circle class="cls-1" cx="1156.82" cy="413.02" r="2.52"/>
      <circle class="cls-1" cx="1119.99" cy="413.02" r="2.52"/>
    </g>
    <g>
      <rect class="cls-6" x="1083.17" y="376.19" width="36.82" height="36.82"/>
      <circle class="cls-1" cx="1083.17" cy="376.19" r="2.52"/>
      <circle class="cls-1" cx="1119.99" cy="376.19" r="2.52"/>
      <circle class="cls-1" cx="1119.99" cy="413.02" r="2.52"/>
      <circle class="cls-1" cx="1083.17" cy="413.02" r="2.52"/>
    </g>
    <g>
      <rect class="cls-6" x="1046.35" y="376.19" width="36.82" height="36.82"/>
      <circle class="cls-1" cx="1046.35" cy="376.19" r="2.52"/>
      <circle class="cls-1" cx="1083.17" cy="376.19" r="2.52"/>
      <circle class="cls-1" cx="1083.17" cy="413.02" r="2.52"/>
      <circle class="cls-1" cx="1046.35" cy="413.02" r="2.52"/>
    </g>
    <g>
      <rect class="cls-6" x="1009.52" y="376.19" width="36.82" height="36.82"/>
      <circle class="cls-1" cx="1009.52" cy="376.19" r="2.52"/>
      <circle class="cls-1" cx="1046.35" cy="376.19" r="2.52"/>
      <circle class="cls-1" cx="1046.35" cy="413.02" r="2.52"/>
      <circle class="cls-1" cx="1009.52" cy="413.02" r="2.52"/>
    </g>
    <g>
      <rect class="cls-6" x="972.7" y="376.19" width="36.82" height="36.82"/>
      <circle class="cls-1" cx="972.7" cy="376.19" r="2.52"/>
      <circle class="cls-1" cx="1009.52" cy="376.19" r="2.52"/>
      <circle class="cls-1" cx="1009.52" cy="413.02" r="2.52"/>
      <circle class="cls-1" cx="972.7" cy="413.02" r="2.52"/>
    </g>
    <g>
      <rect class="cls-6" x="935.88" y="376.19" width="36.82" height="36.82"/>
      <circle class="cls-1" cx="935.88" cy="376.19" r="2.52"/>
      <circle class="cls-1" cx="972.7" cy="376.19" r="2.52"/>
      <circle class="cls-1" cx="972.7" cy="413.02" r="2.52"/>
      <circle class="cls-1" cx="935.88" cy="413.02" r="2.52"/>
    </g>
    <g>
      <rect class="cls-6" x="899.05" y="376.19" width="36.82" height="36.82"/>
      <circle class="cls-1" cx="899.05" cy="376.19" r="2.52"/>
      <circle class="cls-1" cx="935.88" cy="376.19" r="2.52"/>
      <circle class="cls-1" cx="935.88" cy="413.02" r="2.52"/>
      <circle class="cls-1" cx="899.05" cy="413.02" r="2.52"/>
    </g>
  </g>
  <g>
    <g>
      <rect class="cls-6" x="1893.28" y="339.37" width="26.72" height="36.82"/>
      <circle class="cls-1" cx="1893.28" cy="339.37" r="2.52"/>
      <circle class="cls-1" cx="1893.28" cy="376.19" r="2.52"/>
    </g>
    <g>
      <rect class="cls-6" x="1856.46" y="339.37" width="36.82" height="36.82"/>
      <circle class="cls-1" cx="1856.46" cy="339.37" r="2.52"/>
      <circle class="cls-1" cx="1893.28" cy="339.37" r="2.52"/>
      <circle class="cls-1" cx="1893.28" cy="376.19" r="2.52"/>
      <circle class="cls-1" cx="1856.46" cy="376.19" r="2.52"/>
    </g>
    <g>
      <rect class="cls-6" x="1819.64" y="339.37" width="36.82" height="36.82"/>
      <circle class="cls-1" cx="1819.64" cy="339.37" r="2.52"/>
      <circle class="cls-1" cx="1856.46" cy="339.37" r="2.52"/>
      <circle class="cls-1" cx="1856.46" cy="376.19" r="2.52"/>
      <circle class="cls-1" cx="1819.64" cy="376.19" r="2.52"/>
    </g>
    <g>
      <rect class="cls-6" x="1782.81" y="339.37" width="36.82" height="36.82"/>
      <circle class="cls-1" cx="1782.81" cy="339.37" r="2.52"/>
      <circle class="cls-1" cx="1819.64" cy="339.37" r="2.52"/>
      <circle class="cls-1" cx="1819.64" cy="376.19" r="2.52"/>
      <circle class="cls-1" cx="1782.81" cy="376.19" r="2.52"/>
    </g>
    <g>
      <rect class="cls-6" x="1745.99" y="339.37" width="36.82" height="36.82"/>
      <circle class="cls-1" cx="1745.99" cy="339.37" r="2.52"/>
      <circle class="cls-1" cx="1782.81" cy="339.37" r="2.52"/>
      <circle class="cls-1" cx="1782.81" cy="376.19" r="2.52"/>
      <circle class="cls-1" cx="1745.99" cy="376.19" r="2.52"/>
    </g>
    <g>
      <rect class="cls-6" x="1709.17" y="339.37" width="36.82" height="36.82"/>
      <circle class="cls-1" cx="1709.17" cy="339.37" r="2.52"/>
      <circle class="cls-1" cx="1745.99" cy="339.37" r="2.52"/>
      <circle class="cls-1" cx="1745.99" cy="376.19" r="2.52"/>
      <circle class="cls-1" cx="1709.17" cy="376.19" r="2.52"/>
    </g>
    <g>
      <rect class="cls-6" x="1672.34" y="339.37" width="36.82" height="36.82"/>
      <circle class="cls-1" cx="1672.34" cy="339.37" r="2.52"/>
      <circle class="cls-1" cx="1709.17" cy="339.37" r="2.52"/>
      <circle class="cls-1" cx="1709.17" cy="376.19" r="2.52"/>
      <circle class="cls-1" cx="1672.34" cy="376.19" r="2.52"/>
    </g>
    <g>
      <rect class="cls-6" x="1635.52" y="339.37" width="36.82" height="36.82"/>
      <circle class="cls-1" cx="1635.52" cy="339.37" r="2.52"/>
      <circle class="cls-1" cx="1672.34" cy="339.37" r="2.52"/>
      <circle class="cls-1" cx="1672.34" cy="376.19" r="2.52"/>
      <circle class="cls-1" cx="1635.52" cy="376.19" r="2.52"/>
    </g>
    <g>
      <rect class="cls-6" x="1598.7" y="339.37" width="36.82" height="36.82"/>
      <circle class="cls-1" cx="1598.7" cy="339.37" r="2.52"/>
      <circle class="cls-1" cx="1635.52" cy="339.37" r="2.52"/>
      <circle class="cls-1" cx="1635.52" cy="376.19" r="2.52"/>
      <circle class="cls-1" cx="1598.7" cy="376.19" r="2.52"/>
    </g>
    <g>
      <rect class="cls-6" x="1561.87" y="339.37" width="36.82" height="36.82"/>
      <circle class="cls-1" cx="1561.87" cy="339.37" r="2.52"/>
      <circle class="cls-1" cx="1598.7" cy="339.37" r="2.52"/>
      <circle class="cls-1" cx="1598.7" cy="376.19" r="2.52"/>
      <circle class="cls-1" cx="1561.87" cy="376.19" r="2.52"/>
    </g>
    <g>
      <rect class="cls-6" x="1525.05" y="339.37" width="36.82" height="36.82"/>
      <circle class="cls-1" cx="1525.05" cy="339.37" r="2.52"/>
      <circle class="cls-1" cx="1561.87" cy="339.37" r="2.52"/>
      <circle class="cls-1" cx="1561.87" cy="376.19" r="2.52"/>
      <circle class="cls-1" cx="1525.05" cy="376.19" r="2.52"/>
    </g>
    <g>
      <rect class="cls-6" x="1488.23" y="339.37" width="36.82" height="36.82"/>
      <circle class="cls-1" cx="1488.23" cy="339.37" r="2.52"/>
      <circle class="cls-1" cx="1525.05" cy="339.37" r="2.52"/>
      <circle class="cls-1" cx="1525.05" cy="376.19" r="2.52"/>
      <circle class="cls-1" cx="1488.23" cy="376.19" r="2.52"/>
    </g>
    <g>
      <rect class="cls-6" x="1451.4" y="339.37" width="36.82" height="36.82"/>
      <circle class="cls-1" cx="1451.4" cy="339.37" r="2.52"/>
      <circle class="cls-1" cx="1488.23" cy="339.37" r="2.52"/>
      <circle class="cls-1" cx="1488.23" cy="376.19" r="2.52"/>
      <circle class="cls-1" cx="1451.4" cy="376.19" r="2.52"/>
    </g>
    <g>
      <rect class="cls-6" x="1414.58" y="339.37" width="36.82" height="36.82"/>
      <circle class="cls-1" cx="1414.58" cy="339.37" r="2.52"/>
      <circle class="cls-1" cx="1451.4" cy="339.37" r="2.52"/>
      <circle class="cls-1" cx="1451.4" cy="376.19" r="2.52"/>
      <circle class="cls-1" cx="1414.58" cy="376.19" r="2.52"/>
    </g>
    <g>
      <rect class="cls-6" x="1377.76" y="339.37" width="36.82" height="36.82"/>
      <circle class="cls-1" cx="1377.76" cy="339.37" r="2.52"/>
      <circle class="cls-1" cx="1414.58" cy="339.37" r="2.52"/>
      <circle class="cls-1" cx="1414.58" cy="376.19" r="2.52"/>
      <circle class="cls-1" cx="1377.76" cy="376.19" r="2.52"/>
    </g>
    <g>
      <rect class="cls-6" x="1340.93" y="339.37" width="36.82" height="36.82"/>
      <circle class="cls-1" cx="1340.93" cy="339.37" r="2.52"/>
      <circle class="cls-1" cx="1377.76" cy="339.37" r="2.52"/>
      <circle class="cls-1" cx="1377.76" cy="376.19" r="2.52"/>
      <circle class="cls-1" cx="1340.93" cy="376.19" r="2.52"/>
    </g>
    <g>
      <rect class="cls-6" x="1304.11" y="339.37" width="36.82" height="36.82"/>
      <circle class="cls-1" cx="1304.11" cy="339.37" r="2.52"/>
      <circle class="cls-1" cx="1340.93" cy="339.37" r="2.52"/>
      <circle class="cls-1" cx="1340.93" cy="376.19" r="2.52"/>
      <circle class="cls-1" cx="1304.11" cy="376.19" r="2.52"/>
    </g>
    <g>
      <rect class="cls-6" x="1267.29" y="339.37" width="36.82" height="36.82"/>
      <circle class="cls-1" cx="1267.29" cy="339.37" r="2.52"/>
      <circle class="cls-1" cx="1304.11" cy="339.37" r="2.52"/>
      <circle class="cls-1" cx="1304.11" cy="376.19" r="2.52"/>
      <circle class="cls-1" cx="1267.29" cy="376.19" r="2.52"/>
    </g>
    <g>
      <rect class="cls-6" x="1230.46" y="339.37" width="36.82" height="36.82"/>
      <circle class="cls-1" cx="1230.46" cy="339.37" r="2.52"/>
      <circle class="cls-1" cx="1267.29" cy="339.37" r="2.52"/>
      <circle class="cls-1" cx="1267.29" cy="376.19" r="2.52"/>
      <circle class="cls-1" cx="1230.46" cy="376.19" r="2.52"/>
    </g>
    <g>
      <rect class="cls-6" x="1193.64" y="339.37" width="36.82" height="36.82"/>
      <circle class="cls-1" cx="1193.64" cy="339.37" r="2.52"/>
      <circle class="cls-1" cx="1230.46" cy="339.37" r="2.52"/>
      <circle class="cls-1" cx="1230.46" cy="376.19" r="2.52"/>
      <circle class="cls-1" cx="1193.64" cy="376.19" r="2.52"/>
    </g>
    <g>
      <rect class="cls-6" x="1156.82" y="339.37" width="36.82" height="36.82"/>
      <circle class="cls-1" cx="1156.82" cy="339.37" r="2.52"/>
      <circle class="cls-1" cx="1193.64" cy="339.37" r="2.52"/>
      <circle class="cls-1" cx="1193.64" cy="376.19" r="2.52"/>
      <circle class="cls-1" cx="1156.82" cy="376.19" r="2.52"/>
    </g>
    <g>
      <rect class="cls-6" x="1119.99" y="339.37" width="36.82" height="36.82"/>
      <circle class="cls-1" cx="1119.99" cy="339.37" r="2.52"/>
      <circle class="cls-1" cx="1156.82" cy="339.37" r="2.52"/>
      <circle class="cls-1" cx="1156.82" cy="376.19" r="2.52"/>
      <circle class="cls-1" cx="1119.99" cy="376.19" r="2.52"/>
    </g>
    <g>
      <rect class="cls-6" x="1083.17" y="339.37" width="36.82" height="36.82"/>
      <circle class="cls-1" cx="1083.17" cy="339.37" r="2.52"/>
      <circle class="cls-1" cx="1119.99" cy="339.37" r="2.52"/>
      <circle class="cls-1" cx="1119.99" cy="376.19" r="2.52"/>
      <circle class="cls-1" cx="1083.17" cy="376.19" r="2.52"/>
    </g>
    <g>
      <rect class="cls-6" x="1046.35" y="339.37" width="36.82" height="36.82"/>
      <circle class="cls-1" cx="1046.35" cy="339.37" r="2.52"/>
      <circle class="cls-1" cx="1083.17" cy="339.37" r="2.52"/>
      <circle class="cls-1" cx="1083.17" cy="376.19" r="2.52"/>
      <circle class="cls-1" cx="1046.35" cy="376.19" r="2.52"/>
    </g>
    <g>
      <rect class="cls-6" x="1009.52" y="339.37" width="36.82" height="36.82"/>
      <circle class="cls-1" cx="1009.52" cy="339.37" r="2.52"/>
      <circle class="cls-1" cx="1046.35" cy="339.37" r="2.52"/>
      <circle class="cls-1" cx="1046.35" cy="376.19" r="2.52"/>
      <circle class="cls-1" cx="1009.52" cy="376.19" r="2.52"/>
    </g>
    <g>
      <rect class="cls-6" x="972.7" y="339.37" width="36.82" height="36.82"/>
      <circle class="cls-1" cx="972.7" cy="339.37" r="2.52"/>
      <circle class="cls-1" cx="1009.52" cy="339.37" r="2.52"/>
      <circle class="cls-1" cx="1009.52" cy="376.19" r="2.52"/>
      <circle class="cls-1" cx="972.7" cy="376.19" r="2.52"/>
    </g>
    <g>
      <rect class="cls-6" x="935.88" y="339.37" width="36.82" height="36.82"/>
      <circle class="cls-1" cx="935.88" cy="339.37" r="2.52"/>
      <circle class="cls-1" cx="972.7" cy="339.37" r="2.52"/>
      <circle class="cls-1" cx="972.7" cy="376.19" r="2.52"/>
      <circle class="cls-1" cx="935.88" cy="376.19" r="2.52"/>
    </g>
    <g>
      <rect class="cls-6" x="899.05" y="339.37" width="36.82" height="36.82"/>
      <circle class="cls-1" cx="899.05" cy="339.37" r="2.52"/>
      <circle class="cls-1" cx="935.88" cy="339.37" r="2.52"/>
      <circle class="cls-1" cx="935.88" cy="376.19" r="2.52"/>
      <circle class="cls-1" cx="899.05" cy="376.19" r="2.52"/>
    </g>
  </g>
  <g>
    <g>
      <rect class="cls-6" x="1893.28" y="302.55" width="26.72" height="36.82"/>
      <circle class="cls-1" cx="1893.28" cy="302.55" r="2.52"/>
      <circle class="cls-1" cx="1893.28" cy="339.37" r="2.52"/>
    </g>
    <g>
      <rect class="cls-6" x="1856.46" y="302.55" width="36.82" height="36.82"/>
      <circle class="cls-1" cx="1856.46" cy="302.55" r="2.52"/>
      <circle class="cls-1" cx="1893.28" cy="302.55" r="2.52"/>
      <circle class="cls-1" cx="1893.28" cy="339.37" r="2.52"/>
      <circle class="cls-1" cx="1856.46" cy="339.37" r="2.52"/>
    </g>
    <g>
      <rect class="cls-6" x="1819.64" y="302.55" width="36.82" height="36.82"/>
      <circle class="cls-1" cx="1819.64" cy="302.55" r="2.52"/>
      <circle class="cls-1" cx="1856.46" cy="302.55" r="2.52"/>
      <circle class="cls-1" cx="1856.46" cy="339.37" r="2.52"/>
      <circle class="cls-1" cx="1819.64" cy="339.37" r="2.52"/>
    </g>
    <g>
      <rect class="cls-6" x="1782.81" y="302.55" width="36.82" height="36.82"/>
      <circle class="cls-1" cx="1782.81" cy="302.55" r="2.52"/>
      <circle class="cls-1" cx="1819.64" cy="302.55" r="2.52"/>
      <circle class="cls-1" cx="1819.64" cy="339.37" r="2.52"/>
      <circle class="cls-1" cx="1782.81" cy="339.37" r="2.52"/>
    </g>
    <g>
      <rect class="cls-6" x="1745.99" y="302.55" width="36.82" height="36.82"/>
      <circle class="cls-1" cx="1745.99" cy="302.55" r="2.52"/>
      <circle class="cls-1" cx="1782.81" cy="302.55" r="2.52"/>
      <circle class="cls-1" cx="1782.81" cy="339.37" r="2.52"/>
      <circle class="cls-1" cx="1745.99" cy="339.37" r="2.52"/>
    </g>
    <g>
      <rect class="cls-6" x="1709.17" y="302.55" width="36.82" height="36.82"/>
      <circle class="cls-1" cx="1709.17" cy="302.55" r="2.52"/>
      <circle class="cls-1" cx="1745.99" cy="302.55" r="2.52"/>
      <circle class="cls-1" cx="1745.99" cy="339.37" r="2.52"/>
      <circle class="cls-1" cx="1709.17" cy="339.37" r="2.52"/>
    </g>
    <g>
      <rect class="cls-6" x="1672.34" y="302.55" width="36.82" height="36.82"/>
      <circle class="cls-1" cx="1672.34" cy="302.55" r="2.52"/>
      <circle class="cls-1" cx="1709.17" cy="302.55" r="2.52"/>
      <circle class="cls-1" cx="1709.17" cy="339.37" r="2.52"/>
      <circle class="cls-1" cx="1672.34" cy="339.37" r="2.52"/>
    </g>
    <g>
      <rect class="cls-6" x="1635.52" y="302.55" width="36.82" height="36.82"/>
      <circle class="cls-1" cx="1635.52" cy="302.55" r="2.52"/>
      <circle class="cls-1" cx="1672.34" cy="302.55" r="2.52"/>
      <circle class="cls-1" cx="1672.34" cy="339.37" r="2.52"/>
      <circle class="cls-1" cx="1635.52" cy="339.37" r="2.52"/>
    </g>
    <g>
      <rect class="cls-6" x="1598.7" y="302.55" width="36.82" height="36.82"/>
      <circle class="cls-1" cx="1598.7" cy="302.55" r="2.52"/>
      <circle class="cls-1" cx="1635.52" cy="302.55" r="2.52"/>
      <circle class="cls-1" cx="1635.52" cy="339.37" r="2.52"/>
      <circle class="cls-1" cx="1598.7" cy="339.37" r="2.52"/>
    </g>
    <g>
      <rect class="cls-6" x="1561.87" y="302.55" width="36.82" height="36.82"/>
      <circle class="cls-1" cx="1561.87" cy="302.55" r="2.52"/>
      <circle class="cls-1" cx="1598.7" cy="302.55" r="2.52"/>
      <circle class="cls-1" cx="1598.7" cy="339.37" r="2.52"/>
      <circle class="cls-1" cx="1561.87" cy="339.37" r="2.52"/>
    </g>
    <g>
      <rect class="cls-6" x="1525.05" y="302.55" width="36.82" height="36.82"/>
      <circle class="cls-1" cx="1525.05" cy="302.55" r="2.52"/>
      <circle class="cls-1" cx="1561.87" cy="302.55" r="2.52"/>
      <circle class="cls-1" cx="1561.87" cy="339.37" r="2.52"/>
      <circle class="cls-1" cx="1525.05" cy="339.37" r="2.52"/>
    </g>
    <g>
      <rect class="cls-6" x="1488.23" y="302.55" width="36.82" height="36.82"/>
      <circle class="cls-1" cx="1488.23" cy="302.55" r="2.52"/>
      <circle class="cls-1" cx="1525.05" cy="302.55" r="2.52"/>
      <circle class="cls-1" cx="1525.05" cy="339.37" r="2.52"/>
      <circle class="cls-1" cx="1488.23" cy="339.37" r="2.52"/>
    </g>
    <g>
      <rect class="cls-6" x="1451.4" y="302.55" width="36.82" height="36.82"/>
      <circle class="cls-1" cx="1451.4" cy="302.55" r="2.52"/>
      <circle class="cls-1" cx="1488.23" cy="302.55" r="2.52"/>
      <circle class="cls-1" cx="1488.23" cy="339.37" r="2.52"/>
      <circle class="cls-1" cx="1451.4" cy="339.37" r="2.52"/>
    </g>
    <g>
      <rect class="cls-6" x="1414.58" y="302.55" width="36.82" height="36.82"/>
      <circle class="cls-1" cx="1414.58" cy="302.55" r="2.52"/>
      <circle class="cls-1" cx="1451.4" cy="302.55" r="2.52"/>
      <circle class="cls-1" cx="1451.4" cy="339.37" r="2.52"/>
      <circle class="cls-1" cx="1414.58" cy="339.37" r="2.52"/>
    </g>
    <g>
      <rect class="cls-6" x="1377.76" y="302.55" width="36.82" height="36.82"/>
      <circle class="cls-1" cx="1377.76" cy="302.55" r="2.52"/>
      <circle class="cls-1" cx="1414.58" cy="302.55" r="2.52"/>
      <circle class="cls-1" cx="1414.58" cy="339.37" r="2.52"/>
      <circle class="cls-1" cx="1377.76" cy="339.37" r="2.52"/>
    </g>
    <g>
      <rect class="cls-6" x="1340.93" y="302.55" width="36.82" height="36.82"/>
      <circle class="cls-1" cx="1340.93" cy="302.55" r="2.52"/>
      <circle class="cls-1" cx="1377.76" cy="302.55" r="2.52"/>
      <circle class="cls-1" cx="1377.76" cy="339.37" r="2.52"/>
      <circle class="cls-1" cx="1340.93" cy="339.37" r="2.52"/>
    </g>
    <g>
      <rect class="cls-6" x="1304.11" y="302.55" width="36.82" height="36.82"/>
      <circle class="cls-1" cx="1304.11" cy="302.55" r="2.52"/>
      <circle class="cls-1" cx="1340.93" cy="302.55" r="2.52"/>
      <circle class="cls-1" cx="1340.93" cy="339.37" r="2.52"/>
      <circle class="cls-1" cx="1304.11" cy="339.37" r="2.52"/>
    </g>
    <g>
      <rect class="cls-6" x="1267.29" y="302.55" width="36.82" height="36.82"/>
      <circle class="cls-1" cx="1267.29" cy="302.55" r="2.52"/>
      <circle class="cls-1" cx="1304.11" cy="302.55" r="2.52"/>
      <circle class="cls-1" cx="1304.11" cy="339.37" r="2.52"/>
      <circle class="cls-1" cx="1267.29" cy="339.37" r="2.52"/>
    </g>
    <g>
      <rect class="cls-6" x="1230.46" y="302.55" width="36.82" height="36.82"/>
      <circle class="cls-1" cx="1230.46" cy="302.55" r="2.52"/>
      <circle class="cls-1" cx="1267.29" cy="302.55" r="2.52"/>
      <circle class="cls-1" cx="1267.29" cy="339.37" r="2.52"/>
      <circle class="cls-1" cx="1230.46" cy="339.37" r="2.52"/>
    </g>
    <g>
      <rect class="cls-6" x="1193.64" y="302.55" width="36.82" height="36.82"/>
      <circle class="cls-1" cx="1193.64" cy="302.55" r="2.52"/>
      <circle class="cls-1" cx="1230.46" cy="302.55" r="2.52"/>
      <circle class="cls-1" cx="1230.46" cy="339.37" r="2.52"/>
      <circle class="cls-1" cx="1193.64" cy="339.37" r="2.52"/>
    </g>
    <g>
      <rect class="cls-6" x="1156.82" y="302.55" width="36.82" height="36.82"/>
      <circle class="cls-1" cx="1156.82" cy="302.55" r="2.52"/>
      <circle class="cls-1" cx="1193.64" cy="302.55" r="2.52"/>
      <circle class="cls-1" cx="1193.64" cy="339.37" r="2.52"/>
      <circle class="cls-1" cx="1156.82" cy="339.37" r="2.52"/>
    </g>
    <g>
      <rect class="cls-6" x="1119.99" y="302.55" width="36.82" height="36.82"/>
      <circle class="cls-1" cx="1119.99" cy="302.55" r="2.52"/>
      <circle class="cls-1" cx="1156.82" cy="302.55" r="2.52"/>
      <circle class="cls-1" cx="1156.82" cy="339.37" r="2.52"/>
      <circle class="cls-1" cx="1119.99" cy="339.37" r="2.52"/>
    </g>
    <g>
      <rect class="cls-6" x="1083.17" y="302.55" width="36.82" height="36.82"/>
      <circle class="cls-1" cx="1083.17" cy="302.55" r="2.52"/>
      <circle class="cls-1" cx="1119.99" cy="302.55" r="2.52"/>
      <circle class="cls-1" cx="1119.99" cy="339.37" r="2.52"/>
      <circle class="cls-1" cx="1083.17" cy="339.37" r="2.52"/>
    </g>
    <g>
      <rect class="cls-6" x="1046.35" y="302.55" width="36.82" height="36.82"/>
      <circle class="cls-1" cx="1046.35" cy="302.55" r="2.52"/>
      <circle class="cls-1" cx="1083.17" cy="302.55" r="2.52"/>
      <circle class="cls-1" cx="1083.17" cy="339.37" r="2.52"/>
      <circle class="cls-1" cx="1046.35" cy="339.37" r="2.52"/>
    </g>
    <g>
      <rect class="cls-6" x="1009.52" y="302.55" width="36.82" height="36.82"/>
      <circle class="cls-1" cx="1009.52" cy="302.55" r="2.52"/>
      <circle class="cls-1" cx="1046.35" cy="302.55" r="2.52"/>
      <circle class="cls-1" cx="1046.35" cy="339.37" r="2.52"/>
      <circle class="cls-1" cx="1009.52" cy="339.37" r="2.52"/>
    </g>
    <g>
      <rect class="cls-6" x="972.7" y="302.55" width="36.82" height="36.82"/>
      <circle class="cls-1" cx="972.7" cy="302.55" r="2.52"/>
      <circle class="cls-1" cx="1009.52" cy="302.55" r="2.52"/>
      <circle class="cls-1" cx="1009.52" cy="339.37" r="2.52"/>
      <circle class="cls-1" cx="972.7" cy="339.37" r="2.52"/>
    </g>
    <g>
      <rect class="cls-6" x="935.88" y="302.55" width="36.82" height="36.82"/>
      <circle class="cls-1" cx="935.88" cy="302.55" r="2.52"/>
      <circle class="cls-1" cx="972.7" cy="302.55" r="2.52"/>
      <circle class="cls-1" cx="972.7" cy="339.37" r="2.52"/>
      <circle class="cls-1" cx="935.88" cy="339.37" r="2.52"/>
    </g>
    <g>
      <rect class="cls-6" x="899.05" y="302.55" width="36.82" height="36.82"/>
      <circle class="cls-1" cx="899.05" cy="302.55" r="2.52"/>
      <circle class="cls-1" cx="935.88" cy="302.55" r="2.52"/>
      <circle class="cls-1" cx="935.88" cy="339.37" r="2.52"/>
      <circle class="cls-1" cx="899.05" cy="339.37" r="2.52"/>
    </g>
  </g>
  <g>
    <path class="cls-5" d="m1630.98,164.62h209.24c2.09,0,3.78,1.69,3.78,3.78v29.65c0,2.09-1.69,3.78-3.78,3.78h-171.22c-2.09,0-3.78,1.69-3.78,3.78v57.43c0,22.83-.81,41.8-2.43,56.9-1.62,15.1-4.68,29.21-9.17,42.33-4.12,12.01-9.96,24.77-17.53,38.28-1.12,2-3.78,2.55-5.6,1.16l-25.48-19.38c-1.5-1.14-1.9-3.23-.97-4.88,5.68-10.09,10.12-19.69,13.32-28.8,3.51-9.98,6.02-21.39,7.55-34.24,1.53-12.85,2.29-28.99,2.29-48.4v-97.61c0-2.09,1.69-3.78,3.78-3.78Zm122.62,48.88l-.4,23.05c-.04,2.11,1.67,3.85,3.78,3.85h74.93c2.17,0,3.9,1.83,3.77,4l-.31,5.44c-.72,18.87-1.66,39.6-2.83,62.15-1.17,22.56-2.11,39.95-2.83,52.18-.72,8.99-2.61,16.14-5.66,21.44-3.06,5.3-7.96,9.21-14.7,11.73-6.74,2.51-16.04,3.77-27.91,3.77h-31.16c-1.79,0-3.34-1.26-3.7-3.02l-5.99-29.11c-.48-2.35,1.31-4.54,3.7-4.54h26.37c6.47,0,11.1-.4,13.89-1.21,2.79-.81,4.72-2.33,5.8-4.58,1.08-2.25,1.8-6.16,2.16-11.73.72-8.81,1.48-20.53,2.29-35.19.7-12.64,1.23-23.24,1.59-31.79.09-2.15-1.63-3.93-3.78-3.93h-37.63c-1.96,0-3.58,1.53-3.75,3.48-1.69,19.18-4.79,35.69-9.28,49.51-4.77,14.65-11.73,27.86-20.9,39.64-8.65,11.12-20.03,22.27-34.13,33.46-1.45,1.15-3.55,1.08-4.92-.16l-23.94-21.77c-1.74-1.58-1.6-4.35.26-5.8,12.32-9.59,22.13-18.69,29.44-27.31,8-9.44,14.11-19.73,18.34-30.87,3.84-10.14,6.53-22.13,8.07-35.98.25-2.23-1.53-4.2-3.77-4.2h-33.55c-2.09,0-3.78-1.69-3.78-3.78v-28.03c0-2.09,1.69-3.78,3.78-3.78h35.92c2.06,0,3.74-1.65,3.78-3.71l.41-23.31c.04-2.06,1.72-3.71,3.78-3.71h29.11c2.11,0,3.82,1.73,3.78,3.85Z"/>
    <path class="cls-4" d="m1457.94,263.36c7.22-4.64,13.54-9.03,18.97-13.15,2.45-1.86,5.96-.08,5.96,2.99,0,2.06,1.67,3.73,3.73,3.73h62.81c2.06,0,3.73-1.67,3.73-3.73v-.96c0-3.08,3.52-4.84,5.96-2.96,6.4,4.94,13.41,9.5,21.04,13.7,1.92,1.06,4.36.21,5.23-1.8l10.22-23.5c.81-1.87-.05-4.02-1.91-4.88-7.64-3.54-14.37-7.52-20.19-11.94-4.88-3.71-9.31-8.16-13.28-13.34-1.86-2.43-.05-5.96,3.01-5.96h22.38c2.06,0,3.73-1.67,3.73-3.73v-24.48c0-2.06-1.67-3.73-3.73-3.73h-50.67c-2.4,0-4.18-2.23-3.64-4.57l1.98-8.59c.51-2.2-1.03-4.34-3.28-4.55l-25.5-2.47c-1.87-.18-3.56,1.05-3.97,2.88-1.09,4.83-2.36,9.69-3.81,14.61-.47,1.59-1.95,2.69-3.61,2.69h-9.68v-9.33c0-2.49-2.02-4.51-4.51-4.51h-11.15c-.27,0-.54.03-.8.08h-36.67c-2.49,0-4.51,2.02-4.51,4.51v11.15c0,2.49,2.02,4.51,4.51,4.51h14.75l-20.8,20.8c-8.41-4.57-18.04-7.17-28.28-7.17s-19.7,2.55-28.05,7.05l-3.7-3.7,9.35-9.35c1.72-1.72,1.72-4.5,0-6.22l-5.15-5.15c-.9-.9-2.1-1.32-3.28-1.27.75-.8,1.21-1.87,1.21-3.06v-7.74c0-2.49-2.02-4.51-4.51-4.51h-40.28c-.26-.05-.52-.08-.8-.08h-7.54c-2.49,0-4.51,2.02-4.51,4.51v48.61c0,2.49,2.02,4.51,4.51,4.51h7.54c1.52,0,2.86-.76,3.68-1.91-.17,1.31.23,2.67,1.23,3.68l5.15,5.15c1.72,1.72,4.5,1.72,6.22,0l9.35-9.35,2.32,2.32c-7.53,9.94-12.01,22.32-12.01,35.76,0,27.53,18.77,50.67,44.21,57.33v21.42h-22.6c-2.53,0-4.58,2.05-4.58,4.58v14.74c0,2.53,2.05,4.58,4.58,4.58h22.6v36.85c0,2.96,2.4,5.35,5.35,5.35h19.4c2.96,0,5.35-2.4,5.35-5.35v-36.85h22.6c2.53,0,4.58-2.05,4.58-4.58v-14.74c0-2.53-2.05-4.58-4.58-4.58h-22.6v-21.42c16.69-4.37,30.5-15.84,38.03-30.98v20.54c0,2.06,1.67,3.73,3.73,3.73h9.33c2.34,0,4.1,2.13,3.67,4.43l-6.04,31.88c-.44,2.3,1.33,4.43,3.67,4.43h73.02c2.41,0,4.19,2.26,3.63,4.6l-.49,2.05c-.36,1.42-.66,2.84-.93,4.26-.27,1.42-.58,2.66-.93,3.73-.36,3.02-1.51,5.1-3.46,6.26-1.96,1.16-4.97,1.73-9.05,1.73h-43.9c-2.35,0-4.12,2.15-3.66,4.46l4.64,23.42c.35,1.75,1.88,3.01,3.66,3.01h44.05c9.76,0,17.44-1.02,23.03-3.06,5.59-2.04,9.8-5.42,12.65-10.12,2.84-4.7,4.88-11.4,6.12-20.09l4.26-35.41,1.35-10.99c.27-2.23-1.46-4.19-3.7-4.19h-70.68c-2.4,0-4.18-2.23-3.64-4.57l.67-2.92c.39-1.69,1.9-2.89,3.64-2.89h83.28c2.06,0,3.73-1.67,3.73-3.73v-23.15c0-2.06-1.67-3.73-3.73-3.73h-134.16c-.38,0-.74.07-1.08.18.71-1.96,1.31-3.97,1.82-6.03,1.22,1.02,3,1.2,4.41.29Zm48.49-42.45c4.67-6.29,8.62-12.74,11.85-19.35h3.46c2.71,6.65,6.21,13.15,10.48,19.49,1.67,2.47-.09,5.8-3.08,5.8h-19.74c-3.06,0-4.8-3.48-2.98-5.94Zm-144.38-48.47l-9.19,9.19-9.17-9.17h18.16c.07,0,.13-.02.2-.02Zm-36.36,36.36c-.18.18-.32.37-.47.57.03-.21.06-.41.06-.62v-19.04l9.75,9.75-9.35,9.35Zm125.48,18.52c-1.97-5.02-4.59-9.72-7.78-13.97l19.89-19.89v15.43c0,2.49,2.02,4.51,4.51,4.51h2.47c-4.45,4.66-9.46,8.92-19.09,13.91Zm-55.18,45.5c-13.21,0-23.91-10.71-23.91-23.91s10.71-23.91,23.91-23.91,23.91,10.71,23.91,23.91-10.71,23.91-23.91,23.91Z"/>
    <path class="cls-7" d="m1064.2,342.86c-1.94-.89-2.75-3.17-1.81-5.08,8.66-17.6,16.58-38.19,23.75-61.8,7.2-23.73,12.69-45.78,16.46-66.15.38-2.05,2.33-3.38,4.38-3.01l32.09,5.89c2.1.39,3.48,2.43,3.04,4.52-5.09,23.75-11.47,47.83-19.15,72.23-7.63,24.26-15.91,45.88-24.83,64.86-.88,1.88-3.12,2.67-5,1.8l-28.92-13.26Zm90.3,18.6c4.85,0,8.22-.41,10.11-1.21,1.89-.81,3.1-2.2,3.64-4.18.54-1.98.81-5.4.81-10.25v-184.44c0-2.09,1.69-3.78,3.78-3.78h34.23c2.09,0,3.78,1.69,3.78,3.78v196.57c0,11.33-1.58,20.09-4.72,26.29-3.15,6.2-8.09,10.56-14.83,13.08-6.74,2.51-15.96,3.77-27.64,3.77h-30.89c-1.8,0-3.35-1.26-3.7-3.02l-6.55-32.08c-.48-2.34,1.31-4.54,3.7-4.54h28.27Zm109.7-155.48c9.85,25.49,25.97,69.45,48.36,131.9.71,1.98-.32,4.19-2.31,4.88l-33.92,11.75c-2.03.7-4.23-.41-4.85-2.47-5.44-18.01-12.53-39.9-21.25-65.68-8.79-25.93-16.7-48.49-23.74-67.68-.74-2.01.34-4.2,2.38-4.87l30.63-10.06c1.91-.63,3.98.35,4.71,2.23Z"/>
  </g>
  <rect class="cls-8" y="473" width="1920" height="207"/>
  <g>
    <path class="cls-14" d="m1361.21,630.84h-9.29v-31.76h-10.83v-8.69h30.96v8.69h-10.83v31.76Z"/>
    <path class="cls-14" d="m1408.15,630.84l-6.94-13.73h-5.29v13.73h-9.29v-40.44h14.38c3.33,0,6.19.54,8.59,1.62,2.4,1.08,4.23,2.62,5.49,4.62s1.9,4.36,1.9,7.09-.58,4.99-1.75,6.96c-1.17,1.98-2.83,3.52-4.99,4.62l8.79,15.53h-10.88Zm-12.23-32.06v9.89h3.75c2.53,0,4.47-.42,5.82-1.27,1.35-.85,2.02-2.07,2.02-3.67s-.67-2.82-2.02-3.67c-1.35-.85-3.29-1.27-5.82-1.27h-3.75Z"/>
    <path class="cls-14" d="m1468.96,630.84h-9.84l-2.75-8.14h-14.08l-2.75,8.14h-9.84l14.88-40.44h9.49l14.88,40.44Zm-19.77-28.36l-3.89,11.53h8.09l-3.89-11.53h-.3Z"/>
    <path class="cls-14" d="m1491.83,630.84h-9.29v-40.44h8.49l15.13,22.92h.3v-22.92h9.29v40.44h-7.99l-15.63-22.92h-.3v22.92Z"/>
    <path class="cls-14" d="m1535.99,628.74c-2.78-1.86-4.84-4.33-6.17-7.39l8.04-3.74c.67,1.8,1.71,3.16,3.12,4.09,1.42.93,3.04,1.4,4.87,1.4s3.4-.34,4.52-1.02c1.11-.68,1.67-1.57,1.67-2.67,0-.77-.2-1.4-.6-1.9-.4-.5-1.12-.97-2.15-1.42-1.03-.45-2.56-.96-4.59-1.52-2.7-.77-4.94-1.53-6.72-2.3-1.78-.77-3.35-1.97-4.72-3.62-1.37-1.65-2.05-3.82-2.05-6.52,0-2.4.67-4.54,2.02-6.42,1.35-1.88,3.18-3.35,5.49-4.42,2.31-1.07,4.87-1.6,7.66-1.6,7.12,0,12.23,3.28,15.33,9.84l-7.99,3.75c-.87-1.83-1.9-3.15-3.1-3.94s-2.65-1.2-4.34-1.2c-1.6,0-2.93.34-4,1.02s-1.6,1.52-1.6,2.52c0,.8.21,1.46.62,1.97.42.52,1.13.99,2.15,1.42,1.01.43,2.55.93,4.62,1.5,2.63.7,4.84,1.43,6.64,2.2,1.8.77,3.38,1.96,4.74,3.59,1.36,1.63,2.05,3.81,2.05,6.54,0,2.53-.67,4.75-2,6.67-1.33,1.91-3.19,3.39-5.57,4.42-2.38,1.03-5.1,1.55-8.16,1.55-3.76,0-7.03-.93-9.81-2.8Z"/>
    <path class="cls-14" d="m1585.85,590.4v32.05h18.08v8.39h-27.36v-40.44h9.29Z"/>
    <path class="cls-14" d="m1627.79,614.56v7.89h18.12v8.39h-27.41v-40.44h26.81v8.39h-17.53v7.39h16.58v8.39h-16.58Z"/>
    <path class="cls-14" d="m1670.18,630.84h-9.29v-40.44h8.49l15.13,22.92h.3v-22.92h9.29v40.44h-7.99l-15.63-22.92h-.3v22.92Z"/>
    <path class="cls-14" d="m1710.47,630.84v-40.44h14.43c4.33,0,8.04.82,11.13,2.45s5.46,3.97,7.09,7.01c1.63,3.05,2.45,6.63,2.45,10.76s-.85,7.71-2.55,10.76-4.16,5.38-7.39,7.01c-3.23,1.63-7.09,2.45-11.58,2.45h-13.58Zm13.63-8.69c3.79,0,6.74-1.02,8.84-3.07s3.15-4.87,3.15-8.46-1.01-6.42-3.02-8.46c-2.01-2.05-4.87-3.07-8.56-3.07h-4.74v23.07h4.34Z"/>
    <path class="cls-14" d="m1795.7,630.84h-9.84l-2.75-8.14h-14.08l-2.75,8.14h-9.84l14.88-40.44h9.49l14.88,40.44Zm-19.77-28.36l-3.89,11.53h8.09l-3.89-11.53h-.3Z"/>
    <path class="cls-14" d="m1830.8,630.84l-6.94-13.73h-5.29v13.73h-9.29v-40.44h14.38c3.33,0,6.19.54,8.59,1.62,2.4,1.08,4.23,2.62,5.49,4.62s1.9,4.36,1.9,7.09-.58,4.99-1.75,6.96c-1.17,1.98-2.83,3.52-4.99,4.62l8.79,15.53h-10.88Zm-12.23-32.06v9.89h3.75c2.53,0,4.47-.42,5.82-1.27,1.35-.85,2.02-2.07,2.02-3.67s-.67-2.82-2.02-3.67c-1.35-.85-3.29-1.27-5.82-1.27h-3.75Z"/>
  </g>
  <polygon class="cls-13" points="1610.57 69.61 1625.07 69.61 1617.82 82.16 1610.57 94.72 1603.32 82.16 1596.07 69.61 1610.57 69.61"/>
  <polygon class="cls-13" points="1698.14 69.61 1712.64 69.61 1705.39 82.16 1698.14 94.72 1690.89 82.16 1683.65 69.61 1698.14 69.61"/>
  <polygon class="cls-13" points="1785.72 69.61 1800.21 69.61 1792.96 82.16 1785.72 94.72 1778.47 82.16 1771.22 69.61 1785.72 69.61"/>
  <polygon class="cls-10" points="1654.36 94.72 1639.86 94.72 1647.11 82.16 1654.36 69.61 1661.61 82.16 1668.85 94.72 1654.36 94.72"/>
  <polygon class="cls-10" points="1741.93 94.72 1727.43 94.72 1734.68 82.16 1741.93 69.61 1749.18 82.16 1756.43 94.72 1741.93 94.72"/>
  <polygon class="cls-10" points="1829.5 94.72 1815.01 94.72 1822.25 82.16 1829.5 69.61 1836.75 82.16 1844 94.72 1829.5 94.72"/>
  <polygon class="cls-8" points="475.65 405.43 358.62 473 233.06 545.49 191.21 473 93 302.9 335.59 162.84 475.65 405.43"/>
  <polygon class="cls-12" points="272.58 680 217.43 584.48 51.99 680 272.58 680"/>
  <polygon class="cls-8" points="204.9 561.7 0 680 0 356.55 64.84 319.11 204.9 561.7"/>
  <polygon class="cls-8" points="628.69 670.5 437.36 619.23 246.04 567.97 488.63 427.91 628.69 670.5"/>
  <polygon class="cls-11" points="514.66 473 410.52 473 246.04 567.97 310.59 680 634.17 680 514.66 473"/>
  <polygon class="cls-3" points="153.69 473 204.9 561.7 0 680 0 473 153.69 473"/>
  <polygon class="cls-3" points="233.06 545.49 358.62 473 191.21 473 233.06 545.49"/>
  <g>
    <path class="cls-2" d="m1575.78,564.48l.16,3.01c-1.17.16-3.41.54-6.72,1.14-3.31.6-5.98,1.1-8.02,1.51l-.45-5.7c.43-.05.94-.13,1.51-.24v-13.23h3.91v12.62l1.47-.24v-13.84h-5.37v-14.45h12.58v10.99c2.5-1.33,4.37-2.85,5.62-4.56h-4.48v-4.89h6.84c.33-1.06.6-2.1.81-3.13l5.05.49-.61,2.65h9.04v4.89h-5.09c.76,1.19,1.65,2.18,2.67,2.95s2.22,1.46,3.6,2.06l-2.04,4.68c-1.76-.92-3.33-1.97-4.68-3.13v1.91h-10.75v-1.75c-1.11.92-2.55,1.94-4.32,3.05l-1.67-2.85v1.1h-2.48v3.5h2.4v5.05h-2.4v4.44l3.3-.61.12,2.61Zm-5.66-24.1h-3.05v3.79h3.05v-3.79Zm5.54,16.08v-4.68h21.66v4.68h-13.76l-.37,1.59h12.17l-.29,2.32-.65,5.41c-.19,1.33-.5,2.35-.94,3.07-.43.72-1.08,1.23-1.93,1.55-.85.31-2.03.47-3.52.47h-7.21l-.94-4.72h7.41c.62,0,1.08-.09,1.38-.26.3-.18.47-.5.53-.96.05-.16.1-.35.14-.57.04-.22.09-.43.14-.65l.24-1.02h-12.58l1.18-6.23h-2.69Zm10.58-14.98c-.65,1.33-1.49,2.62-2.52,3.87h5.29c-.95-1.25-1.7-2.54-2.24-3.87h-.53Z"/>
    <path class="cls-2" d="m1601.46,553.17c.3-1.55.55-3.35.75-5.41.2-2.06.43-4.57.67-7.53l3.62.45c-.05.38-.1.76-.12,1.14-.03.38-.05.75-.08,1.1-.03.41-.18,2.01-.45,4.82-.27,2.81-.52,4.85-.73,6.13l-3.66-.69Zm12.66-6.84c-.49-.27-1.13-.61-1.91-1.02v25.36h-5.54v-37h5.54v5.46c.27.14,1.15.57,2.65,1.3l1.26.65-2,5.25Zm16.24,17.87h8.26v5.58h-24.06v-5.58h10.01v-6.68h-8.02v-5.54h8.02v-5.54h-3.95c-.54,1.93-1.1,3.66-1.67,5.21l-5.09-1.55c1.68-4.37,2.89-9.01,3.62-13.92l5.17.61c-.24,1.63-.46,2.93-.65,3.91h2.56v-6.92h5.78v6.92h7.49v5.74h-7.49v5.54h7.04v5.54h-7.04v6.68Z"/>
    <path class="cls-2" d="m1652.55,549.3l-.12,2.77h10.14c-.08,4.13-.23,8.22-.45,12.29-.11,2.09-.7,3.57-1.77,4.44-1.07.87-2.79,1.3-5.15,1.3h-3.87l-.94-4.68h3.01c1,0,1.74-.07,2.22-.2.47-.13.8-.4.98-.79.18-.39.28-1.01.3-1.85.03-.11.07-.91.12-2.4l.16-2.93h-5.01c-.16,2.12-.46,3.92-.88,5.41-.42,1.49-1.05,2.9-1.87,4.23-.83,1.33-1.99,2.78-3.48,4.36l-4.27-3.42c1.55-1.38,2.69-2.71,3.44-3.97s1.25-2.63,1.53-4.09c.27-1.47.46-3.49.57-6.07.08-1.46.12-2.93.12-4.4h-3.26v-14.49h18.12v14.49h-9.65Zm4.4-9.44h-7.61v4.36h7.61v-4.36Zm7.37-2.12h5.13v23.12h-5.13v-23.12Zm7.73-3.3h5.37v30.78c0,1.36-.18,2.43-.55,3.22-.37.79-.98,1.37-1.85,1.75s-2.08.57-3.62.57h-5.05l-1.06-5.09h4.44c.9,0,1.51-.14,1.83-.41.33-.27.49-.81.49-1.63v-29.19Z"/>
    <path class="cls-2" d="m1719.23,538.8c-.08,3.09-.22,7.48-.41,13.17-.19,5.69-.34,10.02-.45,13.01-.05,1.44-.31,2.57-.77,3.4-.46.83-1.18,1.42-2.16,1.77-.98.35-2.29.53-3.95.53h-5.37l-1.1-5.66h4.68c.92,0,1.59-.06,2.01-.18s.71-.38.88-.77c.16-.39.26-1.01.28-1.85l.57-17.63h-6.35c-.81,1.82-1.67,3.46-2.56,4.93l-3.91-2.36v21.7h-10.54v1.71h-5.7v-31.67h4.44c.43-1.38.9-3.3,1.38-5.74l5.78.98c-.24,1.25-.65,2.84-1.22,4.76h5.86v5.5c.98-1.82,1.87-3.78,2.67-5.88.8-2.1,1.39-4.01,1.77-5.72l5.78,1.26c-.49,1.87-.96,3.46-1.42,4.76h9.81Zm-29.15,11.81h4.84v-6.07h-4.84v6.07Zm0,5.74v6.8h4.84v-6.8h-4.84Zm17.38,3.99c-.11-.16-.24-.36-.39-.59s-.32-.5-.51-.79c-2.12-3.26-3.66-5.52-4.64-6.8l4.44-3.26c1.17,1.52,2.33,3.11,3.5,4.76l2.6,3.58-5.01,3.09Z"/>
    <path class="cls-2" d="m1723.14,561.63c1.41-2.77,2.69-6.05,3.85-9.85,1.15-3.8,2.01-7.31,2.58-10.54l5.98,1.1c-.79,3.77-1.79,7.6-3.01,11.48-1.22,3.88-2.55,7.31-3.99,10.3l-5.41-2.48Zm14.17,3.05c.73,0,1.24-.06,1.53-.18.29-.12.47-.33.55-.63s.12-.81.12-1.55v-28.42h6.31v30.25c0,1.71-.24,3.03-.71,3.97-.48.94-1.22,1.59-2.24,1.97-1.02.38-2.41.57-4.17.57h-5.13l-1.22-5.98h4.97Zm16.37-23.98c1.49,3.83,4.06,10.81,7.69,20.96l-6.23,2.16c-.84-2.82-1.97-6.32-3.38-10.48s-2.67-7.75-3.79-10.77l5.7-1.87Z"/>
    <path class="cls-2" d="m1768.17,571v-35.99h29.84v35.95h-6.23v-2.32h-17.42v2.36h-6.19Zm23.61-22.02v-8.02h-17.42v8.02h17.42Zm-17.42,5.82v7.94h17.42v-7.94h-17.42Z"/>
    <path class="cls-2" d="m1834.93,555.2h-4.48v-1.95c-1.03,1-2.16,1.91-3.38,2.73h12.5v14.78h-4.88v-1.18h-15.18v1.22h-4.8v-14.82h11.48l-1.63-2.73-.41.57c-.19-.16-.75-.56-1.67-1.18v2.56h-4.48v-2.2c-1.25,1.22-2.52,2.25-3.83,3.09l-1.1-1.75c-.11,3.39-.43,6.33-.96,8.81s-1.42,5.14-2.67,7.96l-4.48-2.77c.9-1.93,1.56-3.69,2-5.29.43-1.6.74-3.4.92-5.39.18-2,.26-4.61.26-7.84v-15.02h33.14v4.52h-28.17v12.25c1.14-.62,2.22-1.41,3.26-2.36h-2.44v-3.54h4.07v-1.18l-3.79.29-.45-3.91c4.67-.22,8.48-.58,11.44-1.1l.57,3.95-3.3.37v1.59h3.58v3.54h-2.08c.92.52,1.75.99,2.48,1.42l-.77,1.06c1.19-.73,2.25-1.56,3.18-2.48h-1.91v-3.54h3.5v-1.18l-1.55.12-1.91.12-.49-3.87c1.87-.08,3.96-.24,6.27-.49,2.31-.24,4.36-.51,6.15-.81l.53,3.91c-.14.03-1.24.18-3.3.45l-1.22.12v1.63h5.37v3.54h-3.09c1.44,1.03,3.08,1.93,4.93,2.69l-1.99,3.95c-1.74-.87-3.47-2.08-5.21-3.62v2.97Zm-15.43,5.78h15.18v-1.14h-15.18v1.14Zm0,3.66v1.1h15.18v-1.1h-15.18Z"/>
  </g>
  <g>
    <path class="cls-9" d="m40.91,442.76v14.21h8.01v3.5h-11.86v-17.71h3.85Z"/>
    <path class="cls-9" d="m54.81,442.76v17.71h-3.85v-17.71h3.85Z"/>
    <path class="cls-9" d="m62.99,460.47l-6.56-17.71h4.14l4.31,12.45h.13l4.33-12.45h4.14l-6.56,17.71h-3.94Z"/>
    <path class="cls-9" d="m78.99,453.24v3.74h8.03v3.5h-11.88v-17.71h11.62v3.5h-7.77v3.48h7.35v3.5h-7.35Z"/>
    <path class="cls-9" d="m100.55,460.47l-4.6-17.71h4.03l2.84,11.99h.13l3.26-11.99h4.16l3.45,11.99h.13l2.84-11.99h4.03l-4.8,17.71h-3.94l-3.72-11.9h-.13l-3.74,11.9h-3.94Z"/>
    <path class="cls-9" d="m133.46,449.56v-6.8h3.87v17.71h-3.87v-7.33h-7.15v7.33h-3.85v-17.71h3.85v6.8h7.15Z"/>
    <path class="cls-9" d="m155.9,460.47h-4.09l-1.3-3.81h-6.18l-1.3,3.81h-4.07l6.49-17.71h3.94l6.51,17.71Zm-8.54-12.65l-1.8,5.24h3.72l-1.78-5.24h-.13Z"/>
    <path class="cls-9" d="m162.41,460.47h-3.85v-14.1h-4.84v-3.61h13.51v3.61h-4.82v14.1Z"/>
    <path class="cls-9" d="m182.3,453.54l-6.36-10.78h4.64l3.59,7.44h.13l3.59-7.44h4.66l-6.38,10.78v6.93h-3.87v-6.93Z"/>
    <path class="cls-9" d="m196.41,459.66c-1.23-.75-2.17-1.81-2.83-3.18s-.99-2.99-.99-4.85.33-3.48.99-4.86c.66-1.38,1.6-2.44,2.83-3.19,1.22-.75,2.67-1.12,4.32-1.12s3.09.37,4.31,1.12,2.16,1.81,2.82,3.19c.66,1.38.99,3,.99,4.86s-.33,3.48-.99,4.85c-.66,1.37-1.6,2.43-2.82,3.18s-2.65,1.12-4.31,1.12-3.1-.37-4.32-1.12Zm7.38-3.98c.75-1,1.12-2.35,1.12-4.05s-.37-3.05-1.12-4.06-1.77-1.51-3.06-1.51-2.31.5-3.07,1.51c-.76,1-1.13,2.36-1.13,4.06s.38,3.05,1.13,4.05c.76,1,1.78,1.5,3.07,1.5s2.31-.5,3.06-1.5Z"/>
    <path class="cls-9" d="m220.65,456.17c.57-.67.86-1.57.86-2.72v-10.69h3.85v10.85c0,1.47-.29,2.74-.86,3.83-.57,1.08-1.39,1.91-2.45,2.49-1.06.57-2.31.86-3.73.86s-2.68-.29-3.74-.86c-1.06-.57-1.87-1.4-2.44-2.47-.57-1.08-.86-2.36-.86-3.84v-10.85h3.85v10.6c0,1.17.29,2.1.86,2.78.57.68,1.35,1.02,2.33,1.02s1.76-.33,2.33-1Z"/>
    <path class="cls-9" d="m240.03,442.76v14.21h8.01v3.5h-11.86v-17.71h3.85Z"/>
    <path class="cls-9" d="m253.93,442.76v17.71h-3.85v-17.71h3.85Z"/>
    <path class="cls-9" d="m262.11,460.47l-6.56-17.71h4.14l4.31,12.45h.13l4.33-12.45h4.14l-6.56,17.71h-3.94Z"/>
    <path class="cls-9" d="m278.11,453.24v3.74h8.03v3.5h-11.88v-17.71h11.62v3.5h-7.77v3.48h7.35v3.5h-7.35Z"/>
    <path class="cls-9" d="m288.4,460.47v-17.71h6.23c1.89,0,3.51.36,4.86,1.08,1.35.72,2.38,1.74,3.08,3.07s1.06,2.9,1.06,4.72-.37,3.37-1.1,4.7c-.73,1.33-1.8,2.35-3.21,3.07-1.41.72-3.09,1.08-5.06,1.08h-5.85Zm5.87-3.61c1.72,0,3.05-.47,3.99-1.4.95-.93,1.42-2.21,1.42-3.84s-.45-2.93-1.36-3.86c-.91-.93-2.2-1.4-3.87-1.4h-2.2v10.49h2.02Z"/>
    <path class="cls-9" d="m305.76,464.21c1.01-.47,1.71-.96,2.1-1.48.39-.52.58-1.27.58-2.25h-2.31v-4.18h4.16v4.18c0,1.22-.27,2.27-.81,3.15s-1.47,1.62-2.77,2.22l-.95-1.63Z"/>
    <path class="cls-9" d="m324.79,442.76v17.71h-3.85v-17.71h3.85Z"/>
    <path class="cls-9" d="m331.52,460.47h-3.85v-17.71h3.54l6.89,10.45h.13v-10.45h3.85v17.71h-3.34l-7.08-10.45h-.13v10.45Z"/>
    <path class="cls-9" d="m346.66,459.58c-1.2-.8-2.1-1.86-2.71-3.18l3.34-1.56c.31.79.78,1.39,1.41,1.8.63.41,1.36.62,2.2.62s1.55-.16,2.07-.48c.51-.32.77-.74.77-1.25,0-.37-.1-.67-.29-.91s-.52-.47-.99-.67c-.47-.21-1.15-.43-2.05-.68-1.17-.34-2.15-.67-2.93-1.01-.78-.34-1.46-.86-2.06-1.57-.59-.71-.89-1.65-.89-2.83,0-1.03.29-1.95.87-2.77s1.37-1.46,2.38-1.92,2.12-.69,3.33-.69c3.07,0,5.27,1.39,6.62,4.18l-3.3,1.61c-.38-.79-.85-1.37-1.4-1.73-.55-.36-1.21-.54-1.97-.54s-1.35.16-1.85.48c-.5.32-.75.72-.75,1.19,0,.4.1.71.31.96.21.24.54.46,1,.66.46.2,1.15.42,2.06.67,1.16.32,2.13.65,2.9.98.78.33,1.46.85,2.05,1.56.59.71.88,1.65.88,2.83,0,1.1-.29,2.07-.87,2.89-.58.83-1.38,1.47-2.41,1.91-1.03.45-2.2.67-3.52.67-1.61,0-3.02-.4-4.22-1.2Z"/>
    <path class="cls-9" d="m363.82,442.76v17.71h-3.85v-17.71h3.85Z"/>
    <path class="cls-9" d="m371.29,447.54c-.76.98-1.13,2.35-1.13,4.09s.36,3.12,1.09,4.09c.73.97,1.75,1.45,3.07,1.45.62,0,1.17-.1,1.65-.3.48-.2.95-.53,1.39-1v-2.11h-3.74v-3.52h7.37v7.08c-.87,1.16-1.86,2.02-2.99,2.6-1.13.57-2.35.86-3.67.86-1.61,0-3.03-.37-4.26-1.12-1.23-.75-2.17-1.82-2.84-3.2-.67-1.39-1-3-1-4.83s.34-3.46,1.02-4.84c.68-1.38,1.64-2.45,2.88-3.2,1.24-.75,2.68-1.13,4.32-1.13,1.48,0,2.78.34,3.91,1.02,1.12.68,2.01,1.64,2.67,2.87l-2.99,2.13c-.38-.73-.9-1.32-1.56-1.76-.66-.44-1.33-.66-2.02-.66-1.35,0-2.4.49-3.16,1.47Z"/>
    <path class="cls-9" d="m394.75,449.56v-6.8h3.87v17.71h-3.87v-7.33h-7.15v7.33h-3.85v-17.71h3.85v6.8h7.15Z"/>
    <path class="cls-9" d="m409.34,460.47h-3.85v-14.1h-4.84v-3.61h13.51v3.61h-4.82v14.1Z"/>
    <path class="cls-9" d="m427.46,460.47l-4.6-17.71h4.03l2.84,11.99h.13l3.26-11.99h4.16l3.45,11.99h.13l2.84-11.99h4.03l-4.8,17.71h-3.94l-3.72-11.9h-.13l-3.74,11.9h-3.94Z"/>
    <path class="cls-9" d="m460.38,449.56v-6.8h3.87v17.71h-3.87v-7.33h-7.15v7.33h-3.85v-17.71h3.85v6.8h7.15Z"/>
    <path class="cls-9" d="m482.82,460.47h-4.09l-1.3-3.81h-6.18l-1.3,3.81h-4.07l6.49-17.71h3.94l6.51,17.71Zm-8.54-12.65l-1.8,5.24h3.72l-1.78-5.24h-.13Z"/>
    <path class="cls-9" d="m489.33,460.47h-3.85v-14.1h-4.84v-3.61h13.51v3.61h-4.82v14.1Z"/>
    <path class="cls-9" d="m507.44,459.66c-1.23-.75-2.17-1.81-2.83-3.18s-.99-2.99-.99-4.85.33-3.48.99-4.86c.66-1.38,1.6-2.44,2.83-3.19,1.22-.75,2.67-1.12,4.32-1.12s3.09.37,4.31,1.12,2.16,1.81,2.82,3.19c.66,1.38.99,3,.99,4.86s-.33,3.48-.99,4.85c-.66,1.37-1.6,2.43-2.82,3.18s-2.65,1.12-4.31,1.12-3.1-.37-4.32-1.12Zm7.38-3.98c.75-1,1.12-2.35,1.12-4.05s-.37-3.05-1.12-4.06-1.77-1.51-3.06-1.51-2.31.5-3.07,1.51c-.76,1-1.13,2.36-1.13,4.06s.38,3.05,1.13,4.05c.76,1,1.78,1.5,3.07,1.5s2.31-.5,3.06-1.5Z"/>
    <path class="cls-9" d="m529.48,460.47h-3.85v-14.1h-4.84v-3.61h13.51v3.61h-4.82v14.1Z"/>
    <path class="cls-9" d="m547.34,449.56v-6.8h3.87v17.71h-3.87v-7.33h-7.15v7.33h-3.85v-17.71h3.85v6.8h7.15Z"/>
    <path class="cls-9" d="m557.94,453.24v3.74h8.03v3.5h-11.88v-17.71h11.62v3.5h-7.77v3.48h7.35v3.5h-7.35Z"/>
    <path class="cls-9" d="m577.72,460.47l-3.19-6.16h-2.44v6.16h-3.85v-17.71h6.16c1.45,0,2.7.24,3.74.7,1.04.47,1.84,1.14,2.39,2,.55.87.83,1.88.83,3.06s-.26,2.19-.78,3.06c-.52.87-1.27,1.53-2.26,2l3.92,6.89h-4.51Zm-5.63-14.21v4.53h1.76c1.14,0,2.02-.19,2.64-.58.62-.39.92-.95.92-1.68s-.31-1.29-.92-1.68c-.62-.39-1.5-.58-2.64-.58h-1.76Z"/>
    <path class="cls-9" d="m585.53,459.58c-1.2-.8-2.1-1.86-2.71-3.18l3.34-1.56c.31.79.78,1.39,1.41,1.8.63.41,1.36.62,2.2.62s1.55-.16,2.07-.48c.51-.32.77-.74.77-1.25,0-.37-.1-.67-.29-.91s-.52-.47-.99-.67c-.47-.21-1.15-.43-2.05-.68-1.17-.34-2.15-.67-2.93-1.01-.78-.34-1.46-.86-2.06-1.57-.59-.71-.89-1.65-.89-2.83,0-1.03.29-1.95.87-2.77s1.37-1.46,2.38-1.92,2.12-.69,3.33-.69c3.07,0,5.27,1.39,6.62,4.18l-3.3,1.61c-.38-.79-.85-1.37-1.4-1.73-.55-.36-1.21-.54-1.97-.54s-1.35.16-1.85.48c-.5.32-.75.72-.75,1.19,0,.4.1.71.31.96.21.24.54.46,1,.66.46.2,1.15.42,2.06.67,1.16.32,2.13.65,2.9.98.78.33,1.46.85,2.05,1.56.59.71.88,1.65.88,2.83,0,1.1-.29,2.07-.87,2.89-.58.83-1.38,1.47-2.41,1.91-1.03.45-2.2.67-3.52.67-1.61,0-3.02-.4-4.22-1.2Z"/>
    <path class="cls-9" d="m608.43,459.58c-1.2-.8-2.1-1.86-2.71-3.18l3.34-1.56c.31.79.78,1.39,1.41,1.8.63.41,1.36.62,2.2.62s1.55-.16,2.07-.48c.51-.32.77-.74.77-1.25,0-.37-.1-.67-.29-.91s-.52-.47-.99-.67c-.47-.21-1.15-.43-2.05-.68-1.17-.34-2.15-.67-2.93-1.01-.78-.34-1.46-.86-2.06-1.57-.59-.71-.89-1.65-.89-2.83,0-1.03.29-1.95.87-2.77s1.37-1.46,2.38-1.92,2.12-.69,3.33-.69c3.07,0,5.27,1.39,6.62,4.18l-3.3,1.61c-.38-.79-.85-1.37-1.4-1.73-.55-.36-1.21-.54-1.97-.54s-1.35.16-1.85.48c-.5.32-.75.72-.75,1.19,0,.4.1.71.31.96.21.24.54.46,1,.66.46.2,1.15.42,2.06.67,1.16.32,2.13.65,2.9.98.78.33,1.46.85,2.05,1.56.59.71.88,1.65.88,2.83,0,1.1-.29,2.07-.87,2.89-.58.83-1.38,1.47-2.41,1.91-1.03.45-2.2.67-3.52.67-1.61,0-3.02-.4-4.22-1.2Z"/>
    <path class="cls-9" d="m625.59,442.76v17.71h-3.85v-17.71h3.85Z"/>
    <path class="cls-9" d="m633.06,447.54c-.76.98-1.13,2.35-1.13,4.09s.36,3.12,1.09,4.09c.73.97,1.75,1.45,3.07,1.45.62,0,1.17-.1,1.65-.3.48-.2.95-.53,1.39-1v-2.11h-3.74v-3.52h7.37v7.08c-.87,1.16-1.86,2.02-2.99,2.6-1.13.57-2.35.86-3.67.86-1.61,0-3.03-.37-4.26-1.12-1.23-.75-2.17-1.82-2.84-3.2-.67-1.39-1-3-1-4.83s.34-3.46,1.02-4.84c.68-1.38,1.64-2.45,2.88-3.2,1.24-.75,2.68-1.13,4.32-1.13,1.48,0,2.78.34,3.91,1.02,1.12.68,2.01,1.64,2.67,2.87l-2.99,2.13c-.38-.73-.9-1.32-1.56-1.76-.66-.44-1.33-.66-2.02-.66-1.35,0-2.4.49-3.16,1.47Z"/>
    <path class="cls-9" d="m656.52,449.56v-6.8h3.87v17.71h-3.87v-7.33h-7.15v7.33h-3.85v-17.71h3.85v6.8h7.15Z"/>
    <path class="cls-9" d="m671.11,460.47h-3.85v-14.1h-4.84v-3.61h13.51v3.61h-4.82v14.1Z"/>
    <path class="cls-9" d="m677.8,460.47v-4.18h4.16v4.18h-4.16Z"/>
  </g>
  <rect class="cls-10" x="37.61" y="58.61" width="22.18" height="22.18" rx="4" ry="4"/>
  <rect class="cls-13" x="37.61" y="100.05" width="22.18" height="22.18" rx="4" ry="4"/>
  <rect class="cls-10" x="37.61" y="141.5" width="22.18" height="22.18" rx="4" ry="4"/>
  <rect class="cls-13" x="37.61" y="182.94" width="22.18" height="22.18" rx="4" ry="4"/>
  <rect class="cls-2" x="1535.09" y="554.78" width="5.77" height="25.98" transform="translate(970.21 2105.74) rotate(-90)"/>
  <path class="cls-15" d="m43.64,74.25v-9.1c0-.11.06-.17.17-.17h1.47c.09,0,.15.04.2.12l3.26,5.42,3.22-5.42c.05-.08.11-.12.2-.12h1.44c.11,0,.17.06.17.17v9.1c0,.11-.06.17-.17.17h-1.34c-.09,0-.17-.06-.17-.17v-6.37l-2.77,4.63c-.04.07-.09.11-.19.11h-.87c-.09,0-.15-.04-.2-.11l-2.76-4.57v6.31c0,.11-.06.17-.17.17h-1.33c-.11,0-.17-.06-.17-.17Z"/>
  <path class="cls-15" d="m44.05,158.45v-10.77c0-.15.08-.25.24-.25h4.17c3.64,0,5.72,1.98,5.72,5.64s-2.08,5.64-5.72,5.64h-4.17c-.15,0-.24-.1-.24-.25Zm7.2-5.39c0-2.01-1.08-2.99-3.07-2.99h-1.3v5.98h1.3c1.99,0,3.07-.98,3.07-2.99Z"/>
  <rect class="cls-14" x="1307.19" y="604.31" width="12.61" height="12.61" rx="1.68" ry="1.68"/>
  <g>
    <path class="cls-8" d="m344.55,167.22l-.85-1.48,8.65-5-1.73-3,1.39-.8,4.31,7.47-1.39.8-1.73-2.99-8.65,5Z"/>
    <path class="cls-8" d="m346.32,170.27l7.13-4.15.84,1.46-1.34.77.04.06c.64,0,1.23.14,1.75.44.52.3.96.74,1.3,1.33l.04.08-1.47.85-.07-.12c-.49-.85-1.05-1.4-1.69-1.66s-1.24-.22-1.82.12l-3.9,2.25-.83-1.43Z"/>
    <path class="cls-8" d="m349.78,175.44c.13-.62.5-1.1,1.12-1.46.77-.44,1.53-.48,2.29-.11.75.37,1.45,1.12,2.1,2.24l.52.91.45-.26c.44-.25.71-.59.82-1,.1-.41.03-.84-.23-1.28-.33-.57-.91-.98-1.73-1.22l.32-1.36c1.21.28,2.12.94,2.72,1.98.48.84.64,1.64.46,2.41-.18.77-.66,1.38-1.44,1.83l-4.75,2.75-.82-1.42.95-.55-.04-.08c-.45.02-.89-.1-1.31-.37s-.76-.62-1.02-1.06c-.4-.68-.53-1.33-.4-1.95Zm2.48,2.32c.27.22.59.35.93.4s.69-.03,1.04-.23l.34-.19-.4-.69c-.45-.77-.86-1.29-1.24-1.56s-.75-.3-1.1-.1c-.26.15-.41.37-.45.67-.04.3.04.62.24.96.16.28.38.52.65.74Z"/>
    <path class="cls-8" d="m353.4,182.54l7.15-4.12.82,1.42-.99.57.04.06c.48.01.94.15,1.37.41.43.26.78.61,1.03,1.04.45.77.55,1.51.32,2.22-.23.71-.79,1.31-1.66,1.82l-4.57,2.64-.82-1.42,4.31-2.49c.51-.29.84-.67.99-1.12s.1-.9-.15-1.33c-.3-.52-.71-.84-1.23-.97-.52-.13-1.05-.03-1.61.29l-4.17,2.41-.82-1.42Z"/>
    <path class="cls-8" d="m358.52,190.77c.01-.68.21-1.3.58-1.85l1.3.84c-.24.37-.36.76-.38,1.18-.01.42.09.82.32,1.21.23.4.48.66.76.8.28.13.55.12.81-.02.25-.15.39-.38.42-.7.03-.32-.05-.78-.23-1.38-.29-.96-.39-1.76-.29-2.38s.42-1.1.97-1.42c.68-.4,1.37-.46,2.05-.21.69.26,1.27.8,1.74,1.62.36.63.54,1.27.53,1.91-.01.64-.19,1.25-.54,1.83l-1.32-.76c.22-.4.33-.8.35-1.19.02-.39-.07-.75-.26-1.08-.22-.38-.48-.64-.77-.77-.29-.13-.58-.12-.84.04-.24.14-.37.39-.4.74s.06.84.26,1.45c.58,1.85.35,3.07-.69,3.67-.68.39-1.36.45-2.05.19-.69-.27-1.27-.81-1.75-1.63-.4-.7-.6-1.39-.58-2.08Z"/>
    <path class="cls-8" d="m371.66,190.97l.82,1.42-8.29,4.78c-.34.2-.41.46-.21.8l.2.35-1.34.77-.42-.73c-.29-.51-.4-.97-.3-1.37.09-.4.37-.73.84-1l8.7-5.02Z"/>
    <path class="cls-8" d="m370.17,204.43l-2.81-4.87c-.6.44-.98.94-1.15,1.49-.17.55-.08,1.12.25,1.7.2.34.47.6.81.79.35.19.74.29,1.19.3l.02,1.51c-.68.01-1.31-.14-1.86-.45s-1.02-.8-1.4-1.44c-.41-.71-.61-1.41-.61-2.11,0-.69.2-1.34.6-1.95s.97-1.12,1.72-1.56c.77-.44,1.52-.7,2.25-.76s1.39.07,1.99.4c.6.32,1.09.82,1.48,1.5.56.96.71,1.89.46,2.77s-.86,1.62-1.84,2.18c-.41.24-.77.4-1.1.5Zm.45-2.04c.54-.31.88-.71,1.02-1.2s.07-.99-.22-1.5c-.28-.48-.66-.78-1.14-.92-.49-.13-1.04-.09-1.67.13l2.01,3.48Z"/>
    <path class="cls-8" d="m367.96,207.77l7.15-4.12.82,1.42-.99.57.04.06c.48.01.94.15,1.37.41.43.26.78.61,1.03,1.04.45.77.55,1.51.32,2.22-.23.71-.79,1.31-1.66,1.82l-4.57,2.64-.82-1.42,4.31-2.49c.51-.29.84-.67.99-1.12s.1-.9-.15-1.33c-.3-.52-.71-.84-1.23-.97-.52-.13-1.05-.03-1.61.29l-4.17,2.41-.82-1.42Z"/>
    <path class="cls-8" d="m376.06,221.79l-.82-1.42.96-.55-.04-.08c-.49-.02-.94-.14-1.35-.38-.4-.24-.73-.58-.99-1.02-.34-.59-.48-1.21-.42-1.85.06-.65.3-1.27.73-1.86s1.02-1.11,1.76-1.54c.72-.42,1.43-.66,2.14-.72s1.35.04,1.92.32c.57.28,1.03.71,1.36,1.29.25.42.37.88.37,1.35,0,.48-.1.95-.32,1.41l.04.08,3.87-2.23.82,1.42-10.04,5.8Zm4.21-4.96c.24-.6.2-1.18-.12-1.73-.32-.56-.81-.89-1.45-.99-.64-.1-1.32.06-2.03.47-.47.27-.84.59-1.1.97-.27.37-.42.77-.45,1.18-.03.41.06.8.28,1.17.31.55.79.86,1.43.94.64.08,1.31-.08,2.02-.49.71-.41,1.19-.92,1.43-1.52Z"/>
    <path class="cls-8" d="m377.59,223.61c.13-.62.5-1.1,1.12-1.46.77-.44,1.53-.48,2.29-.11.75.37,1.45,1.12,2.1,2.24l.52.91.45-.26c.44-.25.71-.59.82-1,.1-.41.03-.84-.23-1.28-.33-.57-.91-.98-1.73-1.22l.32-1.36c1.21.28,2.12.94,2.72,1.98.48.84.64,1.64.46,2.41-.18.77-.66,1.38-1.44,1.83l-4.75,2.75-.82-1.42.95-.55-.04-.08c-.45.02-.89-.1-1.31-.37s-.76-.62-1.02-1.06c-.4-.68-.53-1.33-.4-1.95Zm2.48,2.32c.27.22.59.35.93.4s.69-.03,1.04-.23l.34-.19-.4-.69c-.45-.77-.86-1.29-1.24-1.56s-.75-.3-1.1-.1c-.26.15-.41.37-.45.67-.04.3.04.62.24.96.16.28.38.52.65.74Z"/>
    <path class="cls-8" d="m381.24,230.76l7.13-4.15.84,1.46-1.34.77.04.06c.64,0,1.23.14,1.75.44.52.3.96.74,1.3,1.33l.04.08-1.47.85-.07-.12c-.49-.85-1.05-1.4-1.69-1.66s-1.24-.22-1.82.12l-3.9,2.25-.83-1.43Z"/>
    <path class="cls-8" d="m396.94,238.64c-.58-.28-1.23-.38-1.95-.3-.72.08-1.47.34-2.24.79-.78.45-1.39.96-1.82,1.54-.44.57-.68,1.18-.73,1.8-.05.63.1,1.24.45,1.85.27.47.6.83.99,1.08.39.25.85.44,1.37.55l1.83-1.06-1.33-2.3,1.38-.79,2.16,3.74-3.74,2.16c-.9-.12-1.69-.39-2.37-.82s-1.24-1.02-1.67-1.76c-.52-.91-.77-1.82-.74-2.74s.34-1.79.91-2.61c.57-.82,1.38-1.53,2.43-2.14,1.06-.61,2.08-.96,3.08-1.04,1-.08,1.91.1,2.73.54.82.44,1.5,1.13,2.04,2.06.44.76.66,1.54.67,2.34,0,.8-.19,1.55-.57,2.26l-1.49-.7c.25-.5.38-1.04.38-1.6,0-.56-.12-1.06-.38-1.51-.35-.62-.82-1.06-1.4-1.35Z"/>
    <path class="cls-8" d="m400.65,247.88l-7.14,4.12-.82-1.42,7.15-4.13.82,1.42Zm1.65-1.03c-.26-.07-.47-.25-.63-.53-.16-.27-.2-.53-.12-.79.07-.26.25-.46.52-.62.28-.16.54-.21.8-.14.26.07.46.23.62.5.16.28.21.55.14.81-.07.26-.24.48-.52.64-.28.16-.55.2-.81.13Z"/>
    <path class="cls-8" d="m402.66,254.45l-1.15-1.99-3.62,2.09c-.35.2-.56.45-.64.74-.08.3-.03.61.17.95.14.24.33.47.59.68l-1.32.77c-.3-.26-.57-.59-.79-.98-.41-.7-.52-1.35-.34-1.95.18-.6.64-1.11,1.37-1.54l3.78-2.18-.65-1.12,1.34-.77.65,1.12,2.18-1.26.82,1.42-2.18,1.26,1.15,1.99-1.34.77Z"/>
    <path class="cls-8" d="m397.51,258.94l10.04-5.8.82,1.42-3.88,2.24.04.06c.48.01.94.15,1.37.41.43.26.78.61,1.03,1.04.45.77.55,1.51.32,2.22-.23.71-.79,1.31-1.66,1.82l-4.57,2.64-.82-1.42,4.31-2.49c.51-.29.84-.67.99-1.12s.1-.9-.15-1.33c-.3-.52-.71-.84-1.23-.97-.52-.13-1.05-.03-1.61.29l-4.17,2.41-.82-1.42Z"/>
    <path class="cls-8" d="m412.59,268.56l-7.15,4.12-.82-1.42.96-.56-.04-.08c-.47-.02-.92-.16-1.35-.42-.43-.27-.77-.61-1.02-1.05-.44-.76-.55-1.5-.32-2.21.23-.71.77-1.31,1.64-1.81l4.6-2.66.82,1.43-4.33,2.5c-.51.29-.84.67-.99,1.13s-.1.9.15,1.34c.3.52.71.84,1.23.97.52.13,1.05.03,1.61-.29l4.2-2.42.82,1.42Z"/>
    <path class="cls-8" d="m406.47,274.46l10.04-5.8.82,1.42-3.86,2.23.04.06c.5.05.96.2,1.37.46.41.26.74.6.99,1.02.33.58.48,1.18.44,1.81-.04.62-.27,1.22-.67,1.79-.41.57-.96,1.06-1.67,1.47-.75.44-1.5.7-2.23.79-.73.09-1.39,0-1.98-.26-.58-.26-1.04-.68-1.38-1.26-.26-.45-.4-.92-.41-1.39-.01-.48.1-.94.32-1.4l-.04-.06-.96.56-.82-1.42Zm2.93.81c-.24.6-.21,1.16.1,1.7.33.57.82.91,1.47,1.01.65.1,1.33-.05,2.04-.46.46-.27.82-.58,1.1-.95s.43-.76.46-1.16c.04-.4-.05-.79-.26-1.15s-.5-.63-.87-.8c-.37-.17-.78-.23-1.24-.18-.46.05-.91.21-1.37.47-.71.41-1.19.91-1.43,1.51Z"/>
    <path class="cls-8" d="m424.73,282.89l-8.68,5.01,2.81,4.86-1.36.79-3.65-6.33,10.04-5.8.85,1.47Z"/>
    <path class="cls-8" d="m426.22,292.17l-7.14,4.12-.82-1.42,7.15-4.12.82,1.42Zm1.65-1.03c-.26-.07-.47-.25-.63-.53-.16-.27-.2-.53-.12-.79.07-.26.25-.46.52-.62.28-.16.54-.21.8-.14.26.07.46.23.62.5.16.28.21.55.14.81-.07.26-.24.48-.52.64-.28.16-.55.2-.81.13Z"/>
    <path class="cls-8" d="m420.18,298.21l10.04-5.8.82,1.42-3.86,2.23.04.06c.5.05.96.2,1.37.46.41.26.74.6.99,1.02.33.58.48,1.18.44,1.81-.04.62-.27,1.22-.67,1.79-.41.57-.96,1.06-1.67,1.47-.75.44-1.5.7-2.23.79-.73.09-1.39,0-1.98-.26-.58-.26-1.04-.68-1.38-1.26-.26-.45-.4-.92-.41-1.39-.01-.48.1-.94.32-1.4l-.04-.06-.96.56-.82-1.42Zm2.93.81c-.24.6-.21,1.16.1,1.7.33.57.82.91,1.47,1.01.65.1,1.33-.05,2.04-.46.46-.27.82-.58,1.1-.95s.43-.76.46-1.16c.04-.4-.05-.79-.26-1.15s-.5-.63-.87-.8c-.37-.17-.78-.23-1.24-.18-.46.05-.91.21-1.37.47-.71.41-1.19.91-1.43,1.51Z"/>
  </g>
</svg>