<?xml version="1.0" encoding="UTF-8"?>
<svg id="_图层_1" data-name="图层 1" xmlns="http://www.w3.org/2000/svg" viewBox="0 0 1932.6255 680">
  <defs>
    <style>
      .cls-1 {
        letter-spacing: -.03em;
      }

      .cls-2, .cls-3, .cls-4 {
        fill: #3e78a3;
      }

      .cls-5 {
        fill: #c1bfb8;
      }

      .cls-3, .cls-6, .cls-4, .cls-7, .cls-8, .cls-9 {
        stroke-miterlimit: 10;
      }

      .cls-3, .cls-4 {
        stroke: #22272e;
      }

      .cls-6 {
        stroke: #d3688c;
      }

      .cls-6, .cls-7, .cls-9 {
        stroke-width: 3.5px;
      }

      .cls-10, .cls-11 {
        fill: #3d4651;
      }

      .cls-11 {
        font-family: MiSans-Medium, MiSans;
        font-size: 15px;
        font-weight: 500;
      }

      .cls-12 {
        letter-spacing: -.05em;
      }

      .cls-13 {
        fill: #30a1aa;
      }

      .cls-14 {
        fill: #8e5b72;
      }

      .cls-4 {
        font-size: 40.7085px;
      }

      .cls-4, .cls-15 {
        font-family: MiSans-Bold, MiSans;
        font-weight: 700;
      }

      .cls-7 {
        stroke: #fff;
      }

      .cls-8 {
        fill: none;
        stroke: #3d4651;
      }

      .cls-16 {
        fill: #3e7e7f;
      }

      .cls-15 {
        fill: #ba7b8c;
        font-size: 22px;
      }

      .cls-17 {
        fill: #d3688c;
      }

      .cls-18 {
        fill: #22272e;
      }

      .cls-19 {
        letter-spacing: -.134em;
      }

      .cls-9 {
        stroke: #30a1aa;
      }

      .cls-20 {
        fill: #298c8e;
      }
    </style>
  </defs>
  <g>
    <g>
      <rect class="cls-8" x="1893.2832" y="413.0163" width="36.8234" height="36.8234"/>
      <circle class="cls-2" cx="1893.2832" cy="413.0163" r="2.519"/>
      <circle class="cls-2" cx="1930.1066" cy="413.0163" r="2.519"/>
      <circle class="cls-2" cx="1930.1066" cy="449.8397" r="2.519"/>
      <circle class="cls-2" cx="1893.2832" cy="449.8397" r="2.519"/>
    </g>
    <g>
      <rect class="cls-8" x="1856.4598" y="413.0163" width="36.8234" height="36.8234"/>
      <circle class="cls-2" cx="1856.4598" cy="413.0163" r="2.519"/>
      <circle class="cls-2" cx="1893.2832" cy="413.0163" r="2.519"/>
      <circle class="cls-2" cx="1893.2832" cy="449.8397" r="2.519"/>
      <circle class="cls-2" cx="1856.4598" cy="449.8397" r="2.519"/>
    </g>
    <g>
      <rect class="cls-8" x="1819.6365" y="413.0163" width="36.8234" height="36.8234"/>
      <circle class="cls-2" cx="1819.6365" cy="413.0163" r="2.519"/>
      <circle class="cls-2" cx="1856.4598" cy="413.0163" r="2.519"/>
      <circle class="cls-2" cx="1856.4598" cy="449.8397" r="2.519"/>
      <circle class="cls-2" cx="1819.6365" cy="449.8397" r="2.519"/>
    </g>
    <g>
      <rect class="cls-8" x="1782.8131" y="413.0163" width="36.8234" height="36.8234"/>
      <circle class="cls-2" cx="1782.8131" cy="413.0163" r="2.519"/>
      <circle class="cls-2" cx="1819.6365" cy="413.0163" r="2.519"/>
      <circle class="cls-2" cx="1819.6365" cy="449.8397" r="2.519"/>
      <circle class="cls-2" cx="1782.8131" cy="449.8397" r="2.519"/>
    </g>
    <g>
      <rect class="cls-8" x="1745.9897" y="413.0163" width="36.8234" height="36.8234"/>
      <circle class="cls-2" cx="1745.9897" cy="413.0163" r="2.519"/>
      <circle class="cls-2" cx="1782.8131" cy="413.0163" r="2.519"/>
      <circle class="cls-2" cx="1782.8131" cy="449.8397" r="2.519"/>
      <circle class="cls-2" cx="1745.9897" cy="449.8397" r="2.519"/>
    </g>
    <g>
      <rect class="cls-8" x="1709.1664" y="413.0163" width="36.8234" height="36.8234"/>
      <circle class="cls-2" cx="1709.1664" cy="413.0163" r="2.519"/>
      <circle class="cls-2" cx="1745.9897" cy="413.0163" r="2.519"/>
      <circle class="cls-2" cx="1745.9897" cy="449.8397" r="2.519"/>
      <circle class="cls-2" cx="1709.1664" cy="449.8397" r="2.519"/>
    </g>
    <g>
      <rect class="cls-8" x="1672.343" y="413.0163" width="36.8234" height="36.8234"/>
      <circle class="cls-2" cx="1672.343" cy="413.0163" r="2.519"/>
      <circle class="cls-2" cx="1709.1664" cy="413.0163" r="2.519"/>
      <circle class="cls-2" cx="1709.1664" cy="449.8397" r="2.519"/>
      <circle class="cls-2" cx="1672.343" cy="449.8397" r="2.519"/>
    </g>
    <g>
      <rect class="cls-8" x="1635.5196" y="413.0163" width="36.8234" height="36.8234"/>
      <circle class="cls-2" cx="1635.5196" cy="413.0163" r="2.519"/>
      <circle class="cls-2" cx="1672.343" cy="413.0163" r="2.519"/>
      <circle class="cls-2" cx="1672.343" cy="449.8397" r="2.519"/>
      <circle class="cls-2" cx="1635.5196" cy="449.8397" r="2.519"/>
    </g>
    <g>
      <rect class="cls-8" x="1598.6963" y="413.0163" width="36.8234" height="36.8234"/>
      <circle class="cls-2" cx="1598.6963" cy="413.0163" r="2.519"/>
      <circle class="cls-2" cx="1635.5196" cy="413.0163" r="2.519"/>
      <circle class="cls-2" cx="1635.5196" cy="449.8397" r="2.519"/>
      <circle class="cls-2" cx="1598.6963" cy="449.8397" r="2.519"/>
    </g>
    <g>
      <rect class="cls-8" x="1561.8729" y="413.0163" width="36.8234" height="36.8234"/>
      <circle class="cls-2" cx="1561.8729" cy="413.0163" r="2.519"/>
      <circle class="cls-2" cx="1598.6963" cy="413.0163" r="2.519"/>
      <circle class="cls-2" cx="1598.6963" cy="449.8397" r="2.519"/>
      <circle class="cls-2" cx="1561.8729" cy="449.8397" r="2.519"/>
    </g>
    <g>
      <rect class="cls-8" x="1525.0495" y="413.0163" width="36.8234" height="36.8234"/>
      <circle class="cls-2" cx="1525.0495" cy="413.0163" r="2.519"/>
      <circle class="cls-2" cx="1561.8729" cy="413.0163" r="2.519"/>
      <circle class="cls-2" cx="1561.8729" cy="449.8397" r="2.519"/>
      <circle class="cls-2" cx="1525.0495" cy="449.8397" r="2.519"/>
    </g>
    <g>
      <rect class="cls-8" x="1488.2262" y="413.0163" width="36.8234" height="36.8234"/>
      <circle class="cls-2" cx="1488.2262" cy="413.0163" r="2.519"/>
      <circle class="cls-2" cx="1525.0495" cy="413.0163" r="2.519"/>
      <circle class="cls-2" cx="1525.0495" cy="449.8397" r="2.519"/>
      <circle class="cls-2" cx="1488.2262" cy="449.8397" r="2.519"/>
    </g>
    <g>
      <rect class="cls-8" x="1451.4028" y="413.0163" width="36.8234" height="36.8234"/>
      <circle class="cls-2" cx="1451.4028" cy="413.0163" r="2.519"/>
      <circle class="cls-2" cx="1488.2262" cy="413.0163" r="2.519"/>
      <circle class="cls-2" cx="1488.2262" cy="449.8397" r="2.519"/>
      <circle class="cls-2" cx="1451.4028" cy="449.8397" r="2.519"/>
    </g>
    <g>
      <rect class="cls-8" x="1414.5794" y="413.0163" width="36.8234" height="36.8234"/>
      <circle class="cls-2" cx="1414.5794" cy="413.0163" r="2.519"/>
      <circle class="cls-2" cx="1451.4028" cy="413.0163" r="2.519"/>
      <circle class="cls-2" cx="1451.4028" cy="449.8397" r="2.519"/>
      <circle class="cls-2" cx="1414.5794" cy="449.8397" r="2.519"/>
    </g>
    <g>
      <rect class="cls-8" x="1377.7561" y="413.0163" width="36.8234" height="36.8234"/>
      <circle class="cls-2" cx="1377.7561" cy="413.0163" r="2.519"/>
      <circle class="cls-2" cx="1414.5794" cy="413.0163" r="2.519"/>
      <circle class="cls-2" cx="1414.5794" cy="449.8397" r="2.519"/>
      <circle class="cls-2" cx="1377.7561" cy="449.8397" r="2.519"/>
    </g>
    <g>
      <rect class="cls-8" x="1340.9327" y="413.0163" width="36.8234" height="36.8234"/>
      <circle class="cls-2" cx="1340.9327" cy="413.0163" r="2.519"/>
      <circle class="cls-2" cx="1377.7561" cy="413.0163" r="2.519"/>
      <circle class="cls-2" cx="1377.7561" cy="449.8397" r="2.519"/>
      <circle class="cls-2" cx="1340.9327" cy="449.8397" r="2.519"/>
    </g>
    <g>
      <rect class="cls-8" x="1304.1093" y="413.0163" width="36.8234" height="36.8234"/>
      <circle class="cls-2" cx="1304.1093" cy="413.0163" r="2.519"/>
      <circle class="cls-2" cx="1340.9327" cy="413.0163" r="2.519"/>
      <circle class="cls-2" cx="1340.9327" cy="449.8397" r="2.519"/>
      <circle class="cls-2" cx="1304.1093" cy="449.8397" r="2.519"/>
    </g>
    <g>
      <rect class="cls-8" x="1267.286" y="413.0163" width="36.8234" height="36.8234"/>
      <circle class="cls-2" cx="1267.286" cy="413.0163" r="2.519"/>
      <circle class="cls-2" cx="1304.1093" cy="413.0163" r="2.519"/>
      <circle class="cls-2" cx="1304.1093" cy="449.8397" r="2.519"/>
      <circle class="cls-2" cx="1267.286" cy="449.8397" r="2.519"/>
    </g>
    <g>
      <rect class="cls-8" x="1230.4626" y="413.0163" width="36.8234" height="36.8234"/>
      <circle class="cls-2" cx="1230.4626" cy="413.0163" r="2.519"/>
      <circle class="cls-2" cx="1267.286" cy="413.0163" r="2.519"/>
      <circle class="cls-2" cx="1267.286" cy="449.8397" r="2.519"/>
      <circle class="cls-2" cx="1230.4626" cy="449.8397" r="2.519"/>
    </g>
    <g>
      <rect class="cls-8" x="1193.6392" y="413.0163" width="36.8234" height="36.8234"/>
      <circle class="cls-2" cx="1193.6392" cy="413.0163" r="2.519"/>
      <circle class="cls-2" cx="1230.4626" cy="413.0163" r="2.519"/>
      <circle class="cls-2" cx="1230.4626" cy="449.8397" r="2.519"/>
      <circle class="cls-2" cx="1193.6392" cy="449.8397" r="2.519"/>
    </g>
    <g>
      <rect class="cls-8" x="1156.8159" y="413.0163" width="36.8234" height="36.8234"/>
      <circle class="cls-2" cx="1156.8159" cy="413.0163" r="2.519"/>
      <circle class="cls-2" cx="1193.6392" cy="413.0163" r="2.519"/>
      <circle class="cls-2" cx="1193.6392" cy="449.8397" r="2.519"/>
      <circle class="cls-2" cx="1156.8159" cy="449.8397" r="2.519"/>
    </g>
    <g>
      <rect class="cls-8" x="1119.9925" y="413.0163" width="36.8234" height="36.8234"/>
      <circle class="cls-2" cx="1119.9925" cy="413.0163" r="2.519"/>
      <circle class="cls-2" cx="1156.8159" cy="413.0163" r="2.519"/>
      <circle class="cls-2" cx="1156.8159" cy="449.8397" r="2.519"/>
      <circle class="cls-2" cx="1119.9925" cy="449.8397" r="2.519"/>
    </g>
    <g>
      <rect class="cls-8" x="1083.1691" y="413.0163" width="36.8234" height="36.8234"/>
      <circle class="cls-2" cx="1083.1691" cy="413.0163" r="2.519"/>
      <circle class="cls-2" cx="1119.9925" cy="413.0163" r="2.519"/>
      <circle class="cls-2" cx="1119.9925" cy="449.8397" r="2.519"/>
      <circle class="cls-2" cx="1083.1691" cy="449.8397" r="2.519"/>
    </g>
    <g>
      <rect class="cls-8" x="1046.3458" y="413.0163" width="36.8234" height="36.8234"/>
      <circle class="cls-2" cx="1046.3458" cy="413.0163" r="2.519"/>
      <circle class="cls-2" cx="1083.1691" cy="413.0163" r="2.519"/>
      <circle class="cls-2" cx="1083.1691" cy="449.8397" r="2.519"/>
      <circle class="cls-2" cx="1046.3458" cy="449.8397" r="2.519"/>
    </g>
    <g>
      <rect class="cls-8" x="1009.5224" y="413.0163" width="36.8234" height="36.8234"/>
      <circle class="cls-2" cx="1009.5224" cy="413.0163" r="2.519"/>
      <circle class="cls-2" cx="1046.3458" cy="413.0163" r="2.519"/>
      <circle class="cls-2" cx="1046.3458" cy="449.8397" r="2.519"/>
      <circle class="cls-2" cx="1009.5224" cy="449.8397" r="2.519"/>
    </g>
    <g>
      <rect class="cls-8" x="972.699" y="413.0163" width="36.8234" height="36.8234"/>
      <circle class="cls-2" cx="972.699" cy="413.0163" r="2.519"/>
      <circle class="cls-2" cx="1009.5224" cy="413.0163" r="2.519"/>
      <circle class="cls-2" cx="1009.5224" cy="449.8397" r="2.519"/>
      <circle class="cls-2" cx="972.699" cy="449.8397" r="2.519"/>
    </g>
    <g>
      <rect class="cls-8" x="935.8757" y="413.0163" width="36.8234" height="36.8234"/>
      <circle class="cls-2" cx="935.8757" cy="413.0163" r="2.519"/>
      <circle class="cls-2" cx="972.699" cy="413.0163" r="2.519"/>
      <circle class="cls-2" cx="972.699" cy="449.8397" r="2.519"/>
      <circle class="cls-2" cx="935.8757" cy="449.8397" r="2.519"/>
    </g>
    <g>
      <rect class="cls-8" x="899.0523" y="413.0163" width="36.8234" height="36.8234"/>
      <circle class="cls-2" cx="899.0523" cy="413.0163" r="2.519"/>
      <circle class="cls-2" cx="935.8757" cy="413.0163" r="2.519"/>
      <circle class="cls-2" cx="935.8757" cy="449.8397" r="2.519"/>
      <circle class="cls-2" cx="899.0523" cy="449.8397" r="2.519"/>
    </g>
  </g>
  <g>
    <g>
      <rect class="cls-8" x="1893.2832" y="376.193" width="36.8234" height="36.8234"/>
      <circle class="cls-2" cx="1893.2832" cy="376.193" r="2.519"/>
      <circle class="cls-2" cx="1930.1066" cy="376.193" r="2.519"/>
      <circle class="cls-2" cx="1930.1066" cy="413.0163" r="2.519"/>
      <circle class="cls-2" cx="1893.2832" cy="413.0163" r="2.519"/>
    </g>
    <g>
      <rect class="cls-8" x="1856.4598" y="376.193" width="36.8234" height="36.8234"/>
      <circle class="cls-2" cx="1856.4598" cy="376.193" r="2.519"/>
      <circle class="cls-2" cx="1893.2832" cy="376.193" r="2.519"/>
      <circle class="cls-2" cx="1893.2832" cy="413.0163" r="2.519"/>
      <circle class="cls-2" cx="1856.4598" cy="413.0163" r="2.519"/>
    </g>
    <g>
      <rect class="cls-8" x="1819.6365" y="376.193" width="36.8234" height="36.8234"/>
      <circle class="cls-2" cx="1819.6365" cy="376.193" r="2.519"/>
      <circle class="cls-2" cx="1856.4598" cy="376.193" r="2.519"/>
      <circle class="cls-2" cx="1856.4598" cy="413.0163" r="2.519"/>
      <circle class="cls-2" cx="1819.6365" cy="413.0163" r="2.519"/>
    </g>
    <g>
      <rect class="cls-8" x="1782.8131" y="376.193" width="36.8234" height="36.8234"/>
      <circle class="cls-2" cx="1782.8131" cy="376.193" r="2.519"/>
      <circle class="cls-2" cx="1819.6365" cy="376.193" r="2.519"/>
      <circle class="cls-2" cx="1819.6365" cy="413.0163" r="2.519"/>
      <circle class="cls-2" cx="1782.8131" cy="413.0163" r="2.519"/>
    </g>
    <g>
      <rect class="cls-8" x="1745.9897" y="376.193" width="36.8234" height="36.8234"/>
      <circle class="cls-2" cx="1745.9897" cy="376.193" r="2.519"/>
      <circle class="cls-2" cx="1782.8131" cy="376.193" r="2.519"/>
      <circle class="cls-2" cx="1782.8131" cy="413.0163" r="2.519"/>
      <circle class="cls-2" cx="1745.9897" cy="413.0163" r="2.519"/>
    </g>
    <g>
      <rect class="cls-8" x="1709.1664" y="376.193" width="36.8234" height="36.8234"/>
      <circle class="cls-2" cx="1709.1664" cy="376.193" r="2.519"/>
      <circle class="cls-2" cx="1745.9897" cy="376.193" r="2.519"/>
      <circle class="cls-2" cx="1745.9897" cy="413.0163" r="2.519"/>
      <circle class="cls-2" cx="1709.1664" cy="413.0163" r="2.519"/>
    </g>
    <g>
      <rect class="cls-8" x="1672.343" y="376.193" width="36.8234" height="36.8234"/>
      <circle class="cls-2" cx="1672.343" cy="376.193" r="2.519"/>
      <circle class="cls-2" cx="1709.1664" cy="376.193" r="2.519"/>
      <circle class="cls-2" cx="1709.1664" cy="413.0163" r="2.519"/>
      <circle class="cls-2" cx="1672.343" cy="413.0163" r="2.519"/>
    </g>
    <g>
      <rect class="cls-8" x="1635.5196" y="376.193" width="36.8234" height="36.8234"/>
      <circle class="cls-2" cx="1635.5196" cy="376.193" r="2.519"/>
      <circle class="cls-2" cx="1672.343" cy="376.193" r="2.519"/>
      <circle class="cls-2" cx="1672.343" cy="413.0163" r="2.519"/>
      <circle class="cls-2" cx="1635.5196" cy="413.0163" r="2.519"/>
    </g>
    <g>
      <rect class="cls-8" x="1598.6963" y="376.193" width="36.8234" height="36.8234"/>
      <circle class="cls-2" cx="1598.6963" cy="376.193" r="2.519"/>
      <circle class="cls-2" cx="1635.5196" cy="376.193" r="2.519"/>
      <circle class="cls-2" cx="1635.5196" cy="413.0163" r="2.519"/>
      <circle class="cls-2" cx="1598.6963" cy="413.0163" r="2.519"/>
    </g>
    <g>
      <rect class="cls-8" x="1561.8729" y="376.193" width="36.8234" height="36.8234"/>
      <circle class="cls-2" cx="1561.8729" cy="376.193" r="2.519"/>
      <circle class="cls-2" cx="1598.6963" cy="376.193" r="2.519"/>
      <circle class="cls-2" cx="1598.6963" cy="413.0163" r="2.519"/>
      <circle class="cls-2" cx="1561.8729" cy="413.0163" r="2.519"/>
    </g>
    <g>
      <rect class="cls-8" x="1525.0495" y="376.193" width="36.8234" height="36.8234"/>
      <circle class="cls-2" cx="1525.0495" cy="376.193" r="2.519"/>
      <circle class="cls-2" cx="1561.8729" cy="376.193" r="2.519"/>
      <circle class="cls-2" cx="1561.8729" cy="413.0163" r="2.519"/>
      <circle class="cls-2" cx="1525.0495" cy="413.0163" r="2.519"/>
    </g>
    <g>
      <rect class="cls-8" x="1488.2262" y="376.193" width="36.8234" height="36.8234"/>
      <circle class="cls-2" cx="1488.2262" cy="376.193" r="2.519"/>
      <circle class="cls-2" cx="1525.0495" cy="376.193" r="2.519"/>
      <circle class="cls-2" cx="1525.0495" cy="413.0163" r="2.519"/>
      <circle class="cls-2" cx="1488.2262" cy="413.0163" r="2.519"/>
    </g>
    <g>
      <rect class="cls-8" x="1451.4028" y="376.193" width="36.8234" height="36.8234"/>
      <circle class="cls-2" cx="1451.4028" cy="376.193" r="2.519"/>
      <circle class="cls-2" cx="1488.2262" cy="376.193" r="2.519"/>
      <circle class="cls-2" cx="1488.2262" cy="413.0163" r="2.519"/>
      <circle class="cls-2" cx="1451.4028" cy="413.0163" r="2.519"/>
    </g>
    <g>
      <rect class="cls-8" x="1414.5794" y="376.193" width="36.8234" height="36.8234"/>
      <circle class="cls-2" cx="1414.5794" cy="376.193" r="2.519"/>
      <circle class="cls-2" cx="1451.4028" cy="376.193" r="2.519"/>
      <circle class="cls-2" cx="1451.4028" cy="413.0163" r="2.519"/>
      <circle class="cls-2" cx="1414.5794" cy="413.0163" r="2.519"/>
    </g>
    <g>
      <rect class="cls-8" x="1377.7561" y="376.193" width="36.8234" height="36.8234"/>
      <circle class="cls-2" cx="1377.7561" cy="376.193" r="2.519"/>
      <circle class="cls-2" cx="1414.5794" cy="376.193" r="2.519"/>
      <circle class="cls-2" cx="1414.5794" cy="413.0163" r="2.519"/>
      <circle class="cls-2" cx="1377.7561" cy="413.0163" r="2.519"/>
    </g>
    <g>
      <rect class="cls-8" x="1340.9327" y="376.193" width="36.8234" height="36.8234"/>
      <circle class="cls-2" cx="1340.9327" cy="376.193" r="2.519"/>
      <circle class="cls-2" cx="1377.7561" cy="376.193" r="2.519"/>
      <circle class="cls-2" cx="1377.7561" cy="413.0163" r="2.519"/>
      <circle class="cls-2" cx="1340.9327" cy="413.0163" r="2.519"/>
    </g>
    <g>
      <rect class="cls-8" x="1304.1093" y="376.193" width="36.8234" height="36.8234"/>
      <circle class="cls-2" cx="1304.1093" cy="376.193" r="2.519"/>
      <circle class="cls-2" cx="1340.9327" cy="376.193" r="2.519"/>
      <circle class="cls-2" cx="1340.9327" cy="413.0163" r="2.519"/>
      <circle class="cls-2" cx="1304.1093" cy="413.0163" r="2.519"/>
    </g>
    <g>
      <rect class="cls-8" x="1267.286" y="376.193" width="36.8234" height="36.8234"/>
      <circle class="cls-2" cx="1267.286" cy="376.193" r="2.519"/>
      <circle class="cls-2" cx="1304.1093" cy="376.193" r="2.519"/>
      <circle class="cls-2" cx="1304.1093" cy="413.0163" r="2.519"/>
      <circle class="cls-2" cx="1267.286" cy="413.0163" r="2.519"/>
    </g>
    <g>
      <rect class="cls-8" x="1230.4626" y="376.193" width="36.8234" height="36.8234"/>
      <circle class="cls-2" cx="1230.4626" cy="376.193" r="2.519"/>
      <circle class="cls-2" cx="1267.286" cy="376.193" r="2.519"/>
      <circle class="cls-2" cx="1267.286" cy="413.0163" r="2.519"/>
      <circle class="cls-2" cx="1230.4626" cy="413.0163" r="2.519"/>
    </g>
    <g>
      <rect class="cls-8" x="1193.6392" y="376.193" width="36.8234" height="36.8234"/>
      <circle class="cls-2" cx="1193.6392" cy="376.193" r="2.519"/>
      <circle class="cls-2" cx="1230.4626" cy="376.193" r="2.519"/>
      <circle class="cls-2" cx="1230.4626" cy="413.0163" r="2.519"/>
      <circle class="cls-2" cx="1193.6392" cy="413.0163" r="2.519"/>
    </g>
    <g>
      <rect class="cls-8" x="1156.8159" y="376.193" width="36.8234" height="36.8234"/>
      <circle class="cls-2" cx="1156.8159" cy="376.193" r="2.519"/>
      <circle class="cls-2" cx="1193.6392" cy="376.193" r="2.519"/>
      <circle class="cls-2" cx="1193.6392" cy="413.0163" r="2.519"/>
      <circle class="cls-2" cx="1156.8159" cy="413.0163" r="2.519"/>
    </g>
    <g>
      <rect class="cls-8" x="1119.9925" y="376.193" width="36.8234" height="36.8234"/>
      <circle class="cls-2" cx="1119.9925" cy="376.193" r="2.519"/>
      <circle class="cls-2" cx="1156.8159" cy="376.193" r="2.519"/>
      <circle class="cls-2" cx="1156.8159" cy="413.0163" r="2.519"/>
      <circle class="cls-2" cx="1119.9925" cy="413.0163" r="2.519"/>
    </g>
    <g>
      <rect class="cls-8" x="1083.1691" y="376.193" width="36.8234" height="36.8234"/>
      <circle class="cls-2" cx="1083.1691" cy="376.193" r="2.519"/>
      <circle class="cls-2" cx="1119.9925" cy="376.193" r="2.519"/>
      <circle class="cls-2" cx="1119.9925" cy="413.0163" r="2.519"/>
      <circle class="cls-2" cx="1083.1691" cy="413.0163" r="2.519"/>
    </g>
    <g>
      <rect class="cls-8" x="1046.3458" y="376.193" width="36.8234" height="36.8234"/>
      <circle class="cls-2" cx="1046.3458" cy="376.193" r="2.519"/>
      <circle class="cls-2" cx="1083.1691" cy="376.193" r="2.519"/>
      <circle class="cls-2" cx="1083.1691" cy="413.0163" r="2.519"/>
      <circle class="cls-2" cx="1046.3458" cy="413.0163" r="2.519"/>
    </g>
    <g>
      <rect class="cls-8" x="1009.5224" y="376.193" width="36.8234" height="36.8234"/>
      <circle class="cls-2" cx="1009.5224" cy="376.193" r="2.519"/>
      <circle class="cls-2" cx="1046.3458" cy="376.193" r="2.519"/>
      <circle class="cls-2" cx="1046.3458" cy="413.0163" r="2.519"/>
      <circle class="cls-2" cx="1009.5224" cy="413.0163" r="2.519"/>
    </g>
    <g>
      <rect class="cls-8" x="972.699" y="376.193" width="36.8234" height="36.8234"/>
      <circle class="cls-2" cx="972.699" cy="376.193" r="2.519"/>
      <circle class="cls-2" cx="1009.5224" cy="376.193" r="2.519"/>
      <circle class="cls-2" cx="1009.5224" cy="413.0163" r="2.519"/>
      <circle class="cls-2" cx="972.699" cy="413.0163" r="2.519"/>
    </g>
    <g>
      <rect class="cls-8" x="935.8757" y="376.193" width="36.8234" height="36.8234"/>
      <circle class="cls-2" cx="935.8757" cy="376.193" r="2.519"/>
      <circle class="cls-2" cx="972.699" cy="376.193" r="2.519"/>
      <circle class="cls-2" cx="972.699" cy="413.0163" r="2.519"/>
      <circle class="cls-2" cx="935.8757" cy="413.0163" r="2.519"/>
    </g>
    <g>
      <rect class="cls-8" x="899.0523" y="376.193" width="36.8234" height="36.8234"/>
      <circle class="cls-2" cx="899.0523" cy="376.193" r="2.519"/>
      <circle class="cls-2" cx="935.8757" cy="376.193" r="2.519"/>
      <circle class="cls-2" cx="935.8757" cy="413.0163" r="2.519"/>
      <circle class="cls-2" cx="899.0523" cy="413.0163" r="2.519"/>
    </g>
  </g>
  <g>
    <g>
      <rect class="cls-8" x="1893.2832" y="339.3696" width="36.8234" height="36.8234"/>
      <circle class="cls-2" cx="1893.2832" cy="339.3696" r="2.519"/>
      <circle class="cls-2" cx="1930.1066" cy="339.3696" r="2.519"/>
      <circle class="cls-2" cx="1930.1066" cy="376.193" r="2.519"/>
      <circle class="cls-2" cx="1893.2832" cy="376.193" r="2.519"/>
    </g>
    <g>
      <rect class="cls-8" x="1856.4598" y="339.3696" width="36.8234" height="36.8234"/>
      <circle class="cls-2" cx="1856.4598" cy="339.3696" r="2.519"/>
      <circle class="cls-2" cx="1893.2832" cy="339.3696" r="2.519"/>
      <circle class="cls-2" cx="1893.2832" cy="376.193" r="2.519"/>
      <circle class="cls-2" cx="1856.4598" cy="376.193" r="2.519"/>
    </g>
    <g>
      <rect class="cls-8" x="1819.6365" y="339.3696" width="36.8234" height="36.8234"/>
      <circle class="cls-2" cx="1819.6365" cy="339.3696" r="2.519"/>
      <circle class="cls-2" cx="1856.4598" cy="339.3696" r="2.519"/>
      <circle class="cls-2" cx="1856.4598" cy="376.193" r="2.519"/>
      <circle class="cls-2" cx="1819.6365" cy="376.193" r="2.519"/>
    </g>
    <g>
      <rect class="cls-8" x="1782.8131" y="339.3696" width="36.8234" height="36.8234"/>
      <circle class="cls-2" cx="1782.8131" cy="339.3696" r="2.519"/>
      <circle class="cls-2" cx="1819.6365" cy="339.3696" r="2.519"/>
      <circle class="cls-2" cx="1819.6365" cy="376.193" r="2.519"/>
      <circle class="cls-2" cx="1782.8131" cy="376.193" r="2.519"/>
    </g>
    <g>
      <rect class="cls-8" x="1745.9897" y="339.3696" width="36.8234" height="36.8234"/>
      <circle class="cls-2" cx="1745.9897" cy="339.3696" r="2.519"/>
      <circle class="cls-2" cx="1782.8131" cy="339.3696" r="2.519"/>
      <circle class="cls-2" cx="1782.8131" cy="376.193" r="2.519"/>
      <circle class="cls-2" cx="1745.9897" cy="376.193" r="2.519"/>
    </g>
    <g>
      <rect class="cls-8" x="1709.1664" y="339.3696" width="36.8234" height="36.8234"/>
      <circle class="cls-2" cx="1709.1664" cy="339.3696" r="2.519"/>
      <circle class="cls-2" cx="1745.9897" cy="339.3696" r="2.519"/>
      <circle class="cls-2" cx="1745.9897" cy="376.193" r="2.519"/>
      <circle class="cls-2" cx="1709.1664" cy="376.193" r="2.519"/>
    </g>
    <g>
      <rect class="cls-8" x="1672.343" y="339.3696" width="36.8234" height="36.8234"/>
      <circle class="cls-2" cx="1672.343" cy="339.3696" r="2.519"/>
      <circle class="cls-2" cx="1709.1664" cy="339.3696" r="2.519"/>
      <circle class="cls-2" cx="1709.1664" cy="376.193" r="2.519"/>
      <circle class="cls-2" cx="1672.343" cy="376.193" r="2.519"/>
    </g>
    <g>
      <rect class="cls-8" x="1635.5196" y="339.3696" width="36.8234" height="36.8234"/>
      <circle class="cls-2" cx="1635.5196" cy="339.3696" r="2.519"/>
      <circle class="cls-2" cx="1672.343" cy="339.3696" r="2.519"/>
      <circle class="cls-2" cx="1672.343" cy="376.193" r="2.519"/>
      <circle class="cls-2" cx="1635.5196" cy="376.193" r="2.519"/>
    </g>
    <g>
      <rect class="cls-8" x="1598.6963" y="339.3696" width="36.8234" height="36.8234"/>
      <circle class="cls-2" cx="1598.6963" cy="339.3696" r="2.519"/>
      <circle class="cls-2" cx="1635.5196" cy="339.3696" r="2.519"/>
      <circle class="cls-2" cx="1635.5196" cy="376.193" r="2.519"/>
      <circle class="cls-2" cx="1598.6963" cy="376.193" r="2.519"/>
    </g>
    <g>
      <rect class="cls-8" x="1561.8729" y="339.3696" width="36.8234" height="36.8234"/>
      <circle class="cls-2" cx="1561.8729" cy="339.3696" r="2.519"/>
      <circle class="cls-2" cx="1598.6963" cy="339.3696" r="2.519"/>
      <circle class="cls-2" cx="1598.6963" cy="376.193" r="2.519"/>
      <circle class="cls-2" cx="1561.8729" cy="376.193" r="2.519"/>
    </g>
    <g>
      <rect class="cls-8" x="1525.0495" y="339.3696" width="36.8234" height="36.8234"/>
      <circle class="cls-2" cx="1525.0495" cy="339.3696" r="2.519"/>
      <circle class="cls-2" cx="1561.8729" cy="339.3696" r="2.519"/>
      <circle class="cls-2" cx="1561.8729" cy="376.193" r="2.519"/>
      <circle class="cls-2" cx="1525.0495" cy="376.193" r="2.519"/>
    </g>
    <g>
      <rect class="cls-8" x="1488.2262" y="339.3696" width="36.8234" height="36.8234"/>
      <circle class="cls-2" cx="1488.2262" cy="339.3696" r="2.519"/>
      <circle class="cls-2" cx="1525.0495" cy="339.3696" r="2.519"/>
      <circle class="cls-2" cx="1525.0495" cy="376.193" r="2.519"/>
      <circle class="cls-2" cx="1488.2262" cy="376.193" r="2.519"/>
    </g>
    <g>
      <rect class="cls-8" x="1451.4028" y="339.3696" width="36.8234" height="36.8234"/>
      <circle class="cls-2" cx="1451.4028" cy="339.3696" r="2.519"/>
      <circle class="cls-2" cx="1488.2262" cy="339.3696" r="2.519"/>
      <circle class="cls-2" cx="1488.2262" cy="376.193" r="2.519"/>
      <circle class="cls-2" cx="1451.4028" cy="376.193" r="2.519"/>
    </g>
    <g>
      <rect class="cls-8" x="1414.5794" y="339.3696" width="36.8234" height="36.8234"/>
      <circle class="cls-2" cx="1414.5794" cy="339.3696" r="2.519"/>
      <circle class="cls-2" cx="1451.4028" cy="339.3696" r="2.519"/>
      <circle class="cls-2" cx="1451.4028" cy="376.193" r="2.519"/>
      <circle class="cls-2" cx="1414.5794" cy="376.193" r="2.519"/>
    </g>
    <g>
      <rect class="cls-8" x="1377.7561" y="339.3696" width="36.8234" height="36.8234"/>
      <circle class="cls-2" cx="1377.7561" cy="339.3696" r="2.519"/>
      <circle class="cls-2" cx="1414.5794" cy="339.3696" r="2.519"/>
      <circle class="cls-2" cx="1414.5794" cy="376.193" r="2.519"/>
      <circle class="cls-2" cx="1377.7561" cy="376.193" r="2.519"/>
    </g>
    <g>
      <rect class="cls-8" x="1340.9327" y="339.3696" width="36.8234" height="36.8234"/>
      <circle class="cls-2" cx="1340.9327" cy="339.3696" r="2.519"/>
      <circle class="cls-2" cx="1377.7561" cy="339.3696" r="2.519"/>
      <circle class="cls-2" cx="1377.7561" cy="376.193" r="2.519"/>
      <circle class="cls-2" cx="1340.9327" cy="376.193" r="2.519"/>
    </g>
    <g>
      <rect class="cls-8" x="1304.1093" y="339.3696" width="36.8234" height="36.8234"/>
      <circle class="cls-2" cx="1304.1093" cy="339.3696" r="2.519"/>
      <circle class="cls-2" cx="1340.9327" cy="339.3696" r="2.519"/>
      <circle class="cls-2" cx="1340.9327" cy="376.193" r="2.519"/>
      <circle class="cls-2" cx="1304.1093" cy="376.193" r="2.519"/>
    </g>
    <g>
      <rect class="cls-8" x="1267.286" y="339.3696" width="36.8234" height="36.8234"/>
      <circle class="cls-2" cx="1267.286" cy="339.3696" r="2.519"/>
      <circle class="cls-2" cx="1304.1093" cy="339.3696" r="2.519"/>
      <circle class="cls-2" cx="1304.1093" cy="376.193" r="2.519"/>
      <circle class="cls-2" cx="1267.286" cy="376.193" r="2.519"/>
    </g>
    <g>
      <rect class="cls-8" x="1230.4626" y="339.3696" width="36.8234" height="36.8234"/>
      <circle class="cls-2" cx="1230.4626" cy="339.3696" r="2.519"/>
      <circle class="cls-2" cx="1267.286" cy="339.3696" r="2.519"/>
      <circle class="cls-2" cx="1267.286" cy="376.193" r="2.519"/>
      <circle class="cls-2" cx="1230.4626" cy="376.193" r="2.519"/>
    </g>
    <g>
      <rect class="cls-8" x="1193.6392" y="339.3696" width="36.8234" height="36.8234"/>
      <circle class="cls-2" cx="1193.6392" cy="339.3696" r="2.519"/>
      <circle class="cls-2" cx="1230.4626" cy="339.3696" r="2.519"/>
      <circle class="cls-2" cx="1230.4626" cy="376.193" r="2.519"/>
      <circle class="cls-2" cx="1193.6392" cy="376.193" r="2.519"/>
    </g>
    <g>
      <rect class="cls-8" x="1156.8159" y="339.3696" width="36.8234" height="36.8234"/>
      <circle class="cls-2" cx="1156.8159" cy="339.3696" r="2.519"/>
      <circle class="cls-2" cx="1193.6392" cy="339.3696" r="2.519"/>
      <circle class="cls-2" cx="1193.6392" cy="376.193" r="2.519"/>
      <circle class="cls-2" cx="1156.8159" cy="376.193" r="2.519"/>
    </g>
    <g>
      <rect class="cls-8" x="1119.9925" y="339.3696" width="36.8234" height="36.8234"/>
      <circle class="cls-2" cx="1119.9925" cy="339.3696" r="2.519"/>
      <circle class="cls-2" cx="1156.8159" cy="339.3696" r="2.519"/>
      <circle class="cls-2" cx="1156.8159" cy="376.193" r="2.519"/>
      <circle class="cls-2" cx="1119.9925" cy="376.193" r="2.519"/>
    </g>
    <g>
      <rect class="cls-8" x="1083.1691" y="339.3696" width="36.8234" height="36.8234"/>
      <circle class="cls-2" cx="1083.1691" cy="339.3696" r="2.519"/>
      <circle class="cls-2" cx="1119.9925" cy="339.3696" r="2.519"/>
      <circle class="cls-2" cx="1119.9925" cy="376.193" r="2.519"/>
      <circle class="cls-2" cx="1083.1691" cy="376.193" r="2.519"/>
    </g>
    <g>
      <rect class="cls-8" x="1046.3458" y="339.3696" width="36.8234" height="36.8234"/>
      <circle class="cls-2" cx="1046.3458" cy="339.3696" r="2.519"/>
      <circle class="cls-2" cx="1083.1691" cy="339.3696" r="2.519"/>
      <circle class="cls-2" cx="1083.1691" cy="376.193" r="2.519"/>
      <circle class="cls-2" cx="1046.3458" cy="376.193" r="2.519"/>
    </g>
    <g>
      <rect class="cls-8" x="1009.5224" y="339.3696" width="36.8234" height="36.8234"/>
      <circle class="cls-2" cx="1009.5224" cy="339.3696" r="2.519"/>
      <circle class="cls-2" cx="1046.3458" cy="339.3696" r="2.519"/>
      <circle class="cls-2" cx="1046.3458" cy="376.193" r="2.519"/>
      <circle class="cls-2" cx="1009.5224" cy="376.193" r="2.519"/>
    </g>
    <g>
      <rect class="cls-8" x="972.699" y="339.3696" width="36.8234" height="36.8234"/>
      <circle class="cls-2" cx="972.699" cy="339.3696" r="2.519"/>
      <circle class="cls-2" cx="1009.5224" cy="339.3696" r="2.519"/>
      <circle class="cls-2" cx="1009.5224" cy="376.193" r="2.519"/>
      <circle class="cls-2" cx="972.699" cy="376.193" r="2.519"/>
    </g>
    <g>
      <rect class="cls-8" x="935.8757" y="339.3696" width="36.8234" height="36.8234"/>
      <circle class="cls-2" cx="935.8757" cy="339.3696" r="2.519"/>
      <circle class="cls-2" cx="972.699" cy="339.3696" r="2.519"/>
      <circle class="cls-2" cx="972.699" cy="376.193" r="2.519"/>
      <circle class="cls-2" cx="935.8757" cy="376.193" r="2.519"/>
    </g>
    <g>
      <rect class="cls-8" x="899.0523" y="339.3696" width="36.8234" height="36.8234"/>
      <circle class="cls-2" cx="899.0523" cy="339.3696" r="2.519"/>
      <circle class="cls-2" cx="935.8757" cy="339.3696" r="2.519"/>
      <circle class="cls-2" cx="935.8757" cy="376.193" r="2.519"/>
      <circle class="cls-2" cx="899.0523" cy="376.193" r="2.519"/>
    </g>
  </g>
  <g>
    <g>
      <rect class="cls-8" x="1893.2832" y="302.5462" width="36.8234" height="36.8234"/>
      <circle class="cls-2" cx="1893.2832" cy="302.5462" r="2.519"/>
      <circle class="cls-2" cx="1930.1066" cy="302.5462" r="2.519"/>
      <circle class="cls-2" cx="1930.1066" cy="339.3696" r="2.519"/>
      <circle class="cls-2" cx="1893.2832" cy="339.3696" r="2.519"/>
    </g>
    <g>
      <rect class="cls-8" x="1856.4598" y="302.5462" width="36.8234" height="36.8234"/>
      <circle class="cls-2" cx="1856.4598" cy="302.5462" r="2.519"/>
      <circle class="cls-2" cx="1893.2832" cy="302.5462" r="2.519"/>
      <circle class="cls-2" cx="1893.2832" cy="339.3696" r="2.519"/>
      <circle class="cls-2" cx="1856.4598" cy="339.3696" r="2.519"/>
    </g>
    <g>
      <rect class="cls-8" x="1819.6365" y="302.5462" width="36.8234" height="36.8234"/>
      <circle class="cls-2" cx="1819.6365" cy="302.5462" r="2.519"/>
      <circle class="cls-2" cx="1856.4598" cy="302.5462" r="2.519"/>
      <circle class="cls-2" cx="1856.4598" cy="339.3696" r="2.519"/>
      <circle class="cls-2" cx="1819.6365" cy="339.3696" r="2.519"/>
    </g>
    <g>
      <rect class="cls-8" x="1782.8131" y="302.5462" width="36.8234" height="36.8234"/>
      <circle class="cls-2" cx="1782.8131" cy="302.5462" r="2.519"/>
      <circle class="cls-2" cx="1819.6365" cy="302.5462" r="2.519"/>
      <circle class="cls-2" cx="1819.6365" cy="339.3696" r="2.519"/>
      <circle class="cls-2" cx="1782.8131" cy="339.3696" r="2.519"/>
    </g>
    <g>
      <rect class="cls-8" x="1745.9897" y="302.5462" width="36.8234" height="36.8234"/>
      <circle class="cls-2" cx="1745.9897" cy="302.5462" r="2.519"/>
      <circle class="cls-2" cx="1782.8131" cy="302.5462" r="2.519"/>
      <circle class="cls-2" cx="1782.8131" cy="339.3696" r="2.519"/>
      <circle class="cls-2" cx="1745.9897" cy="339.3696" r="2.519"/>
    </g>
    <g>
      <rect class="cls-8" x="1709.1664" y="302.5462" width="36.8234" height="36.8234"/>
      <circle class="cls-2" cx="1709.1664" cy="302.5462" r="2.519"/>
      <circle class="cls-2" cx="1745.9897" cy="302.5462" r="2.519"/>
      <circle class="cls-2" cx="1745.9897" cy="339.3696" r="2.519"/>
      <circle class="cls-2" cx="1709.1664" cy="339.3696" r="2.519"/>
    </g>
    <g>
      <rect class="cls-8" x="1672.343" y="302.5462" width="36.8234" height="36.8234"/>
      <circle class="cls-2" cx="1672.343" cy="302.5462" r="2.519"/>
      <circle class="cls-2" cx="1709.1664" cy="302.5462" r="2.519"/>
      <circle class="cls-2" cx="1709.1664" cy="339.3696" r="2.519"/>
      <circle class="cls-2" cx="1672.343" cy="339.3696" r="2.519"/>
    </g>
    <g>
      <rect class="cls-8" x="1635.5196" y="302.5462" width="36.8234" height="36.8234"/>
      <circle class="cls-2" cx="1635.5196" cy="302.5462" r="2.519"/>
      <circle class="cls-2" cx="1672.343" cy="302.5462" r="2.519"/>
      <circle class="cls-2" cx="1672.343" cy="339.3696" r="2.519"/>
      <circle class="cls-2" cx="1635.5196" cy="339.3696" r="2.519"/>
    </g>
    <g>
      <rect class="cls-8" x="1598.6963" y="302.5462" width="36.8234" height="36.8234"/>
      <circle class="cls-2" cx="1598.6963" cy="302.5462" r="2.519"/>
      <circle class="cls-2" cx="1635.5196" cy="302.5462" r="2.519"/>
      <circle class="cls-2" cx="1635.5196" cy="339.3696" r="2.519"/>
      <circle class="cls-2" cx="1598.6963" cy="339.3696" r="2.519"/>
    </g>
    <g>
      <rect class="cls-8" x="1561.8729" y="302.5462" width="36.8234" height="36.8234"/>
      <circle class="cls-2" cx="1561.8729" cy="302.5462" r="2.519"/>
      <circle class="cls-2" cx="1598.6963" cy="302.5462" r="2.519"/>
      <circle class="cls-2" cx="1598.6963" cy="339.3696" r="2.519"/>
      <circle class="cls-2" cx="1561.8729" cy="339.3696" r="2.519"/>
    </g>
    <g>
      <rect class="cls-8" x="1525.0495" y="302.5462" width="36.8234" height="36.8234"/>
      <circle class="cls-2" cx="1525.0495" cy="302.5462" r="2.519"/>
      <circle class="cls-2" cx="1561.8729" cy="302.5462" r="2.519"/>
      <circle class="cls-2" cx="1561.8729" cy="339.3696" r="2.519"/>
      <circle class="cls-2" cx="1525.0495" cy="339.3696" r="2.519"/>
    </g>
    <g>
      <rect class="cls-8" x="1488.2262" y="302.5462" width="36.8234" height="36.8234"/>
      <circle class="cls-2" cx="1488.2262" cy="302.5462" r="2.519"/>
      <circle class="cls-2" cx="1525.0495" cy="302.5462" r="2.519"/>
      <circle class="cls-2" cx="1525.0495" cy="339.3696" r="2.519"/>
      <circle class="cls-2" cx="1488.2262" cy="339.3696" r="2.519"/>
    </g>
    <g>
      <rect class="cls-8" x="1451.4028" y="302.5462" width="36.8234" height="36.8234"/>
      <circle class="cls-2" cx="1451.4028" cy="302.5462" r="2.519"/>
      <circle class="cls-2" cx="1488.2262" cy="302.5462" r="2.519"/>
      <circle class="cls-2" cx="1488.2262" cy="339.3696" r="2.519"/>
      <circle class="cls-2" cx="1451.4028" cy="339.3696" r="2.519"/>
    </g>
    <g>
      <rect class="cls-8" x="1414.5794" y="302.5462" width="36.8234" height="36.8234"/>
      <circle class="cls-2" cx="1414.5794" cy="302.5462" r="2.519"/>
      <circle class="cls-2" cx="1451.4028" cy="302.5462" r="2.519"/>
      <circle class="cls-2" cx="1451.4028" cy="339.3696" r="2.519"/>
      <circle class="cls-2" cx="1414.5794" cy="339.3696" r="2.519"/>
    </g>
    <g>
      <rect class="cls-8" x="1377.7561" y="302.5462" width="36.8234" height="36.8234"/>
      <circle class="cls-2" cx="1377.7561" cy="302.5462" r="2.519"/>
      <circle class="cls-2" cx="1414.5794" cy="302.5462" r="2.519"/>
      <circle class="cls-2" cx="1414.5794" cy="339.3696" r="2.519"/>
      <circle class="cls-2" cx="1377.7561" cy="339.3696" r="2.519"/>
    </g>
    <g>
      <rect class="cls-8" x="1340.9327" y="302.5462" width="36.8234" height="36.8234"/>
      <circle class="cls-2" cx="1340.9327" cy="302.5462" r="2.519"/>
      <circle class="cls-2" cx="1377.7561" cy="302.5462" r="2.519"/>
      <circle class="cls-2" cx="1377.7561" cy="339.3696" r="2.519"/>
      <circle class="cls-2" cx="1340.9327" cy="339.3696" r="2.519"/>
    </g>
    <g>
      <rect class="cls-8" x="1304.1093" y="302.5462" width="36.8234" height="36.8234"/>
      <circle class="cls-2" cx="1304.1093" cy="302.5462" r="2.519"/>
      <circle class="cls-2" cx="1340.9327" cy="302.5462" r="2.519"/>
      <circle class="cls-2" cx="1340.9327" cy="339.3696" r="2.519"/>
      <circle class="cls-2" cx="1304.1093" cy="339.3696" r="2.519"/>
    </g>
    <g>
      <rect class="cls-8" x="1267.286" y="302.5462" width="36.8234" height="36.8234"/>
      <circle class="cls-2" cx="1267.286" cy="302.5462" r="2.519"/>
      <circle class="cls-2" cx="1304.1093" cy="302.5462" r="2.519"/>
      <circle class="cls-2" cx="1304.1093" cy="339.3696" r="2.519"/>
      <circle class="cls-2" cx="1267.286" cy="339.3696" r="2.519"/>
    </g>
    <g>
      <rect class="cls-8" x="1230.4626" y="302.5462" width="36.8234" height="36.8234"/>
      <circle class="cls-2" cx="1230.4626" cy="302.5462" r="2.519"/>
      <circle class="cls-2" cx="1267.286" cy="302.5462" r="2.519"/>
      <circle class="cls-2" cx="1267.286" cy="339.3696" r="2.519"/>
      <circle class="cls-2" cx="1230.4626" cy="339.3696" r="2.519"/>
    </g>
    <g>
      <rect class="cls-8" x="1193.6392" y="302.5462" width="36.8234" height="36.8234"/>
      <circle class="cls-2" cx="1193.6392" cy="302.5462" r="2.519"/>
      <circle class="cls-2" cx="1230.4626" cy="302.5462" r="2.519"/>
      <circle class="cls-2" cx="1230.4626" cy="339.3696" r="2.519"/>
      <circle class="cls-2" cx="1193.6392" cy="339.3696" r="2.519"/>
    </g>
    <g>
      <rect class="cls-8" x="1156.8159" y="302.5462" width="36.8234" height="36.8234"/>
      <circle class="cls-2" cx="1156.8159" cy="302.5462" r="2.519"/>
      <circle class="cls-2" cx="1193.6392" cy="302.5462" r="2.519"/>
      <circle class="cls-2" cx="1193.6392" cy="339.3696" r="2.519"/>
      <circle class="cls-2" cx="1156.8159" cy="339.3696" r="2.519"/>
    </g>
    <g>
      <rect class="cls-8" x="1119.9925" y="302.5462" width="36.8234" height="36.8234"/>
      <circle class="cls-2" cx="1119.9925" cy="302.5462" r="2.519"/>
      <circle class="cls-2" cx="1156.8159" cy="302.5462" r="2.519"/>
      <circle class="cls-2" cx="1156.8159" cy="339.3696" r="2.519"/>
      <circle class="cls-2" cx="1119.9925" cy="339.3696" r="2.519"/>
    </g>
    <g>
      <rect class="cls-8" x="1083.1691" y="302.5462" width="36.8234" height="36.8234"/>
      <circle class="cls-2" cx="1083.1691" cy="302.5462" r="2.519"/>
      <circle class="cls-2" cx="1119.9925" cy="302.5462" r="2.519"/>
      <circle class="cls-2" cx="1119.9925" cy="339.3696" r="2.519"/>
      <circle class="cls-2" cx="1083.1691" cy="339.3696" r="2.519"/>
    </g>
    <g>
      <rect class="cls-8" x="1046.3458" y="302.5462" width="36.8234" height="36.8234"/>
      <circle class="cls-2" cx="1046.3458" cy="302.5462" r="2.519"/>
      <circle class="cls-2" cx="1083.1691" cy="302.5462" r="2.519"/>
      <circle class="cls-2" cx="1083.1691" cy="339.3696" r="2.519"/>
      <circle class="cls-2" cx="1046.3458" cy="339.3696" r="2.519"/>
    </g>
    <g>
      <rect class="cls-8" x="1009.5224" y="302.5462" width="36.8234" height="36.8234"/>
      <circle class="cls-2" cx="1009.5224" cy="302.5462" r="2.519"/>
      <circle class="cls-2" cx="1046.3458" cy="302.5462" r="2.519"/>
      <circle class="cls-2" cx="1046.3458" cy="339.3696" r="2.519"/>
      <circle class="cls-2" cx="1009.5224" cy="339.3696" r="2.519"/>
    </g>
    <g>
      <rect class="cls-8" x="972.699" y="302.5462" width="36.8234" height="36.8234"/>
      <circle class="cls-2" cx="972.699" cy="302.5462" r="2.519"/>
      <circle class="cls-2" cx="1009.5224" cy="302.5462" r="2.519"/>
      <circle class="cls-2" cx="1009.5224" cy="339.3696" r="2.519"/>
      <circle class="cls-2" cx="972.699" cy="339.3696" r="2.519"/>
    </g>
    <g>
      <rect class="cls-8" x="935.8757" y="302.5462" width="36.8234" height="36.8234"/>
      <circle class="cls-2" cx="935.8757" cy="302.5462" r="2.519"/>
      <circle class="cls-2" cx="972.699" cy="302.5462" r="2.519"/>
      <circle class="cls-2" cx="972.699" cy="339.3696" r="2.519"/>
      <circle class="cls-2" cx="935.8757" cy="339.3696" r="2.519"/>
    </g>
    <g>
      <rect class="cls-8" x="899.0523" y="302.5462" width="36.8234" height="36.8234"/>
      <circle class="cls-2" cx="899.0523" cy="302.5462" r="2.519"/>
      <circle class="cls-2" cx="935.8757" cy="302.5462" r="2.519"/>
      <circle class="cls-2" cx="935.8757" cy="339.3696" r="2.519"/>
      <circle class="cls-2" cx="899.0523" cy="339.3696" r="2.519"/>
    </g>
  </g>
  <g>
    <path class="cls-6" d="m1630.9806,164.6153h209.2387c2.088,0,3.7807,1.6927,3.7807,3.7807v29.6516c0,2.088-1.6927,3.7807-3.7807,3.7807h-171.218c-2.088,0-3.7807,1.6927-3.7807,3.7807v57.4297c0,22.83-.8092,41.7964-2.426,56.8991-1.6184,15.0963-4.6776,29.2139-9.1681,42.3337-4.1151,12.0116-9.9577,24.7678-17.5315,38.2833-1.1203,1.9992-3.7776,2.5457-5.6015,1.1582l-25.4794-19.3824c-1.5029-1.1433-1.9001-3.2318-.9739-4.8774,5.6766-10.0858,10.1151-19.6859,13.3168-28.8004,3.507-9.9757,6.0209-21.3907,7.5514-34.245,1.5256-12.8511,2.2916-28.9869,2.2916-48.401v-97.6109c0-2.088,1.6927-3.7807,3.7807-3.7807Zm122.6187,48.8801l-.404,23.0455c-.0371,2.1137,1.6662,3.847,3.7802,3.847h74.9331c2.1728,0,3.8985,1.827,3.7746,3.9963l-.3107,5.4421c-.7212,18.8736-1.6648,39.5959-2.8322,62.154-1.1706,22.5613-2.1141,39.9541-2.8306,52.1783-.7212,8.9906-2.6083,16.139-5.6627,21.4355-3.0592,5.3029-7.956,9.2113-14.6965,11.7316-6.7422,2.5139-16.0446,3.7741-27.909,3.7741h-31.1649c-1.7942,0-3.3413-1.261-3.7031-3.0184l-5.9931-29.1111c-.4828-2.3453,1.3086-4.5431,3.7031-4.5431h26.3715c6.4719,0,11.0984-.403,13.8873-1.2122,2.7858-.8092,4.7192-2.3348,5.7971-4.5833,1.0795-2.2453,1.7959-6.1569,2.1573-11.7316.7164-8.8051,1.484-20.5336,2.2932-35.1885.6967-12.6363,1.2255-23.2353,1.5907-31.7949.0918-2.1508-1.6253-3.9342-3.7781-3.9342h-37.6307c-1.9595.0001-3.5793,1.5251-3.7516,3.477-1.6936,19.1847-4.7917,35.69-9.2834,49.5106-4.7656,14.6549-11.73,27.8642-20.8982,39.6374-8.6534,11.1152-20.0306,22.2674-34.1278,33.462-1.4509,1.1522-3.5514,1.0832-4.9223-.1631l-23.9429-21.7665c-1.7418-1.5835-1.6025-4.3508.2552-5.7966,12.321-9.5891,22.1327-18.6928,29.4363-27.3088,7.9975-9.4352,14.1096-19.7276,18.3363-30.8739,3.8392-10.1361,6.5279-22.129,8.0672-35.981.2479-2.2306-1.5286-4.1969-3.773-4.1969h-33.5463c-2.088,0-3.7807-1.6927-3.7807-3.7808v-28.0332c0-2.088,1.6927-3.7807,3.7807-3.7807h35.9189c2.0622,0,3.744-1.6526,3.7802-3.7145l.4087-23.3106c.0361-2.0619,1.718-3.7145,3.7802-3.7145h29.1099c2.114,0,3.8172,1.7334,3.7802,3.847Z"/>
    <path class="cls-7" d="m1457.9375,263.3649c7.22-4.6447,13.5427-9.0285,18.969-13.1505,2.4457-1.8578,5.9613-.0789,5.9612,2.9925,0,2.0613,1.671,3.7323,3.7324,3.7323h62.8145c2.0613,0,3.7324-1.671,3.7324-3.7323v-.9631c0-3.085,3.5216-4.8435,5.9646-2.9597,6.4015,4.9363,13.4148,9.5046,21.0411,13.7047,1.9198,1.0574,4.3602.2051,5.2341-1.8049l10.2167-23.499c.8137-1.8717-.0528-4.0241-1.9052-4.881-7.6435-3.5357-14.3731-7.5164-20.1869-11.9356-4.8787-3.7087-9.3069-8.1554-13.2799-13.3431-1.8622-2.4314-.0539-5.9586,3.0087-5.9586h22.3783c2.0614-.0001,3.7324-1.6712,3.7324-3.7324v-24.4779c0-2.0614-1.671-3.7325-3.7324-3.7325h-50.6741c-2.4004,0-4.1767-2.233-3.6368-4.5719l1.982-8.5863c.507-2.1963-1.0335-4.3374-3.2772-4.5546l-25.5047-2.469c-1.8701-.1809-3.5556,1.0489-3.9702,2.8813-1.0918,4.8252-2.3614,9.6929-3.8124,14.6064-.4697,1.5907-1.9525,2.6941-3.6112,2.6941h-9.6776v-9.3291c0-2.4894-2.0181-4.5076-4.5076-4.5076h-11.1488c-.2729,0-.5373.0338-.7969.0803h-36.6669c-2.4894,0-4.5076,2.0181-4.5076,4.5076v11.1488c0,2.4895,2.0182,4.5076,4.5076,4.5076h14.745l-20.7996,20.7997c-8.4052-4.5735-18.0399-7.1727-28.2821-7.1727-10.1473,0-19.6963,2.5548-28.0462,7.0497l-3.6999-3.6999,9.3473-9.3473c1.7174-1.7174,1.7174-4.5019,0-6.2194l-5.1543-5.1542c-.9027-.9027-2.0994-1.3178-3.2818-1.2716.7463-.8043,1.2124-1.8728,1.2124-3.0566v-7.7363c0-2.4894-2.0181-4.5075-4.5075-4.5075h-40.2767c-.2596-.0465-.524-.0803-.7969-.0803h-7.5391c-2.4895,0-4.5076,2.0181-4.5076,4.5076v48.6127c0,2.4894,2.0181,4.5075,4.5076,4.5075h7.5391c1.5213,0,2.8602-.7589,3.6764-1.9131-.1699,1.307.2296,2.6742,1.2336,3.6781l5.1542,5.1543c1.7175,1.7174,4.502,1.7174,6.2194,0l9.3473-9.3473,2.3241,2.3241c-7.5343,9.9396-12.0108,22.3246-12.0108,35.7587,0,27.5272,18.7712,50.6653,44.21,57.3256v21.4243h-22.6031c-2.5305,0-4.5818,2.0514-4.5818,4.5818v14.7398c0,2.5305,2.0514,4.5818,4.5818,4.5818h22.6031v36.8464c0,2.9556,2.396,5.3516,5.3516,5.3516h19.3951c2.9556,0,5.3516-2.396,5.3516-5.3516v-36.8464h22.6034c2.5305,0,4.5818-2.0514,4.5818-4.5818v-14.7398c0-2.5305-2.0514-4.5818-4.5818-4.5818h-22.6034v-21.4242c16.6909-4.3699,30.5014-15.8373,38.0323-30.9815v20.5364c0,2.0614,1.671,3.7325,3.7323,3.7325h9.3312c2.34,0,4.1028,2.1283,3.6671,4.4274l-6.0418,31.8766c-.4357,2.2991,1.3271,4.4275,3.6672,4.4275h73.0166c2.4137,0,4.1927,2.2565,3.6293,4.6036l-.4926,2.0524c-.3568,1.4209-.6646,2.8418-.9315,4.2563-.2668,1.4241-.5778,2.6649-.9314,3.729-.3585,3.0185-1.5109,5.1025-3.4606,6.255-1.9561,1.1555-4.9715,1.7302-9.051,1.7302h-43.905c-2.3527,0-4.1187,2.1505-3.6612,4.4584l4.6424,23.4154c.3464,1.7476,1.8797,3.0065,3.6612,3.0065h44.0541c9.7581,0,17.4356-1.023,23.026-3.0627,5.5903-2.0398,9.804-5.4151,12.6457-10.1166,2.837-4.7047,4.8783-11.3986,6.1223-20.0943l4.2595-35.408,1.3489-10.9877c.2731-2.2251-1.4629-4.1873-3.7046-4.1873h-70.6847c-2.4004,0-4.1767-2.233-3.6368-4.5718l.6734-2.9171c.3909-1.6934,1.8988-2.8928,3.6367-2.8928h83.2759c2.0614,0,3.7324-1.671,3.7324-3.7325v-23.147c0-2.0613-1.671-3.7324-3.7324-3.7324h-134.1563c-.3797,0-.7388.0734-1.0841.1789.7105-1.9617,1.3125-3.9743,1.8155-6.0262,1.218,1.0167,3.0034,1.2005,4.4133.2934Zm48.4875-42.4503c4.6652-6.2938,8.6157-12.7444,11.8492-19.3481h3.4606c2.7131,6.6532,6.2059,13.1512,10.4786,19.4898,1.6677,2.4739-.0923,5.8018-3.0758,5.8018h-19.7352c-3.0624,0-4.8013-3.483-2.9774-5.9434Zm-144.3776-48.4679l-9.1878,9.1878-9.1679-9.1678h18.1576c.0678,0,.131-.017.1981-.02Zm-36.3617,36.3617c-.1772.1772-.3246.3719-.4653.5696.0287-.2054.0628-.4094.0628-.6227v-19.044l9.7499,9.7498-9.3473,9.3473Zm125.477,18.5168c-1.9672-5.0233-4.5867-9.7186-7.7771-13.9653l19.8866-19.8866v15.4342c0,2.4895,2.0181,4.5076,4.5075,4.5076h2.4695c-4.4526,4.6561-9.4602,8.925-19.0865,13.9102Zm-55.1835,45.5041c-13.206,0-23.9116-10.7057-23.9116-23.9116s10.7056-23.9116,23.9116-23.9116,23.9116,10.7055,23.9116,23.9116-10.7057,23.9116-23.9116,23.9116Z"/>
    <path class="cls-9" d="m1064.1984,342.8615c-1.9371-.8883-2.7472-3.1687-1.8058-5.0806,8.6645-17.5972,16.5819-38.194,23.7495-61.7982,7.2025-23.7291,12.6893-45.7778,16.4561-66.1517.3791-2.0504,2.3268-3.3831,4.3777-3.0065l32.0853,5.8923c2.1015.3859,3.4842,2.4273,3.0366,4.5165-5.0884,23.7544-11.4695,47.8339-19.1488,72.2304-7.634,24.2634-15.9105,45.883-24.8253,64.8589-.882,1.8774-3.1189,2.6658-5.0043,1.8011l-28.921-13.2624Zm90.301,18.601c4.8535,0,8.2246-.4062,10.1117-1.2122,1.887-.8124,3.1008-2.2005,3.6397-4.1803.5405-1.9766.8092-5.3957.8092-10.2476v-184.4372c0-2.088,1.6927-3.7807,3.7807-3.7807h34.2349c2.088,0,3.7807,1.6927,3.7807,3.7807v196.5718c0,11.3254-1.5752,20.089-4.7192,26.2906-3.1472,6.2016-8.0887,10.5578-14.8309,13.0782-6.7406,2.5139-15.9551,3.7741-27.6387,3.7741h-30.8893c-1.7966,0-3.3451-1.2643-3.7044-3.0247l-6.5469-32.076c-.4783-2.3436,1.3125-4.5368,3.7044-4.5368h28.2681Zm109.7013-155.4763c9.8518,25.4863,25.9733,69.4542,48.3632,131.897.7102,1.9806-.3241,4.1868-2.3123,4.8755l-33.9209,11.7498c-2.031.7035-4.23-.411-4.8516-2.4685-5.4395-18.0067-12.525-39.8976-21.254-65.6753-8.786-25.9311-16.6977-48.4921-23.735-67.6778-.7366-2.0083.3437-4.1999,2.3759-4.8676l30.6271-10.0638c1.9137-.6288,3.9813.3518,4.7076,2.2307Z"/>
  </g>
  <rect class="cls-10" y="473" width="1920" height="207"/>
  <g>
    <path class="cls-18" d="m1361.2148,630.8398h-9.2871v-31.7559h-10.834v-8.6875h30.9561v8.6875h-10.835v31.7559Z"/>
    <path class="cls-18" d="m1408.1494,630.8398l-6.9404-13.7314h-5.293v13.7314h-9.2871v-40.4434h14.3799c3.3281,0,6.1914.541,8.5879,1.6221,2.3965,1.082,4.2275,2.6221,5.4922,4.6191s1.8975,4.3604,1.8975,7.0898c0,2.6631-.583,4.9854-1.7471,6.9648-1.166,1.9814-2.8301,3.5205-4.9932,4.6191l8.7871,15.5283h-10.8838Zm-12.2334-32.0557v9.8867h3.7451c2.5293,0,4.4688-.4248,5.8164-1.2734,1.3486-.8486,2.0225-2.0723,2.0225-3.6699s-.6738-2.8213-2.0225-3.6699c-1.3477-.8486-3.2871-1.2734-5.8164-1.2734h-3.7451Z"/>
    <path class="cls-18" d="m1468.9639,630.8398h-9.8359l-2.7461-8.1387h-14.0811l-2.7461,8.1387h-9.8359l14.8789-40.4434h9.4873l14.8789,40.4434Zm-19.7725-28.3604l-3.8945,11.5332h8.0889l-3.8945-11.5332h-.2998Z"/>
    <path class="cls-18" d="m1491.8311,630.8398h-9.2871v-40.4434h8.4883l15.1289,22.918h.2998v-22.918h9.2871v40.4434h-7.9893l-15.6279-22.918h-.2998v22.918Z"/>
    <path class="cls-18" d="m1535.9941,628.7422c-2.7803-1.8633-4.8359-4.3262-6.167-7.3896l8.0391-3.7441c.665,1.7969,1.7051,3.1621,3.1201,4.0938,1.415.9326,3.0381,1.3984,4.8682,1.3984,1.8975,0,3.4033-.3408,4.5195-1.0234,1.1143-.6826,1.6719-1.5732,1.6719-2.6719,0-.7656-.1992-1.3975-.5986-1.8975-.3994-.499-1.1162-.9736-2.1475-1.4229-1.0322-.4492-2.5635-.9561-4.5928-1.5225-2.6963-.7656-4.9355-1.5312-6.7158-2.2969-1.7812-.7656-3.3545-1.9727-4.7188-3.6201-1.3652-1.6475-2.0469-3.8193-2.0469-6.5156,0-2.3965.6738-4.5352,2.0225-6.416,1.3477-1.8809,3.1777-3.3535,5.4922-4.4189,2.3125-1.0654,4.8682-1.5977,7.6641-1.5977,7.123,0,12.2324,3.2793,15.3281,9.8359l-7.9883,3.7451c-.8662-1.8301-1.8975-3.1455-3.0957-3.9443s-2.6465-1.1982-4.3438-1.1982c-1.5977,0-2.9297.3408-3.9951,1.0234s-1.5977,1.5225-1.5977,2.5215c0,.7988.208,1.4561.624,1.9717.416.5166,1.1318.9912,2.1475,1.4229,1.0146.4336,2.5537.9326,4.6182,1.498,2.6299.6992,4.8438,1.4316,6.6406,2.1973,1.7979.7656,3.3779,1.9639,4.7441,3.5947,1.3643,1.6318,2.0469,3.8115,2.0469,6.541,0,2.5303-.666,4.752-1.9971,6.666-1.332,1.9141-3.1885,3.3867-5.5674,4.418-2.3809,1.0322-5.1016,1.5479-8.1641,1.5479-3.7617,0-7.0322-.9316-9.8105-2.7959Z"/>
    <path class="cls-18" d="m1585.8486,590.3965v32.0547h18.0752v8.3887h-27.3623v-40.4434h9.2871Z"/>
    <path class="cls-18" d="m1627.7891,614.5625v7.8887h18.125v8.3887h-27.4121v-40.4434h26.8125v8.3877h-17.5254v7.3896h16.5771v8.3887h-16.5771Z"/>
    <path class="cls-18" d="m1670.1797,630.8398h-9.2871v-40.4434h8.4883l15.1289,22.918h.2998v-22.918h9.2871v40.4434h-7.9893l-15.6279-22.918h-.2998v22.918Z"/>
    <path class="cls-18" d="m1710.4727,630.8398v-40.4434h14.4297c4.3271,0,8.0391.8154,11.1348,2.4463s5.459,3.9697,7.0898,7.0146c1.6309,3.0459,2.4463,6.6338,2.4463,10.7607s-.8486,7.7139-2.5459,10.7598-4.1611,5.3848-7.3896,7.0146c-3.2295,1.6309-7.0898,2.4473-11.584,2.4473h-13.5811Zm13.6309-8.6885c3.7949,0,6.7412-1.0234,8.8379-3.0703s3.1455-4.8682,3.1455-8.4629-1.0068-6.416-3.0205-8.4639c-2.0146-2.0469-4.8682-3.0703-8.5635-3.0703h-4.7432v23.0674h4.3438Z"/>
    <path class="cls-18" d="m1795.7031,630.8398h-9.8359l-2.7461-8.1387h-14.0811l-2.7461,8.1387h-9.8359l14.8789-40.4434h9.4873l14.8789,40.4434Zm-19.7725-28.3604l-3.8945,11.5332h8.0889l-3.8945-11.5332h-.2998Z"/>
    <path class="cls-18" d="m1830.8037,630.8398l-6.9404-13.7314h-5.293v13.7314h-9.2871v-40.4434h14.3799c3.3281,0,6.1914.541,8.5879,1.6221,2.3965,1.082,4.2275,2.6221,5.4922,4.6191s1.8975,4.3604,1.8975,7.0898c0,2.6631-.583,4.9854-1.7471,6.9648-1.166,1.9814-2.8301,3.5205-4.9932,4.6191l8.7871,15.5283h-10.8838Zm-12.2334-32.0557v9.8867h3.7451c2.5293,0,4.4688-.4248,5.8164-1.2734,1.3486-.8486,2.0225-2.0723,2.0225-3.6699s-.6738-2.8213-2.0225-3.6699c-1.3477-.8486-3.2871-1.2734-5.8164-1.2734h-3.7451Z"/>
  </g>
  <polygon class="cls-17" points="1610.5707 69.605 1625.0681 69.605 1617.8194 82.1602 1610.5707 94.7154 1603.3219 82.1602 1596.0732 69.605 1610.5707 69.605"/>
  <polygon class="cls-17" points="1698.1434 69.605 1712.6409 69.605 1705.3921 82.1602 1698.1434 94.7154 1690.8947 82.1602 1683.646 69.605 1698.1434 69.605"/>
  <polygon class="cls-17" points="1785.7162 69.605 1800.2136 69.605 1792.9649 82.1602 1785.7162 94.7154 1778.4674 82.1602 1771.2187 69.605 1785.7162 69.605"/>
  <polygon class="cls-13" points="1654.357 94.7154 1639.8596 94.7154 1647.1083 82.1602 1654.357 69.605 1661.6058 82.1602 1668.8545 94.7154 1654.357 94.7154"/>
  <polygon class="cls-13" points="1741.9298 94.7154 1727.4323 94.7154 1734.6811 82.1602 1741.9298 69.605 1749.1785 82.1602 1756.4272 94.7154 1741.9298 94.7154"/>
  <polygon class="cls-13" points="1829.5025 94.7154 1815.0051 94.7154 1822.2538 82.1602 1829.5025 69.605 1836.7513 82.1602 1844 94.7154 1829.5025 94.7154"/>
  <polygon class="cls-10" points="475.6507 405.4331 358.6214 473 233.0595 545.4932 191.2056 473 92.9995 302.902 335.5906 162.842 475.6507 405.4331"/>
  <polygon class="cls-16" points="272.576 680 217.4294 584.4833 51.9896 680 272.576 680"/>
  <polygon class="cls-10" points="204.904 561.6986 0 680 0 356.5452 64.8439 319.1075 204.904 561.6986"/>
  <polygon class="cls-10" points="628.6864 670.4988 437.3608 619.2333 246.0352 567.9677 488.6264 427.9077 628.6864 670.4988"/>
  <polygon class="cls-14" points="514.6605 473 410.5242 473 246.0352 567.9677 310.5931 680 634.1719 680 514.6605 473"/>
  <polygon class="cls-5" points="153.6938 473 204.904 561.6986 0 680 0 473 153.6938 473"/>
  <polygon class="cls-5" points="233.0595 545.4932 358.6214 473 191.2056 473 233.0595 545.4932"/>
  <text class="cls-4" transform="translate(1559.087 567.9852)"><tspan x="0" y="0">跨性別的小日曆</tspan></text>
  <text class="cls-15" transform="translate(35.6049 460.0781)"><tspan x="0" y="0">LIVE WH</tspan><tspan class="cls-19" x="103.1567" y="0">A</tspan><tspan x="117.5229" y="0">T </tspan><tspan class="cls-12" x="140.1387" y="0">Y</tspan><tspan x="156.0225" y="0">OU LIVED, INSIGHT WH</tspan><tspan class="cls-19" x="430.0732" y="0">A</tspan><tspan x="444.4395" y="0">T </tspan><tspan class="cls-1" x="467.0547" y="0">O</tspan><tspan x="484.5889" y="0">THERS SIGHT.</tspan></text>
  <rect class="cls-13" x="37.605" y="58.605" width="22.1849" height="22.1849" rx="4" ry="4"/>
  <rect class="cls-17" x="37.605" y="100.0504" width="22.1849" height="22.1849" rx="4" ry="4"/>
  <rect class="cls-13" x="37.605" y="141.4958" width="22.1849" height="22.1849" rx="4" ry="4"/>
  <rect class="cls-17" x="37.605" y="182.9412" width="22.1849" height="22.1849" rx="4" ry="4"/>
  <rect class="cls-3" x="1535.0884" y="554.7754" width="5.7731" height="25.9824" transform="translate(970.2083 2105.7415) rotate(-90)"/>
  <path class="cls-20" d="m43.6362,74.2485v-9.1021c0-.1068.0592-.1661.1661-.1661h1.4714c.0949,0,.1543.0356.2018.1186l3.2634,5.4234,3.216-5.4234c.0474-.083.1068-.1186.2017-.1186h1.4359c.1069,0,.1661.0594.1661.1661v9.1021c0,.1068-.0592.1661-.1661.1661h-1.3409c-.0949,0-.1661-.0594-.1661-.1661v-6.3727l-2.7651,4.6281c-.0356.0713-.0949.1069-.1899.1069h-.8662c-.0949,0-.1543-.0356-.2018-.1069l-2.765-4.5688v6.3134c0,.1068-.0594.1661-.1661.1661h-1.3291c-.1069,0-.1661-.0594-.1661-.1661Z"/>
  <path class="cls-20" d="m44.0522,158.4538v-10.7734c0-.1523.083-.2491.2353-.2491h4.1681c3.6418,0,5.719,1.9801,5.719,5.6358,0,3.628-2.0773,5.636-5.719,5.636h-4.1681c-.1523,0-.2353-.097-.2353-.2493Zm7.2007-5.3867c0-2.0078-1.0802-2.9911-3.0743-2.9911h-1.3016v5.9821h1.3016c1.994,0,3.0743-.9832,3.0743-2.9911Z"/>
  <rect class="cls-18" x="1307.1864" y="604.3109" width="12.6145" height="12.6145" rx="1.6794" ry="1.6794"/>
  <text class="cls-11" transform="translate(341.8516 162.3892) rotate(60.0001)"><tspan x="0" y="0">T</tspan></text>
  <text class="cls-11" transform="translate(345.856 169.3248) rotate(59.9999)"><tspan x="0" y="0">r</tspan></text>
  <text class="cls-11" transform="translate(348.8174 174.4537) rotate(60)"><tspan x="0" y="0">a</tspan></text>
  <text class="cls-11" transform="translate(352.9537 181.6187) rotate(60.0001)"><tspan x="0" y="0">n</tspan></text>
  <text class="cls-11" transform="translate(357.4268 189.3667) rotate(59.9997)"><tspan x="0" y="0">s</tspan></text>
  <text class="cls-11" transform="translate(361.1685 195.8462) rotate(60.0001)"><tspan x="0" y="0">l</tspan></text>
  <text class="cls-11" transform="translate(363.1597 199.2955) rotate(60.0002)"><tspan x="0" y="0">e</tspan></text>
  <text class="cls-11" transform="translate(367.5181 206.8453) rotate(60)"><tspan x="0" y="0">n</tspan></text>
  <text class="cls-11" transform="translate(372.0025 214.6119) rotate(60)"><tspan x="0" y="0">d</tspan></text>
  <text class="cls-11" transform="translate(376.6275 222.6221) rotate(60.0002)"><tspan x="0" y="0">a</tspan></text>
  <text class="cls-11" transform="translate(380.7794 229.813) rotate(59.9998)"><tspan x="0" y="0">r</tspan></text>
  <text class="cls-11" transform="translate(383.8511 235.1334) rotate(59.9999)"><tspan x="0" y="0"> </tspan></text>
  <text class="cls-11" transform="translate(386.5396 239.7901) rotate(60.0002)"><tspan x="0" y="0">G</tspan></text>
  <text class="cls-11" transform="translate(392.1597 249.525) rotate(59.9998)"><tspan x="0" y="0">i</tspan></text>
  <text class="cls-11" transform="translate(394.1666 253.001) rotate(59.9999)"><tspan x="0" y="0">t</tspan></text>
  <text class="cls-11" transform="translate(397.0611 258.0147) rotate(59.9998)"><tspan x="0" y="0">h</tspan></text>
  <text class="cls-11" transform="translate(401.5411 265.7745) rotate(59.9999)"><tspan x="0" y="0">u</tspan></text>
  <text class="cls-11" transform="translate(406.022 273.5357) rotate(59.9999)"><tspan x="0" y="0">b</tspan></text>
  <text class="cls-11" transform="translate(410.6441 281.5406) rotate(60)"><tspan x="0" y="0"> </tspan></text>
  <text class="cls-11" transform="translate(413.3404 286.212) rotate(59.9999)"><tspan x="0" y="0">L</tspan></text>
  <text class="cls-11" transform="translate(417.7295 293.813) rotate(59.9999)"><tspan x="0" y="0">i</tspan></text>
  <text class="cls-11" transform="translate(419.7335 297.2842) rotate(60)"><tspan x="0" y="0">b</tspan></text>
</svg>